Merritest-Italic.ufo
<glyph name="quotedbl" format="1">
  <advance width="1003"/>
  <unicode hex="0022"/>
  <outline>
    <contour>
      <point x="253" y="966" type="line"/>
      <point x="330" y="1687" type="line"/>
      <point x="557" y="1687" type="line"/>
      <point x="393" y="966" type="line"/>
    </contour>
    <contour>
      <point x="732" y="966" type="line"/>
      <point x="809" y="1687" type="line"/>
      <point x="1036" y="1687" type="line"/>
      <point x="872" y="966" type="line"/>
    </contour>
  </outline>
</glyph>
<glyph name="dollar" format="1">
  <advance width="1205"/>
  <unicode hex="0024"/>
  <outline>
    <contour>
      <point x="109" y="65" type="curve"/>
      <point x="154" y="343" type="line"/>
      <point x="280" y="343" type="line"/>
      <point x="302" y="159" type="line"/>
      <point x="366" y="106"/>
      <point x="466" y="82"/>
      <point x="550" y="82" type="curve" smooth="yes"/>
      <point x="679" y="82"/>
      <point x="844" y="164"/>
      <point x="857" y="344" type="curve" smooth="yes"/>
      <point x="869" y="507"/>
      <point x="735" y="594"/>
      <point x="595" y="681" type="curve" smooth="yes"/>
      <point x="430" y="784"/>
      <point x="253" y="894"/>
      <point x="253" y="1121" type="curve" smooth="yes"/>
      <point x="253" y="1362"/>
      <point x="441" y="1519"/>
      <point x="673" y="1546" type="curve"/>
      <point x="703" y="1729" type="line"/>
      <point x="884" y="1729" type="line"/>
      <point x="853" y="1544" type="line"/>
      <point x="984" y="1531"/>
      <point x="1072" y="1494"/>
      <point x="1115" y="1465" type="curve"/>
      <point x="1068" y="1220" type="line"/>
      <point x="952" y="1220" type="line"/>
      <point x="916" y="1384" type="line"/>
      <point x="872" y="1419"/>
      <point x="778" y="1443"/>
      <point x="702" y="1443" type="curve" smooth="yes"/>
      <point x="598" y="1443"/>
      <point x="447" y="1379"/>
      <point x="435" y="1192" type="curve" smooth="yes"/>
      <point x="425" y="1027"/>
      <point x="563" y="937"/>
      <point x="707" y="849" type="curve" smooth="yes"/>
      <point x="871" y="748"/>
      <point x="1044" y="640"/>
      <point x="1044" y="429" type="curve" smooth="yes"/>
      <point x="1044" y="171"/>
      <point x="843" y="12"/>
      <point x="598" y="-17" type="curve"/>
      <point x="563" y="-230" type="line"/>
      <point x="383" y="-230" type="line"/>
      <point x="417" y="-19" type="line"/>
      <point x="271" y="-6"/>
      <point x="148" y="34"/>
    </contour>
  </outline>
</glyph>
<glyph name="parenright" format="1">
  <advance width="854"/>
  <unicode hex="0029"/>
  <outline>
    <contour>
      <point x="672" y="923" type="curve" smooth="yes"/>
      <point x="672" y="854"/>
      <point x="667" y="781"/>
      <point x="657" y="704" type="curve" smooth="yes"/>
      <point x="579" y="127"/>
      <point x="146" y="-260"/>
      <point x="48" y="-313" type="curve"/>
      <point x="-39" y="-254" type="line"/>
      <point x="45" y="-200"/>
      <point x="352" y="129"/>
      <point x="444" y="655" type="curve"/>
      <point x="455" y="738"/>
      <point x="464" y="842"/>
      <point x="464" y="916" type="curve" smooth="yes"/>
      <point x="464" y="1357"/>
      <point x="278" y="1623"/>
      <point x="207" y="1683" type="curve"/>
      <point x="315" y="1747" type="line"/>
      <point x="332" y="1747" type="line"/>
      <point x="406" y="1697"/>
      <point x="672" y="1436"/>
    </contour>
  </outline>
</glyph>
<glyph name="asterisk" format="1">
  <advance width="1366"/>
  <unicode hex="002A"/>
  <outline>
    <contour>
      <point x="355" y="815" type="line"/>
      <point x="278" y="982" type="line"/>
      <point x="601" y="1112" type="line"/>
      <point x="715" y="1150" type="line"/>
      <point x="609" y="1188" type="line"/>
      <point x="312" y="1318" type="line"/>
      <point x="427" y="1484" type="line"/>
      <point x="672" y="1281" type="line"/>
      <point x="752" y="1205" type="line"/>
      <point x="741" y="1319" type="line"/>
      <point x="734" y="1653" type="line"/>
      <point x="926" y="1652" type="line"/>
      <point x="849" y="1319" type="line"/>
      <point x="815" y="1205" type="line"/>
      <point x="911" y="1281" type="line"/>
      <point x="1201" y="1485" type="line"/>
      <point x="1278" y="1318" type="line"/>
      <point x="955" y="1188" type="line"/>
      <point x="841" y="1149" type="line"/>
      <point x="947" y="1112" type="line"/>
      <point x="1244" y="982" type="line"/>
      <point x="1129" y="816" type="line"/>
      <point x="884" y="1019" type="line"/>
      <point x="803" y="1097" type="line"/>
      <point x="814" y="981" type="line"/>
      <point x="821" y="647" type="line"/>
      <point x="629" y="648" type="line"/>
      <point x="706" y="981" type="line"/>
      <point x="740" y="1097" type="line"/>
      <point x="645" y="1019" type="line"/>
    </contour>
  </outline>
</glyph>
<glyph name="period" format="1">
  <advance width="526"/>
  <unicode hex="002E"/>
  <outline>
    <contour>
      <point x="87" y="103" type="curve" smooth="yes"/>
      <point x="98" y="186"/>
      <point x="170" y="250"/>
      <point x="245" y="250" type="curve" smooth="yes"/>
      <point x="340" y="250"/>
      <point x="374" y="193"/>
      <point x="365" y="125" type="curve" smooth="yes"/>
      <point x="353" y="36"/>
      <point x="276" y="-22"/>
      <point x="197" y="-22" type="curve" smooth="yes"/>
      <point x="126" y="-22"/>
      <point x="77" y="25"/>
    </contour>
  </outline>
</glyph>
<glyph name="two" format="1">
  <advance width="1249"/>
  <unicode hex="0032"/>
  <outline>
    <contour>
      <point x="95" y="0" type="line"/>
      <point x="78" y="79" type="line"/>
      <point x="468" y="270"/>
      <point x="822" y="524"/>
      <point x="822" y="785" type="curve" smooth="yes"/>
      <point x="822" y="938"/>
      <point x="745" y="1026"/>
      <point x="605" y="1026" type="curve" smooth="yes"/>
      <point x="468" y="1026"/>
      <point x="334" y="938"/>
      <point x="258" y="875" type="curve"/>
      <point x="205" y="964" type="line"/>
      <point x="286" y="1049"/>
      <point x="459" y="1162"/>
      <point x="671" y="1162" type="curve" smooth="yes"/>
      <point x="931" y="1162"/>
      <point x="1043" y="1001"/>
      <point x="1043" y="826" type="curve" smooth="yes"/>
      <point x="1043" y="552"/>
      <point x="700" y="303"/>
      <point x="346" y="125" type="curve"/>
      <point x="910" y="163" type="line"/>
      <point x="1006" y="311" type="line"/>
      <point x="1107" y="275" type="line"/>
      <point x="1028" y="0" type="line"/>
    </contour>
  </outline>
</glyph>
<glyph name="three" format="1">
  <advance width="1104"/>
  <unicode hex="0033"/>
  <outline>
    <contour>
      <point x="58" y="-201" type="line"/>
      <point x="107" y="-207"/>
      <point x="151" y="-211"/>
      <point x="188" y="-211" type="curve" smooth="yes"/>
      <point x="445" y="-211"/>
      <point x="697" y="-87"/>
      <point x="697" y="149" type="curve" smooth="yes"/>
      <point x="697" y="303"/>
      <point x="621" y="403"/>
      <point x="419" y="405" type="curve"/>
      <point x="277" y="371" type="line"/>
      <point x="292" y="488" type="line"/>
      <point x="472" y="525"/>
      <point x="719" y="639"/>
      <point x="719" y="842" type="curve" smooth="yes"/>
      <point x="719" y="980"/>
      <point x="628" y="1023"/>
      <point x="526" y="1023" type="curve" smooth="yes"/>
      <point x="392" y="1023"/>
      <point x="293" y="962"/>
      <point x="204" y="897" type="curve"/>
      <point x="161" y="998" type="line"/>
      <point x="228" y="1063"/>
      <point x="401" y="1162"/>
      <point x="615" y="1162" type="curve" smooth="yes"/>
      <point x="785" y="1162"/>
      <point x="942" y="1077"/>
      <point x="942" y="881" type="curve" smooth="yes"/>
      <point x="942" y="700"/>
      <point x="758" y="545"/>
      <point x="574" y="482" type="curve"/>
      <point x="825" y="482"/>
      <point x="928" y="338"/>
      <point x="928" y="176" type="curve" smooth="yes"/>
      <point x="928" y="-132"/>
      <point x="554" y="-327"/>
      <point x="204" y="-327" type="curve" smooth="yes"/>
      <point x="156" y="-327"/>
      <point x="105" y="-323"/>
      <point x="44" y="-315" type="curve"/>
    </contour>
  </outline>
</glyph>
<glyph name="four" format="1">
  <advance width="1264"/>
  <unicode hex="0034"/>
  <outline>
    <contour>
      <point x="62" y="0" type="line"/>
      <point x="26" y="94" type="line"/>
      <point x="268" y="460"/>
      <point x="473" y="801"/>
      <point x="728" y="1256" type="curve"/>
      <point x="835" y="1256" type="line"/>
      <point x="917" y="1167" type="line"/>
      <point x="300" y="219" type="line"/>
      <point x="221" y="120" type="line"/>
      <point x="697" y="148" type="line"/>
      <point x="755" y="591" type="line"/>
      <point x="948" y="649" type="line"/>
      <point x="885" y="159" type="line"/>
      <point x="1136" y="174" type="line"/>
      <point x="1115" y="0" type="line"/>
      <point x="865" y="0" type="line"/>
      <point x="818" y="-375" type="line"/>
      <point x="629" y="-375" type="line"/>
      <point x="678" y="0" type="line"/>
    </contour>
  </outline>
</glyph>
<glyph name="seven" format="1">
  <advance width="1096"/>
  <unicode hex="0037"/>
  <outline>
    <contour>
      <point x="248" y="-254" type="line"/>
      <point x="856" y="1007" type="line"/>
      <point x="289" y="995" type="line"/>
      <point x="193" y="813" type="line"/>
      <point x="65" y="817" type="line"/>
      <point x="135" y="1146" type="line"/>
      <point x="1027" y="1146" type="line"/>
      <point x="1059" y="1103" type="line"/>
      <point x="456" y="-320" type="line"/>
    </contour>
  </outline>
</glyph>
<glyph name="colon" format="1">
  <advance width="526"/>
  <unicode hex="003A"/>
  <outline>
    <contour>
      <point x="160" y="912" type="curve" smooth="yes"/>
      <point x="171" y="995"/>
      <point x="243" y="1059"/>
      <point x="318" y="1059" type="curve" smooth="yes"/>
      <point x="413" y="1059"/>
      <point x="447" y="1002"/>
      <point x="438" y="934" type="curve" smooth="yes"/>
      <point x="426" y="845"/>
      <point x="349" y="787"/>
      <point x="270" y="787" type="curve" smooth="yes"/>
      <point x="199" y="787"/>
      <point x="150" y="834"/>
    </contour>
    <contour>
      <point x="67" y="103" type="curve" smooth="yes"/>
      <point x="78" y="186"/>
      <point x="150" y="250"/>
      <point x="225" y="250" type="curve" smooth="yes"/>
      <point x="320" y="250"/>
      <point x="354" y="193"/>
      <point x="345" y="125" type="curve" smooth="yes"/>
      <point x="333" y="36"/>
      <point x="256" y="-22"/>
      <point x="177" y="-22" type="curve" smooth="yes"/>
      <point x="106" y="-22"/>
      <point x="57" y="25"/>
    </contour>
  </outline>
</glyph>
<glyph name="semicolon" format="1">
  <advance width="526"/>
  <unicode hex="003B"/>
  <outline>
    <contour>
      <point x="65" y="78" type="curve"/>
      <point x="72" y="132" type="line"/>
      <point x="186" y="265" type="line"/>
      <point x="339" y="227"/>
      <point x="378" y="98"/>
      <point x="378" y="-4" type="curve" smooth="yes"/>
      <point x="378" y="-228"/>
      <point x="221" y="-417"/>
      <point x="5" y="-501" type="curve"/>
      <point x="-38" y="-432" type="line"/>
      <point x="-35" y="-411" type="line"/>
      <point x="75" y="-362"/>
      <point x="176" y="-213"/>
      <point x="176" y="-88" type="curve" smooth="yes"/>
      <point x="176" y="0"/>
      <point x="123" y="80"/>
    </contour>
    <contour>
      <point x="162" y="912" type="curve" smooth="yes"/>
      <point x="173" y="995"/>
      <point x="245" y="1059"/>
      <point x="320" y="1059" type="curve" smooth="yes"/>
      <point x="415" y="1059"/>
      <point x="449" y="1002"/>
      <point x="440" y="934" type="curve" smooth="yes"/>
      <point x="428" y="845"/>
      <point x="351" y="787"/>
      <point x="272" y="787" type="curve" smooth="yes"/>
      <point x="201" y="787"/>
      <point x="152" y="834"/>
    </contour>
  </outline>
</glyph>
<glyph name="less" format="1">
  <advance width="1368"/>
  <unicode hex="003C"/>
  <outline>
    <contour>
      <point x="195" y="686" type="line"/>
      <point x="211" y="814" type="line"/>
      <point x="1220" y="1324" type="line"/>
      <point x="1196" y="1130" type="line"/>
      <point x="400" y="751" type="line"/>
      <point x="1108" y="373" type="line"/>
      <point x="1085" y="176" type="line"/>
    </contour>
  </outline>
</glyph>
<glyph name="B" format="1">
  <advance width="1290"/>
  <unicode hex="0042"/>
  <outline>
    <contour>
      <point x="30" y="0" type="line"/>
      <point x="39" y="86" type="line"/>
      <point x="187" y="116" type="line"/>
      <point x="348" y="1406" type="line"/>
      <point x="215" y="1429" type="line"/>
      <point x="227" y="1530" type="line"/>
      <point x="475" y="1530" type="line"/>
      <point x="565" y="1532"/>
      <point x="656" y="1545"/>
      <point x="755" y="1545" type="curve" smooth="yes"/>
      <point x="1064" y="1545"/>
      <point x="1195" y="1383"/>
      <point x="1198" y="1218" type="curve" smooth="yes"/>
      <point x="1202" y="1000"/>
      <point x="1084" y="872"/>
      <point x="901" y="810" type="curve"/>
      <point x="1064" y="785"/>
      <point x="1187" y="662"/>
      <point x="1190" y="490" type="curve" smooth="yes"/>
      <point x="1196" y="127"/>
      <point x="877" y="-14"/>
      <point x="520" y="-14" type="curve" smooth="yes"/>
      <point x="443" y="-14"/>
      <point x="336" y="0"/>
      <point x="265" y="0" type="curve" smooth="yes"/>
    </contour>
    <contour>
      <point x="475" y="852" type="line"/>
      <point x="527" y="849"/>
      <point x="595" y="851"/>
      <point x="650" y="851" type="curve" smooth="yes"/>
      <point x="848" y="851"/>
      <point x="1006" y="954"/>
      <point x="1002" y="1192" type="curve" smooth="yes"/>
      <point x="999" y="1347"/>
      <point x="922" y="1428"/>
      <point x="709" y="1428" type="curve" smooth="yes"/>
      <point x="679" y="1428"/>
      <point x="593" y="1426"/>
      <point x="545" y="1417" type="curve"/>
    </contour>
    <contour>
      <point x="385" y="128" type="line"/>
      <point x="421" y="112"/>
      <point x="522" y="107"/>
      <point x="563" y="107" type="curve" smooth="yes"/>
      <point x="811" y="107"/>
      <point x="984" y="202"/>
      <point x="979" y="468" type="curve" smooth="yes"/>
      <point x="976" y="642"/>
      <point x="887" y="725"/>
      <point x="686" y="725" type="curve" smooth="yes"/>
      <point x="582" y="725"/>
      <point x="499" y="721"/>
      <point x="458" y="718" type="curve"/>
    </contour>
  </outline>
</glyph>
<glyph name="D" format="1">
  <advance width="1431"/>
  <unicode hex="0044"/>
  <outline>
    <contour>
      <point x="29" y="0" type="line"/>
      <point x="38" y="86" type="line"/>
      <point x="186" y="116" type="line"/>
      <point x="348" y="1406" type="line"/>
      <point x="215" y="1429" type="line"/>
      <point x="227" y="1530" type="line"/>
      <point x="523" y="1530" type="line"/>
      <point x="610" y="1531"/>
      <point x="696" y="1546"/>
      <point x="789" y="1546" type="curve" smooth="yes"/>
      <point x="1196" y="1546"/>
      <point x="1360" y="1293"/>
      <point x="1366" y="922" type="curve"/>
      <point x="1376" y="393"/>
      <point x="1055" y="-28"/>
      <point x="585" y="-16" type="curve" smooth="yes"/>
      <point x="557" y="-15"/>
      <point x="503" y="-12"/>
      <point x="472" y="-9" type="curve" smooth="yes"/>
      <point x="427" y="-5"/>
      <point x="330" y="0"/>
      <point x="274" y="0" type="curve" smooth="yes"/>
    </contour>
    <contour>
      <point x="386" y="132" type="line"/>
      <point x="446" y="112"/>
      <point x="572" y="102"/>
      <point x="637" y="101" type="curve"/>
      <point x="1020" y="129"/>
      <point x="1169" y="532"/>
      <point x="1163" y="906" type="curve" smooth="yes"/>
      <point x="1156" y="1289"/>
      <point x="1034" y="1430"/>
      <point x="730" y="1430" type="curve" smooth="yes"/>
      <point x="676" y="1430"/>
      <point x="586" y="1421"/>
      <point x="545" y="1411" type="curve"/>
    </contour>
  </outline>
</glyph>
<glyph name="E" format="1">
  <advance width="1229"/>
  <unicode hex="0045"/>
  <outline>
    <contour>
      <point x="28" y="0" type="line"/>
      <point x="38" y="86" type="line"/>
      <point x="187" y="115" type="line"/>
      <point x="347" y="1406" type="line"/>
      <point x="214" y="1429" type="line"/>
      <point x="226" y="1530" type="line"/>
      <point x="1153" y="1530" type="line"/>
      <point x="1146" y="1220" type="line"/>
      <point x="1040" y="1220" type="line"/>
      <point x="992" y="1408" type="line"/>
      <point x="551" y="1422" type="line"/>
      <point x="479" y="854" type="line"/>
      <point x="926" y="861" type="line"/>
      <point x="914" y="705" type="line"/>
      <point x="467" y="721" type="line"/>
      <point x="384" y="116" type="line"/>
      <point x="935" y="140" type="line"/>
      <point x="1054" y="347" type="line"/>
      <point x="1158" y="316" type="line"/>
      <point x="1069" y="0" type="line"/>
    </contour>
  </outline>
</glyph>
<glyph name="F" format="1">
  <advance width="1162"/>
  <unicode hex="0046"/>
  <outline>
    <contour>
      <point x="30" y="0" type="line"/>
      <point x="38" y="87" type="line"/>
      <point x="187" y="116" type="line"/>
      <point x="347" y="1406" type="line"/>
      <point x="214" y="1429" type="line"/>
      <point x="226" y="1530" type="line"/>
      <point x="1196" y="1530" type="line"/>
      <point x="1173" y="1220" type="line"/>
      <point x="1052" y="1220" type="line"/>
      <point x="1023" y="1402" type="line"/>
      <point x="547" y="1421" type="line"/>
      <point x="479" y="854" type="line"/>
      <point x="949" y="862" type="line"/>
      <point x="937" y="704" type="line"/>
      <point x="467" y="721" type="line"/>
      <point x="385" y="118" type="line"/>
      <point x="654" y="87" type="line"/>
      <point x="646" y="0" type="line"/>
    </contour>
  </outline>
</glyph>
<glyph name="J" format="1">
  <advance width="731"/>
  <unicode hex="004A"/>
  <outline>
    <contour>
      <point x="207" y="86" type="curve" smooth="yes"/>
      <point x="293" y="476"/>
      <point x="317" y="972"/>
      <point x="368" y="1407" type="curve"/>
      <point x="227" y="1429" type="line"/>
      <point x="241" y="1530" type="line"/>
      <point x="725" y="1530" type="line"/>
      <point x="714" y="1429" type="line"/>
      <point x="559" y="1408" type="line"/>
      <point x="487" y="737"/>
      <point x="430" y="170"/>
      <point x="399" y="75" type="curve" smooth="yes"/>
      <point x="313" y="-197"/>
      <point x="86" y="-311"/>
      <point x="-115" y="-345" type="curve"/>
      <point x="-150" y="-257" type="line"/>
      <point x="28" y="-206"/>
      <point x="178" y="-44"/>
    </contour>
  </outline>
</glyph>
<glyph name="L" format="1">
  <advance width="1178"/>
  <unicode hex="004C"/>
  <outline>
    <contour>
      <point x="31" y="0" type="line"/>
      <point x="39" y="87" type="line"/>
      <point x="187" y="116" type="line"/>
      <point x="348" y="1406" type="line"/>
      <point x="215" y="1429" type="line"/>
      <point x="227" y="1530" type="line"/>
      <point x="745" y="1530" type="line"/>
      <point x="734" y="1429" type="line"/>
      <point x="546" y="1406" type="line"/>
      <point x="385" y="116" type="line"/>
      <point x="853" y="127" type="line"/>
      <point x="989" y="454" type="line"/>
      <point x="1106" y="431" type="line"/>
      <point x="1010" y="0" type="line"/>
    </contour>
  </outline>
</glyph>
<glyph name="Q" format="1">
  <advance width="1386"/>
  <unicode hex="0051"/>
  <outline>
    <contour>
      <point x="580" y="-17" type="curve"/>
      <point x="294" y="1"/>
      <point x="108" y="257"/>
      <point x="102" y="643" type="curve"/>
      <point x="92" y="1177"/>
      <point x="413" y="1552"/>
      <point x="805" y="1552" type="curve" smooth="yes"/>
      <point x="1130" y="1552"/>
      <point x="1295" y="1247"/>
      <point x="1301" y="894" type="curve" smooth="yes"/>
      <point x="1309" y="416"/>
      <point x="1059" y="47"/>
      <point x="710" y="-10" type="curve"/>
      <point x="722" y="-168"/>
      <point x="884" y="-181"/>
      <point x="995" y="-181" type="curve" smooth="yes"/>
      <point x="1048" y="-181"/>
      <point x="1144" y="-165"/>
      <point x="1202" y="-138" type="curve"/>
      <point x="1204" y="-274" type="line"/>
      <point x="1155" y="-314"/>
      <point x="1038" y="-358"/>
      <point x="926" y="-358" type="curve" smooth="yes"/>
      <point x="745" y="-358"/>
      <point x="553" y="-248"/>
    </contour>
    <contour>
      <point x="642" y="102" type="curve" smooth="yes"/>
      <point x="904" y="100"/>
      <point x="1108" y="416"/>
      <point x="1100" y="856" type="curve" smooth="yes"/>
      <point x="1094" y="1222"/>
      <point x="982" y="1427"/>
      <point x="771" y="1427" type="curve" smooth="yes"/>
      <point x="510" y="1427"/>
      <point x="299" y="1130"/>
      <point x="306" y="732" type="curve" smooth="yes"/>
      <point x="313" y="355"/>
      <point x="395" y="104"/>
    </contour>
  </outline>
</glyph>
<glyph name="R" format="1">
  <advance width="1348"/>
  <unicode hex="0052"/>
  <outline>
    <contour>
      <point x="50" y="0" type="line"/>
      <point x="59" y="86" type="line"/>
      <point x="187" y="116" type="line"/>
      <point x="348" y="1406" type="line"/>
      <point x="215" y="1429" type="line"/>
      <point x="227" y="1530" type="line"/>
      <point x="413" y="1530" type="line" smooth="yes"/>
      <point x="507" y="1530"/>
      <point x="614" y="1546"/>
      <point x="712" y="1546" type="curve" smooth="yes"/>
      <point x="1048" y="1546"/>
      <point x="1207" y="1433"/>
      <point x="1212" y="1198" type="curve" smooth="yes"/>
      <point x="1217" y="956"/>
      <point x="1079" y="763"/>
      <point x="835" y="695" type="curve"/>
      <point x="923" y="640"/>
      <point x="965" y="536"/>
      <point x="998" y="448" type="curve" smooth="yes"/>
      <point x="1100" y="170"/>
      <point x="1150" y="92"/>
      <point x="1288" y="98" type="curve"/>
      <point x="1284" y="-1" type="line"/>
      <point x="1058" y="1" type="line"/>
      <point x="1012" y="0"/>
      <point x="957" y="73"/>
      <point x="867" y="306" type="curve" smooth="yes"/>
      <point x="798" y="486"/>
      <point x="732" y="685"/>
      <point x="618" y="671" type="curve"/>
      <point x="618" y="671"/>
      <point x="493" y="670"/>
      <point x="440" y="670" type="curve"/>
      <point x="377" y="116" type="line"/>
      <point x="562" y="87" type="line"/>
      <point x="554" y="0" type="line"/>
    </contour>
    <contour>
      <point x="455" y="789" type="line"/>
      <point x="502" y="786"/>
      <point x="634" y="783"/>
      <point x="673" y="786" type="curve" smooth="yes"/>
      <point x="915" y="802"/>
      <point x="1019" y="949"/>
      <point x="1013" y="1180" type="curve" smooth="yes"/>
      <point x="1009" y="1337"/>
      <point x="952" y="1427"/>
      <point x="696" y="1427" type="curve" smooth="yes"/>
      <point x="666" y="1427"/>
      <point x="580" y="1417"/>
      <point x="538" y="1408" type="curve"/>
    </contour>
  </outline>
</glyph>
<glyph name="T" format="1">
  <advance width="1225"/>
  <unicode hex="0054"/>
  <outline>
    <contour>
      <point x="191" y="0" type="line"/>
      <point x="200" y="93" type="line"/>
      <point x="444" y="116" type="line"/>
      <point x="609" y="1423" type="line"/>
      <point x="290" y="1396" type="line"/>
      <point x="197" y="1066" type="line"/>
      <point x="83" y="1064" type="line"/>
      <point x="160" y="1530" type="line"/>
      <point x="1298" y="1530" type="line"/>
      <point x="1232" y="1064" type="line"/>
      <point x="1124" y="1064" type="line"/>
      <point x="1132" y="1397" type="line"/>
      <point x="808" y="1423" type="line"/>
      <point x="642" y="116" type="line"/>
      <point x="890" y="93" type="line"/>
      <point x="883" y="0" type="line"/>
    </contour>
  </outline>
</glyph>
<glyph name="V" format="1">
  <advance width="1225"/>
  <unicode hex="0056"/>
  <outline>
    <contour>
      <point x="434" y="-21" type="line"/>
      <point x="197" y="1406" type="line"/>
      <point x="75" y="1429" type="line"/>
      <point x="85" y="1530" type="line"/>
      <point x="566" y="1530" type="line"/>
      <point x="555" y="1429" type="line"/>
      <point x="404" y="1406" type="line"/>
      <point x="540" y="449" type="line"/>
      <point x="567" y="170" type="line"/>
      <point x="662" y="449" type="line"/>
      <point x="1075" y="1406" type="line"/>
      <point x="941" y="1430" type="line"/>
      <point x="951" y="1530" type="line"/>
      <point x="1361" y="1530" type="line"/>
      <point x="1351" y="1430" type="line"/>
      <point x="1247" y="1408" type="line"/>
      <point x="607" y="-9" type="line"/>
    </contour>
  </outline>
</glyph>
<glyph name="W" format="1">
  <advance width="1781"/>
  <unicode hex="0057"/>
  <outline>
    <contour>
      <point x="349" y="-10" type="line"/>
      <point x="153" y="1407" type="line"/>
      <point x="30" y="1429" type="line"/>
      <point x="42" y="1530" type="line"/>
      <point x="508" y="1530" type="line"/>
      <point x="497" y="1429" type="line"/>
      <point x="341" y="1411" type="line"/>
      <point x="459" y="436" type="line"/>
      <point x="495" y="170" type="line"/>
      <point x="551" y="368" type="line"/>
      <point x="896" y="1289" type="line"/>
      <point x="882" y="1410" type="line"/>
      <point x="764" y="1429" type="line"/>
      <point x="775" y="1530" type="line"/>
      <point x="1251" y="1530" type="line"/>
      <point x="1231" y="1429" type="line"/>
      <point x="1081" y="1409" type="line"/>
      <point x="1186" y="436" type="line"/>
      <point x="1204" y="170" type="line"/>
      <point x="1278" y="398" type="line"/>
      <point x="1685" y="1406" type="line"/>
      <point x="1554" y="1429" type="line"/>
      <point x="1565" y="1530" type="line"/>
      <point x="1987" y="1530" type="line"/>
      <point x="1972" y="1429" type="line"/>
      <point x="1852" y="1407" type="line"/>
      <point x="1255" y="-10" type="line"/>
      <point x="1053" y="-10" type="line"/>
      <point x="937" y="1020" type="line"/>
      <point x="550" y="-10" type="line"/>
    </contour>
  </outline>
</glyph>
<glyph name="b" format="1">
  <advance width="1188"/>
  <unicode hex="0062"/>
  <outline>
    <contour>
      <point x="125" y="-20" type="line"/>
      <point x="323" y="1484" type="line"/>
      <point x="228" y="1527" type="line"/>
      <point x="249" y="1611" type="line"/>
      <point x="489" y="1650" type="line"/>
      <point x="540" y="1623" type="line"/>
      <point x="456" y="998" type="line"/>
      <point x="520" y="1081"/>
      <point x="627" y="1163"/>
      <point x="760" y="1163" type="curve" smooth="yes"/>
      <point x="991" y="1163"/>
      <point x="1100" y="980"/>
      <point x="1100" y="730" type="curve" smooth="yes"/>
      <point x="1100" y="423"/>
      <point x="867" y="-20"/>
      <point x="462" y="-20" type="curve" smooth="yes"/>
      <point x="380" y="-20"/>
      <point x="281" y="3"/>
      <point x="223" y="25" type="curve"/>
    </contour>
    <contour>
      <point x="341" y="143" type="line"/>
      <point x="381" y="111"/>
      <point x="434" y="101"/>
      <point x="493" y="101" type="curve" smooth="yes"/>
      <point x="772" y="101"/>
      <point x="895" y="473"/>
      <point x="895" y="716" type="curve" smooth="yes"/>
      <point x="895" y="911"/>
      <point x="830" y="1020"/>
      <point x="727" y="1020" type="curve" smooth="yes"/>
      <point x="603" y="1020"/>
      <point x="486" y="911"/>
      <point x="433" y="829" type="curve"/>
    </contour>
  </outline>
</glyph>
<glyph name="c" format="1">
  <advance width="879"/>
  <unicode hex="0063"/>
  <outline>
    <contour>
      <point x="435" y="-20" type="curve" smooth="yes"/>
      <point x="209" y="-20"/>
      <point x="77" y="147"/>
      <point x="77" y="430" type="curve" smooth="yes"/>
      <point x="77" y="737"/>
      <point x="281" y="1163"/>
      <point x="666" y="1163" type="curve" smooth="yes"/>
      <point x="738" y="1163"/>
      <point x="829" y="1144"/>
      <point x="886" y="1115" type="curve"/>
      <point x="828" y="921" type="line"/>
      <point x="766" y="975"/>
      <point x="692" y="1016"/>
      <point x="620" y="1016" type="curve" smooth="yes"/>
      <point x="420" y="1016"/>
      <point x="286" y="820"/>
      <point x="286" y="460" type="curve" smooth="yes"/>
      <point x="286" y="222"/>
      <point x="367" y="119"/>
      <point x="491" y="119" type="curve" smooth="yes"/>
      <point x="588" y="119"/>
      <point x="649" y="153"/>
      <point x="759" y="232" type="curve"/>
      <point x="798" y="151" type="line"/>
      <point x="749" y="95"/>
      <point x="624" y="-20"/>
    </contour>
  </outline>
</glyph>
<glyph name="f" format="1">
  <advance width="701"/>
  <unicode hex="0066"/>
  <outline>
    <contour>
      <point x="130" y="-127" type="curve"/>
      <point x="268" y="1012" type="line"/>
      <point x="129" y="1012" type="line"/>
      <point x="144" y="1087" type="line"/>
      <point x="293" y="1149" type="line"/>
      <point x="305" y="1220" type="line" smooth="yes"/>
      <point x="346" y="1467"/>
      <point x="539" y="1670"/>
      <point x="724" y="1670" type="curve" smooth="yes"/>
      <point x="777" y="1670"/>
      <point x="831" y="1666"/>
      <point x="882" y="1644" type="curve"/>
      <point x="823" y="1476" type="line"/>
      <point x="797" y="1494"/>
      <point x="753" y="1525"/>
      <point x="680" y="1524" type="curve" smooth="yes"/>
      <point x="578" y="1523"/>
      <point x="521" y="1409"/>
      <point x="500" y="1243" type="curve" smooth="yes"/>
      <point x="489" y="1155" type="line"/>
      <point x="724" y="1155" type="line"/>
      <point x="708" y="1012" type="line"/>
      <point x="471" y="1012" type="line"/>
      <point x="337" y="-59" type="line" smooth="yes"/>
      <point x="303" y="-330"/>
      <point x="149" y="-511"/>
      <point x="-43" y="-513" type="curve" smooth="yes"/>
      <point x="-112" y="-514"/>
      <point x="-177" y="-508"/>
      <point x="-207" y="-500" type="curve"/>
      <point x="-154" y="-332" type="line"/>
      <point x="-140" y="-338"/>
      <point x="-39" y="-371"/>
      <point x="11" y="-370" type="curve"/>
      <point x="76" y="-370"/>
      <point x="112" y="-263"/>
    </contour>
  </outline>
</glyph>
<glyph name="j" format="1">
  <advance width="647"/>
  <unicode hex="006A"/>
  <outline>
    <contour>
      <point x="188" y="65" type="curve" smooth="yes"/>
      <point x="286" y="980" type="line"/>
      <point x="130" y="1031" type="line"/>
      <point x="148" y="1112" type="line"/>
      <point x="459" y="1163" type="line"/>
      <point x="507" y="1139" type="line"/>
      <point x="377" y="0" type="line" smooth="yes"/>
      <point x="338" y="-340"/>
      <point x="159" y="-518"/>
      <point x="-69" y="-518" type="curve" smooth="yes"/>
      <point x="-132" y="-518"/>
      <point x="-187" y="-505"/>
      <point x="-209" y="-481" type="curve"/>
      <point x="-174" y="-400" type="line"/>
      <point x="-156" y="-408"/>
      <point x="-115" y="-412"/>
      <point x="-104" y="-412" type="curve" smooth="yes"/>
      <point x="90" y="-412"/>
      <point x="162" y="-176"/>
    </contour>
    <contour>
      <point x="432" y="1388" type="curve" smooth="yes"/>
      <point x="367" y="1388"/>
      <point x="314" y="1443"/>
      <point x="317" y="1508" type="curve" smooth="yes"/>
      <point x="320" y="1585"/>
      <point x="397" y="1651"/>
      <point x="461" y="1651" type="curve" smooth="yes"/>
      <point x="538" y="1651"/>
      <point x="586" y="1598"/>
      <point x="583" y="1536" type="curve" smooth="yes"/>
      <point x="580" y="1458"/>
      <point x="510" y="1388"/>
    </contour>
  </outline>
</glyph>
<glyph name="m" format="1">
  <advance width="1882"/>
  <unicode hex="006D"/>
  <outline>
    <contour>
      <point x="135" y="0" type="line"/>
      <point x="265" y="963" type="line"/>
      <point x="166" y="1022" type="line"/>
      <point x="184" y="1111" type="line"/>
      <point x="426" y="1163" type="line"/>
      <point x="474" y="1139" type="line"/>
      <point x="455" y="927" type="line"/>
      <point x="563" y="1059"/>
      <point x="714" y="1163"/>
      <point x="863" y="1163" type="curve" smooth="yes"/>
      <point x="989" y="1163"/>
      <point x="1069" y="1099"/>
      <point x="1082" y="916" type="curve"/>
      <point x="1185" y="1053"/>
      <point x="1330" y="1163"/>
      <point x="1478" y="1163" type="curve" smooth="yes"/>
      <point x="1609" y="1163"/>
      <point x="1704" y="1076"/>
      <point x="1704" y="861" type="curve" smooth="yes"/>
      <point x="1704" y="765"/>
      <point x="1677" y="623"/>
      <point x="1658" y="506" type="curve" smooth="yes"/>
      <point x="1641" y="401"/>
      <point x="1623" y="293"/>
      <point x="1616" y="187" type="curve" smooth="yes"/>
      <point x="1613" y="139"/>
      <point x="1618" y="111"/>
      <point x="1636" y="111" type="curve" smooth="yes"/>
      <point x="1658" y="111"/>
      <point x="1684" y="122"/>
      <point x="1745" y="177" type="curve"/>
      <point x="1776" y="125" type="line"/>
      <point x="1757" y="96"/>
      <point x="1655" y="-20"/>
      <point x="1534" y="-20" type="curve" smooth="yes"/>
      <point x="1455" y="-20"/>
      <point x="1411" y="17"/>
      <point x="1415" y="109" type="curve" smooth="yes"/>
      <point x="1420" y="209"/>
      <point x="1439" y="332"/>
      <point x="1457" y="450" type="curve" smooth="yes"/>
      <point x="1475" y="563"/>
      <point x="1505" y="724"/>
      <point x="1505" y="849" type="curve" smooth="yes"/>
      <point x="1505" y="993"/>
      <point x="1457" y="1003"/>
      <point x="1403" y="1003" type="curve" smooth="yes"/>
      <point x="1305" y="1003"/>
      <point x="1176" y="895"/>
      <point x="1079" y="758" type="curve"/>
      <point x="1073" y="675"/>
      <point x="1060" y="582"/>
      <point x="1048" y="505" type="curve"/>
      <point x="984" y="0" type="line"/>
      <point x="787" y="0" type="line"/>
      <point x="843" y="443" type="line"/>
      <point x="862" y="560"/>
      <point x="884" y="725"/>
      <point x="884" y="850" type="curve" smooth="yes"/>
      <point x="884" y="994"/>
      <point x="846" y="1005"/>
      <point x="775" y="1005" type="curve" smooth="yes"/>
      <point x="673" y="1005"/>
      <point x="533" y="896"/>
      <point x="432" y="755" type="curve"/>
      <point x="330" y="0" type="line"/>
    </contour>
  </outline>
</glyph>
<glyph name="p" format="1">
  <advance width="1160"/>
  <unicode hex="0070"/>
  <outline>
    <contour>
      <point x="300" y="-4" type="curve"/>
      <point x="229" y="-520" type="line"/>
      <point x="39" y="-520" type="line"/>
      <point x="242" y="981" type="line"/>
      <point x="133" y="1032" type="line"/>
      <point x="151" y="1111" type="line"/>
      <point x="413" y="1163" type="line"/>
      <point x="460" y="1139" type="line"/>
      <point x="442" y="1016" type="line"/>
      <point x="507" y="1093"/>
      <point x="608" y="1163"/>
      <point x="732" y="1163" type="curve" smooth="yes"/>
      <point x="963" y="1163"/>
      <point x="1072" y="980"/>
      <point x="1072" y="730" type="curve" smooth="yes"/>
      <point x="1072" y="423"/>
      <point x="839" y="-20"/>
      <point x="434" y="-20" type="curve" smooth="yes"/>
      <point x="391" y="-20"/>
      <point x="344" y="-13"/>
    </contour>
    <contour>
      <point x="320" y="137" type="line"/>
      <point x="359" y="110"/>
      <point x="409" y="101"/>
      <point x="465" y="101" type="curve" smooth="yes"/>
      <point x="744" y="101"/>
      <point x="867" y="473"/>
      <point x="867" y="716" type="curve" smooth="yes"/>
      <point x="867" y="911"/>
      <point x="802" y="1020"/>
      <point x="699" y="1020" type="curve" smooth="yes"/>
      <point x="585" y="1020"/>
      <point x="477" y="928"/>
      <point x="419" y="849" type="curve"/>
    </contour>
  </outline>
</glyph>
<glyph name="r" format="1">
  <advance width="836"/>
  <unicode hex="0072"/>
  <outline>
    <contour>
      <point x="135" y="0" type="line"/>
      <point x="257" y="962" type="line"/>
      <point x="157" y="1022" type="line"/>
      <point x="175" y="1111" type="line"/>
      <point x="417" y="1163" type="line"/>
      <point x="465" y="1139" type="line"/>
      <point x="444" y="912" type="line"/>
      <point x="484" y="991"/>
      <point x="615" y="1162"/>
      <point x="806" y="1162" type="curve" smooth="yes"/>
      <point x="826" y="1162"/>
      <point x="856" y="1160"/>
      <point x="867" y="1149" type="curve"/>
      <point x="823" y="941" type="line"/>
      <point x="803" y="951"/>
      <point x="769" y="955"/>
      <point x="720" y="955" type="curve" smooth="yes"/>
      <point x="624" y="955"/>
      <point x="497" y="897"/>
      <point x="419" y="716" type="curve"/>
      <point x="330" y="0" type="line"/>
    </contour>
  </outline>
</glyph>
<glyph name="s" format="1">
  <advance width="869"/>
  <unicode hex="0073"/>
  <outline>
    <contour>
      <point x="42" y="39" type="curve"/>
      <point x="78" y="190" type="line"/>
      <point x="121" y="161"/>
      <point x="225" y="115"/>
      <point x="346" y="115" type="curve" smooth="yes"/>
      <point x="431" y="115"/>
      <point x="545" y="127"/>
      <point x="545" y="259" type="curve" smooth="yes"/>
      <point x="545" y="370"/>
      <point x="456" y="437"/>
      <point x="369" y="502" type="curve" smooth="yes"/>
      <point x="299" y="554"/>
      <point x="160" y="677"/>
      <point x="160" y="839" type="curve" smooth="yes"/>
      <point x="160" y="1038"/>
      <point x="342" y="1163"/>
      <point x="545" y="1163" type="curve" smooth="yes"/>
      <point x="652" y="1163"/>
      <point x="768" y="1141"/>
      <point x="801" y="1126" type="curve"/>
      <point x="763" y="959" type="line"/>
      <point x="752" y="976"/>
      <point x="662" y="1034"/>
      <point x="536" y="1034" type="curve" smooth="yes"/>
      <point x="452" y="1034"/>
      <point x="363" y="1006"/>
      <point x="350" y="899" type="curve" smooth="yes"/>
      <point x="337" y="794"/>
      <point x="421" y="713"/>
      <point x="508" y="645" type="curve" smooth="yes"/>
      <point x="611" y="564"/>
      <point x="732" y="465"/>
      <point x="732" y="297" type="curve" smooth="yes"/>
      <point x="732" y="91"/>
      <point x="545" y="-20"/>
      <point x="336" y="-20" type="curve" smooth="yes"/>
      <point x="215" y="-20"/>
      <point x="77" y="9"/>
    </contour>
  </outline>
</glyph>
<glyph name="v" format="1">
  <advance width="1057"/>
  <unicode hex="0076"/>
  <outline>
    <contour>
      <point x="322" y="-20" type="line"/>
      <point x="264" y="355" type="line"/>
      <point x="168" y="965" type="line"/>
      <point x="160" y="1006"/>
      <point x="146" y="1020"/>
      <point x="128" y="1021" type="curve" smooth="yes"/>
      <point x="108" y="1022"/>
      <point x="88" y="1013"/>
      <point x="66" y="998" type="curve"/>
      <point x="37" y="1058" type="line"/>
      <point x="51" y="1079"/>
      <point x="132" y="1163"/>
      <point x="233" y="1163" type="curve" smooth="yes"/>
      <point x="334" y="1163"/>
      <point x="357" y="1114"/>
      <point x="366" y="1026" type="curve" smooth="yes"/>
      <point x="433" y="355" type="line"/>
      <point x="445" y="170" type="line"/>
      <point x="559" y="338" type="line"/>
      <point x="668" y="513"/>
      <point x="759" y="668"/>
      <point x="803" y="899" type="curve"/>
      <point x="814" y="966"/>
      <point x="775" y="1013"/>
      <point x="775" y="1055" type="curve" smooth="yes"/>
      <point x="775" y="1129"/>
      <point x="815" y="1163"/>
      <point x="870" y="1163" type="curve" smooth="yes"/>
      <point x="958" y="1163"/>
      <point x="998" y="1087"/>
      <point x="998" y="963" type="curve" smooth="yes"/>
      <point x="998" y="778"/>
      <point x="820" y="502"/>
      <point x="707" y="322" type="curve"/>
      <point x="473" y="-8" type="line"/>
    </contour>
  </outline>
</glyph>
<glyph name="y" format="1">
  <advance width="1071"/>
  <unicode hex="0079"/>
  <outline>
    <contour>
      <point x="-83" y="-320" type="line"/>
      <point x="-65" y="-327"/>
      <point x="-11" y="-360"/>
      <point x="86" y="-360" type="curve" smooth="yes"/>
      <point x="170" y="-360"/>
      <point x="314" y="-291"/>
      <point x="413" y="-53" type="curve"/>
      <point x="350" y="-53" type="line"/>
      <point x="180" y="965" type="line"/>
      <point x="168" y="1006"/>
      <point x="160" y="1021"/>
      <point x="140" y="1021" type="curve" smooth="yes"/>
      <point x="125" y="1021"/>
      <point x="107" y="1020"/>
      <point x="58" y="978" type="curve"/>
      <point x="29" y="1038" type="line"/>
      <point x="45" y="1063"/>
      <point x="141" y="1163"/>
      <point x="245" y="1163" type="curve" smooth="yes"/>
      <point x="344" y="1163"/>
      <point x="365" y="1109"/>
      <point x="378" y="1026" type="curve"/>
      <point x="463" y="295" type="line"/>
      <point x="483" y="21" type="line"/>
      <point x="642" y="338" type="line"/>
      <point x="728" y="542"/>
      <point x="802" y="669"/>
      <point x="832" y="898" type="curve" smooth="yes"/>
      <point x="841" y="965"/>
      <point x="802" y="1012"/>
      <point x="802" y="1054" type="curve" smooth="yes"/>
      <point x="802" y="1128"/>
      <point x="844" y="1162"/>
      <point x="899" y="1162" type="curve" smooth="yes"/>
      <point x="987" y="1162"/>
      <point x="1027" y="1096"/>
      <point x="1027" y="972" type="curve" smooth="yes"/>
      <point x="1027" y="747"/>
      <point x="887" y="511"/>
      <point x="789" y="322" type="curve"/>
      <point x="597" y="-65"/>
      <point x="483" y="-242"/>
      <point x="401" y="-340" type="curve"/>
      <point x="352" y="-410"/>
      <point x="234" y="-505"/>
      <point x="44" y="-505" type="curve" smooth="yes"/>
      <point x="0" y="-505"/>
      <point x="-89" y="-490"/>
      <point x="-129" y="-478" type="curve"/>
    </contour>
  </outline>
</glyph>
<glyph name="z" format="1">
  <advance width="1025"/>
  <unicode hex="007A"/>
  <outline>
    <contour>
      <point x="-3" y="39" type="line"/>
      <point x="639" y="827" type="line"/>
      <point x="777" y="979" type="line"/>
      <point x="393" y="980" type="line" smooth="yes"/>
      <point x="300" y="980"/>
      <point x="223" y="909"/>
      <point x="209" y="819" type="curve"/>
      <point x="146" y="819" type="line"/>
      <point x="147" y="912"/>
      <point x="169" y="1105"/>
      <point x="226" y="1143" type="curve" smooth="yes"/>
      <point x="243" y="1154"/>
      <point x="277" y="1163"/>
      <point x="326" y="1163" type="curve" smooth="yes"/>
      <point x="475" y="1163"/>
      <point x="736" y="1128"/>
      <point x="856" y="1128" type="curve" smooth="yes"/>
      <point x="883" y="1128"/>
      <point x="938" y="1138"/>
      <point x="968" y="1163" type="curve"/>
      <point x="1026" y="1103" type="line"/>
      <point x="376" y="296" type="line"/>
      <point x="248" y="153" type="line"/>
      <point x="660" y="153" type="line" smooth="yes"/>
      <point x="753" y="153"/>
      <point x="834" y="225"/>
      <point x="848" y="315" type="curve"/>
      <point x="910" y="315" type="line"/>
      <point x="909" y="222"/>
      <point x="884" y="35"/>
      <point x="827" y="-3" type="curve" smooth="yes"/>
      <point x="810" y="-14"/>
      <point x="776" y="-23"/>
      <point x="727" y="-23" type="curve" smooth="yes"/>
      <point x="578" y="-23"/>
      <point x="287" y="10"/>
      <point x="167" y="10" type="curve" smooth="yes"/>
      <point x="145" y="10"/>
      <point x="109" y="5"/>
      <point x="82" y="-10" type="curve"/>
      <point x="65" y="-23" type="line"/>
    </contour>
  </outline>
</glyph>
<glyph name="asciitilde" format="1">
  <advance width="1137"/>
  <unicode hex="007E"/>
  <outline>
    <contour>
      <point x="223" y="775" type="curve"/>
      <point x="152" y="848" type="line"/>
      <point x="184" y="944"/>
      <point x="313" y="1058"/>
      <point x="464" y="1058" type="curve" smooth="yes"/>
      <point x="617" y="1058"/>
      <point x="693" y="886"/>
      <point x="806" y="886" type="curve" smooth="yes"/>
      <point x="895" y="886"/>
      <point x="961" y="933"/>
      <point x="1008" y="1003" type="curve"/>
      <point x="1079" y="930" type="line"/>
      <point x="1050" y="822"/>
      <point x="918" y="720"/>
      <point x="767" y="720" type="curve" smooth="yes"/>
      <point x="614" y="720"/>
      <point x="540" y="892"/>
      <point x="425" y="892" type="curve" smooth="yes"/>
      <point x="336" y="892"/>
      <point x="270" y="845"/>
    </contour>
  </outline>
</glyph>
<glyph name="cent" format="1">
  <advance width="1056"/>
  <unicode hex="00A2"/>
  <outline>
    <contour>
      <point x="403" y="-10" type="line"/>
      <point x="232" y="29"/>
      <point x="135" y="187"/>
      <point x="135" y="430" type="curve" smooth="yes"/>
      <point x="135" y="704"/>
      <point x="298" y="1073"/>
      <point x="607" y="1149" type="curve"/>
      <point x="659" y="1358" type="line"/>
      <point x="809" y="1358" type="line"/>
      <point x="759" y="1161" type="line"/>
      <point x="824" y="1156"/>
      <point x="896" y="1139"/>
      <point x="944" y="1115" type="curve"/>
      <point x="886" y="921" type="line"/>
      <point x="824" y="975"/>
      <point x="750" y="1016"/>
      <point x="678" y="1016" type="curve" smooth="yes"/>
      <point x="478" y="1016"/>
      <point x="344" y="820"/>
      <point x="344" y="460" type="curve" smooth="yes"/>
      <point x="344" y="222"/>
      <point x="425" y="119"/>
      <point x="549" y="119" type="curve" smooth="yes"/>
      <point x="646" y="119"/>
      <point x="707" y="153"/>
      <point x="817" y="232" type="curve"/>
      <point x="856" y="151" type="line"/>
      <point x="812" y="101"/>
      <point x="708" y="4"/>
      <point x="552" y="-16" type="curve"/>
      <point x="515" y="-215" type="line"/>
      <point x="365" y="-215" type="line"/>
    </contour>
  </outline>
</glyph>
<glyph name="sterling" format="1">
  <advance width="1368"/>
  <unicode hex="00A3"/>
  <outline>
    <contour>
      <point x="68" y="-20" type="curve" smooth="yes"/>
      <point x="28" y="-20"/>
      <point x="-20" y="-5"/>
      <point x="-8" y="74" type="curve" smooth="yes"/>
      <point x="3" y="144"/>
      <point x="121" y="234"/>
      <point x="257" y="233" type="curve"/>
      <point x="295" y="287"/>
      <point x="327" y="413"/>
      <point x="338" y="493" type="curve"/>
      <point x="378" y="744" type="line"/>
      <point x="203" y="744" type="line"/>
      <point x="221" y="875" type="line"/>
      <point x="399" y="875" type="line"/>
      <point x="417" y="986" type="line"/>
      <point x="457" y="1279"/>
      <point x="683" y="1566"/>
      <point x="971" y="1565" type="curve" smooth="yes"/>
      <point x="1082" y="1565"/>
      <point x="1164" y="1553"/>
      <point x="1230" y="1483" type="curve"/>
      <point x="1117" y="1313" type="line"/>
      <point x="1107" y="1336"/>
      <point x="1007" y="1424"/>
      <point x="870" y="1424" type="curve" smooth="yes"/>
      <point x="772" y="1424"/>
      <point x="655" y="1324"/>
      <point x="609" y="988" type="curve" smooth="yes"/>
      <point x="604" y="954"/>
      <point x="598" y="915"/>
      <point x="591" y="875" type="curve"/>
      <point x="914" y="875" type="line"/>
      <point x="897" y="744" type="line"/>
      <point x="568" y="744" type="line"/>
      <point x="565" y="727"/>
      <point x="563" y="711"/>
      <point x="561" y="696" type="curve" smooth="yes"/>
      <point x="521" y="424"/>
      <point x="478" y="337"/>
      <point x="386" y="197" type="curve"/>
      <point x="517" y="163"/>
      <point x="640" y="91"/>
      <point x="786" y="91" type="curve" smooth="yes"/>
      <point x="997" y="91"/>
      <point x="1074" y="168"/>
      <point x="1074" y="321" type="curve" smooth="yes"/>
      <point x="1074" y="374"/>
      <point x="1035" y="452"/>
      <point x="1003" y="481" type="curve"/>
      <point x="1140" y="610" type="line"/>
      <point x="1219" y="546"/>
      <point x="1275" y="442"/>
      <point x="1275" y="333" type="curve" smooth="yes"/>
      <point x="1274" y="198"/>
      <point x="1218" y="-20"/>
      <point x="802" y="-20" type="curve" smooth="yes"/>
      <point x="619" y="-20"/>
      <point x="449" y="49"/>
      <point x="297" y="102" type="curve"/>
      <point x="244" y="33"/>
      <point x="150" y="-20"/>
    </contour>
  </outline>
</glyph>
<glyph name="yen" format="1">
  <advance width="1483"/>
  <unicode hex="00A5"/>
  <outline>
    <contour>
      <point x="385" y="0" type="line"/>
      <point x="393" y="87" type="line"/>
      <point x="610" y="117" type="line"/>
      <point x="641" y="376" type="line"/>
      <point x="229" y="376" type="line"/>
      <point x="244" y="506" type="line"/>
      <point x="656" y="506" type="line"/>
      <point x="683" y="731" type="line"/>
      <point x="270" y="731" type="line"/>
      <point x="284" y="862" type="line"/>
      <point x="635" y="862" type="line"/>
      <point x="331" y="1434" type="line"/>
      <point x="212" y="1452" type="line"/>
      <point x="223" y="1552" type="line"/>
      <point x="721" y="1552" type="line"/>
      <point x="710" y="1452" type="line"/>
      <point x="535" y="1435" type="line"/>
      <point x="770" y="975" type="line"/>
      <point x="811" y="864" type="line"/>
      <point x="877" y="983" type="line"/>
      <point x="1180" y="1435" type="line"/>
      <point x="1041" y="1452" type="line"/>
      <point x="1052" y="1552" type="line"/>
      <point x="1515" y="1552" type="line"/>
      <point x="1504" y="1453" type="line"/>
      <point x="1368" y="1425" type="line"/>
      <point x="942" y="862" type="line"/>
      <point x="1290" y="862" type="line"/>
      <point x="1276" y="731" type="line"/>
      <point x="859" y="731" type="line"/>
      <point x="832" y="506" type="line"/>
      <point x="1249" y="506" type="line"/>
      <point x="1234" y="376" type="line"/>
      <point x="817" y="376" type="line"/>
      <point x="787" y="117" type="line"/>
      <point x="1007" y="87" type="line"/>
      <point x="998" y="0" type="line"/>
    </contour>
  </outline>
</glyph>
<glyph name="brokenbar" format="1">
  <advance width="854"/>
  <unicode hex="00A6"/>
  <outline>
    <contour>
      <point x="360" y="886" type="line"/>
      <point x="360" y="1780" type="line"/>
      <point x="533" y="1780" type="line"/>
      <point x="533" y="886" type="line"/>
    </contour>
    <contour>
      <point x="360" y="-186" type="line"/>
      <point x="360" y="708" type="line"/>
      <point x="533" y="708" type="line"/>
      <point x="533" y="-186" type="line"/>
    </contour>
  </outline>
</glyph>
<glyph name="section" format="1">
  <advance width="1194"/>
  <unicode hex="00A7"/>
  <outline>
    <contour>
      <point x="56" y="-100" type="curve"/>
      <point x="96" y="230" type="line"/>
      <point x="199" y="230" type="line"/>
      <point x="234" y="22" type="line"/>
      <point x="302" y="-61"/>
      <point x="422" y="-73"/>
      <point x="528" y="-73" type="curve" smooth="yes"/>
      <point x="650" y="-73"/>
      <point x="822" y="5"/>
      <point x="843" y="177" type="curve" smooth="yes"/>
      <point x="876" y="447"/>
      <point x="136" y="400"/>
      <point x="183" y="792" type="curve" smooth="yes"/>
      <point x="194" y="885"/>
      <point x="244" y="997"/>
      <point x="311" y="1078" type="curve"/>
      <point x="255" y="1133"/>
      <point x="223" y="1202"/>
      <point x="235" y="1297" type="curve" smooth="yes"/>
      <point x="269" y="1576"/>
      <point x="587" y="1673"/>
      <point x="751" y="1673" type="curve" smooth="yes"/>
      <point x="938" y="1673"/>
      <point x="1080" y="1631"/>
      <point x="1134" y="1597" type="curve"/>
      <point x="1097" y="1296" type="line"/>
      <point x="1003" y="1296" type="line"/>
      <point x="948" y="1504" type="line"/>
      <point x="908" y="1551"/>
      <point x="819" y="1568"/>
      <point x="723" y="1567" type="curve" smooth="yes"/>
      <point x="638" y="1566"/>
      <point x="445" y="1532"/>
      <point x="422" y="1348" type="curve" smooth="yes"/>
      <point x="387" y="1058"/>
      <point x="1134" y="1099"/>
      <point x="1083" y="679" type="curve" smooth="yes"/>
      <point x="1071" y="588"/>
      <point x="1026" y="485"/>
      <point x="963" y="405" type="curve"/>
      <point x="1009" y="354"/>
      <point x="1035" y="291"/>
      <point x="1025" y="207" type="curve" smooth="yes"/>
      <point x="993" y="-54"/>
      <point x="692" y="-186"/>
      <point x="497" y="-186" type="curve" smooth="yes"/>
      <point x="333" y="-186"/>
      <point x="107" y="-135"/>
    </contour>
    <contour>
      <point x="352" y="866" type="curve" smooth="yes"/>
      <point x="326" y="652"/>
      <point x="664" y="609"/>
      <point x="871" y="480" type="curve"/>
      <point x="892" y="520"/>
      <point x="908" y="563"/>
      <point x="912" y="598" type="curve" smooth="yes"/>
      <point x="940" y="828"/>
      <point x="614" y="881"/>
      <point x="404" y="1008" type="curve"/>
      <point x="379" y="965"/>
      <point x="358" y="914"/>
    </contour>
  </outline>
</glyph>
<glyph name="ordfeminine" format="1">
  <advance width="854"/>
  <unicode hex="00AA"/>
  <outline>
    <contour>
      <point x="333" y="743" type="curve" smooth="yes"/>
      <point x="175" y="743"/>
      <point x="84" y="857"/>
      <point x="84" y="1040" type="curve" smooth="yes"/>
      <point x="84" y="1294"/>
      <point x="307" y="1576"/>
      <point x="598" y="1577" type="curve" smooth="yes"/>
      <point x="658" y="1577"/>
      <point x="727" y="1563"/>
      <point x="772" y="1548" type="curve"/>
      <point x="875" y="1586" type="line"/>
      <point x="753" y="891" type="line"/>
      <point x="752" y="858"/>
      <point x="754" y="837"/>
      <point x="765" y="837" type="curve" smooth="yes"/>
      <point x="776" y="837"/>
      <point x="790" y="840"/>
      <point x="821" y="857" type="curve"/>
      <point x="844" y="818" type="line"/>
      <point x="835" y="803"/>
      <point x="747" y="743"/>
      <point x="668" y="743" type="curve" smooth="yes"/>
      <point x="609" y="743"/>
      <point x="568" y="796"/>
      <point x="583" y="869" type="curve"/>
      <point x="531" y="808"/>
      <point x="454" y="743"/>
    </contour>
    <contour>
      <point x="413" y="861" type="curve" smooth="yes"/>
      <point x="471" y="861"/>
      <point x="540" y="909"/>
      <point x="588" y="953" type="curve"/>
      <point x="669" y="1417" type="line"/>
      <point x="645" y="1453"/>
      <point x="606" y="1475"/>
      <point x="573" y="1475" type="curve" smooth="yes"/>
      <point x="360" y="1475"/>
      <point x="268" y="1249"/>
      <point x="268" y="1055" type="curve" smooth="yes"/>
      <point x="268" y="935"/>
      <point x="310" y="861"/>
    </contour>
  </outline>
</glyph>
<glyph name="registered" format="1">
  <advance width="1768"/>
  <unicode hex="00AE"/>
  <outline>
    <contour>
      <point x="178" y="806" type="curve" smooth="yes"/>
      <point x="178" y="1224"/>
      <point x="517" y="1559"/>
      <point x="933" y="1559" type="curve" smooth="yes"/>
      <point x="1349" y="1559"/>
      <point x="1689" y="1224"/>
      <point x="1689" y="806" type="curve" smooth="yes"/>
      <point x="1689" y="387"/>
      <point x="1349" y="52"/>
      <point x="933" y="52" type="curve" smooth="yes"/>
      <point x="517" y="52"/>
      <point x="178" y="387"/>
    </contour>
    <contour>
      <point x="297" y="806" type="curve" smooth="yes"/>
      <point x="297" y="449"/>
      <point x="577" y="158"/>
      <point x="933" y="158" type="curve" smooth="yes"/>
      <point x="1290" y="158"/>
      <point x="1570" y="449"/>
      <point x="1570" y="806" type="curve" smooth="yes"/>
      <point x="1570" y="1162"/>
      <point x="1290" y="1454"/>
      <point x="933" y="1454" type="curve" smooth="yes"/>
      <point x="577" y="1454"/>
      <point x="297" y="1162"/>
    </contour>
    <contour>
      <point x="572" y="375" type="line"/>
      <point x="572" y="449" type="line"/>
      <point x="655" y="469" type="line"/>
      <point x="655" y="1134" type="line"/>
      <point x="572" y="1156" type="line"/>
      <point x="572" y="1240" type="line"/>
      <point x="716" y="1240" type="line"/>
      <point x="788" y="1238"/>
      <point x="804" y="1242"/>
      <point x="954" y="1245" type="curve"/>
      <point x="1159" y="1245"/>
      <point x="1266" y="1152"/>
      <point x="1270" y="1014" type="curve"/>
      <point x="1270" y="907"/>
      <point x="1229" y="800"/>
      <point x="1035" y="766" type="curve"/>
      <point x="1167" y="692"/>
      <point x="1192" y="520"/>
      <point x="1271" y="465" type="curve"/>
      <point x="1289" y="456"/>
      <point x="1312" y="453"/>
      <point x="1338" y="453" type="curve"/>
      <point x="1338" y="375" type="line"/>
      <point x="1178" y="375" type="line" smooth="yes"/>
      <point x="1100" y="375"/>
      <point x="1062" y="673"/>
      <point x="883" y="749" type="curve"/>
      <point x="796" y="749" type="line"/>
      <point x="796" y="469" type="line"/>
      <point x="898" y="449" type="line"/>
      <point x="898" y="375" type="line"/>
    </contour>
    <contour>
      <point x="796" y="837" type="line"/>
      <point x="832" y="830"/>
      <point x="889" y="829"/>
      <point x="942" y="829" type="curve" smooth="yes"/>
      <point x="1043" y="829"/>
      <point x="1113" y="906"/>
      <point x="1113" y="993" type="curve" smooth="yes"/>
      <point x="1113" y="1108"/>
      <point x="1038" y="1155"/>
      <point x="927" y="1155" type="curve" smooth="yes"/>
      <point x="886" y="1155"/>
      <point x="846" y="1157"/>
      <point x="796" y="1145" type="curve"/>
    </contour>
  </outline>
</glyph>
<glyph name="macron" format="1">
  <advance width="614"/>
  <unicode hex="00AF"/>
  <outline>
    <contour>
      <point x="40" y="1425" type="line"/>
      <point x="44" y="1574" type="line"/>
      <point x="554" y="1574" type="line"/>
      <point x="549" y="1425" type="line"/>
    </contour>
  </outline>
</glyph>
<glyph name="degree" format="1">
  <advance width="899"/>
  <unicode hex="00B0"/>
  <outline>
    <contour>
      <point x="523" y="955" type="curve" smooth="yes"/>
      <point x="338" y="955"/>
      <point x="201" y="1101"/>
      <point x="204" y="1278" type="curve" smooth="yes"/>
      <point x="207" y="1461"/>
      <point x="349" y="1600"/>
      <point x="542" y="1600" type="curve" smooth="yes"/>
      <point x="727" y="1600"/>
      <point x="867" y="1455"/>
      <point x="864" y="1278" type="curve" smooth="yes"/>
      <point x="861" y="1093"/>
      <point x="716" y="955"/>
    </contour>
    <contour>
      <point x="530" y="1076" type="curve" smooth="yes"/>
      <point x="641" y="1076"/>
      <point x="722" y="1162"/>
      <point x="724" y="1278" type="curve" smooth="yes"/>
      <point x="726" y="1389"/>
      <point x="643" y="1479"/>
      <point x="537" y="1479" type="curve" smooth="yes"/>
      <point x="426" y="1479"/>
      <point x="346" y="1393"/>
      <point x="344" y="1278" type="curve" smooth="yes"/>
      <point x="342" y="1167"/>
      <point x="424" y="1076"/>
    </contour>
  </outline>
</glyph>
<glyph name="threesuperior" format="1">
  <advance width="1071"/>
  <unicode hex="00B3"/>
  <outline>
    <contour>
      <point x="185" y="606" type="curve"/>
      <point x="202" y="714" type="line"/>
      <point x="273" y="679"/>
      <point x="378" y="662"/>
      <point x="443" y="663" type="curve" smooth="yes"/>
      <point x="576" y="664"/>
      <point x="759" y="734"/>
      <point x="764" y="896" type="curve"/>
      <point x="770" y="992"/>
      <point x="696" y="1043"/>
      <point x="589" y="1046" type="curve"/>
      <point x="385" y="1001" type="line"/>
      <point x="406" y="1126" type="line"/>
      <point x="547" y="1154"/>
      <point x="751" y="1223"/>
      <point x="772" y="1400" type="curve" smooth="yes"/>
      <point x="781" y="1478"/>
      <point x="723" y="1515"/>
      <point x="615" y="1512" type="curve" smooth="yes"/>
      <point x="523" y="1510"/>
      <point x="410" y="1474"/>
      <point x="326" y="1418" type="curve"/>
      <point x="290" y="1520" type="line"/>
      <point x="404" y="1599"/>
      <point x="555" y="1644"/>
      <point x="699" y="1644" type="curve" smooth="yes"/>
      <point x="893" y="1644"/>
      <point x="988" y="1546"/>
      <point x="984" y="1428" type="curve" smooth="yes"/>
      <point x="980" y="1281"/>
      <point x="862" y="1187"/>
      <point x="721" y="1134" type="curve"/>
      <point x="928" y="1135"/>
      <point x="974" y="997"/>
      <point x="971" y="904" type="curve" smooth="yes"/>
      <point x="963" y="662"/>
      <point x="699" y="534"/>
      <point x="465" y="534" type="curve" smooth="yes"/>
      <point x="394" y="534"/>
      <point x="262" y="557"/>
    </contour>
  </outline>
</glyph>
<glyph name="paragraph" format="1">
  <advance width="1364"/>
  <unicode hex="00B6"/>
  <outline>
    <contour>
      <point x="256" y="0" type="line"/>
      <point x="264" y="87" type="line"/>
      <point x="429" y="117" type="line"/>
      <point x="512" y="774" type="line"/>
      <point x="298" y="779"/>
      <point x="164" y="899"/>
      <point x="160" y="1117" type="curve" smooth="yes"/>
      <point x="155" y="1387"/>
      <point x="313" y="1571"/>
      <point x="715" y="1571" type="curve" smooth="yes"/>
      <point x="859" y="1571"/>
      <point x="969" y="1552"/>
      <point x="1109" y="1552" type="curve" smooth="yes"/>
      <point x="1348" y="1552" type="line"/>
      <point x="1337" y="1449" type="line"/>
      <point x="1196" y="1416" type="line"/>
      <point x="1033" y="116" type="line"/>
      <point x="1168" y="86" type="line"/>
      <point x="1159" y="0" type="line"/>
      <point x="822" y="0" type="line"/>
      <point x="997" y="1414" type="line"/>
      <point x="789" y="1414" type="line"/>
      <point x="605" y="0" type="line"/>
    </contour>
  </outline>
</glyph>
<glyph name="periodcentered" format="1">
  <advance width="686"/>
  <unicode hex="00B7"/>
  <outline>
    <contour>
      <point x="207" y="749" type="curve" smooth="yes"/>
      <point x="218" y="832"/>
      <point x="290" y="896"/>
      <point x="365" y="896" type="curve" smooth="yes"/>
      <point x="460" y="896"/>
      <point x="494" y="839"/>
      <point x="485" y="771" type="curve" smooth="yes"/>
      <point x="473" y="682"/>
      <point x="396" y="624"/>
      <point x="317" y="624" type="curve" smooth="yes"/>
      <point x="246" y="624"/>
      <point x="197" y="671"/>
    </contour>
  </outline>
</glyph>
<glyph name="cedilla" format="1">
  <advance width="479"/>
  <unicode hex="00B8"/>
  <outline>
    <contour>
      <point x="275" y="30" type="curve"/>
      <point x="332" y="34" type="line"/>
      <point x="385" y="30" type="line"/>
      <point x="413" y="-9"/>
      <point x="420" y="-95"/>
      <point x="410" y="-185" type="curve" smooth="yes"/>
      <point x="386" y="-410"/>
      <point x="290" y="-464"/>
      <point x="142" y="-464" type="curve" smooth="yes"/>
      <point x="89" y="-464"/>
      <point x="26" y="-452"/>
      <point x="4" y="-436" type="curve"/>
      <point x="39" y="-305" type="line"/>
      <point x="56" y="-314"/>
      <point x="79" y="-319"/>
      <point x="110" y="-319" type="curve" smooth="yes"/>
      <point x="192" y="-319"/>
      <point x="263" y="-267"/>
      <point x="279" y="-119" type="curve" smooth="yes"/>
      <point x="287" y="-39"/>
      <point x="282" y="-2"/>
    </contour>
  </outline>
</glyph>
<glyph name="onesuperior" format="1">
  <advance width="1020"/>
  <unicode hex="00B9"/>
  <outline>
    <contour>
      <point x="242" y="636" type="line"/>
      <point x="253" y="724" type="line"/>
      <point x="489" y="750" type="line"/>
      <point x="575" y="1395" type="line"/>
      <point x="314" y="1343" type="line"/>
      <point x="308" y="1446" type="line"/>
      <point x="428" y="1481"/>
      <point x="673" y="1604"/>
      <point x="724" y="1645" type="curve"/>
      <point x="793" y="1624" type="line"/>
      <point x="674" y="750" type="line"/>
      <point x="909" y="723" type="line"/>
      <point x="898" y="636" type="line"/>
    </contour>
  </outline>
</glyph>
<glyph name="ordmasculine" format="1">
  <advance width="854"/>
  <unicode hex="00BA"/>
  <outline>
    <contour>
      <point x="417" y="733" type="curve" smooth="yes"/>
      <point x="223" y="736"/>
      <point x="92" y="872"/>
      <point x="92" y="1085" type="curve" smooth="yes"/>
      <point x="92" y="1409"/>
      <point x="348" y="1591"/>
      <point x="551" y="1589" type="curve" smooth="yes"/>
      <point x="764" y="1586"/>
      <point x="877" y="1440"/>
      <point x="877" y="1234" type="curve" smooth="yes"/>
      <point x="877" y="909"/>
      <point x="635" y="729"/>
    </contour>
    <contour>
      <point x="428" y="838" type="curve" smooth="yes"/>
      <point x="631" y="836"/>
      <point x="681" y="1041"/>
      <point x="681" y="1216" type="curve" smooth="yes"/>
      <point x="681" y="1375"/>
      <point x="624" y="1492"/>
      <point x="528" y="1491" type="curve" smooth="yes"/>
      <point x="341" y="1490"/>
      <point x="286" y="1263"/>
      <point x="286" y="1103" type="curve" smooth="yes"/>
      <point x="286" y="944"/>
      <point x="349" y="839"/>
    </contour>
  </outline>
</glyph>
<glyph name="guillemotright" format="1">
  <advance width="1878"/>
  <unicode hex="00BB"/>
  <outline>
    <contour>
      <point x="883" y="708" type="line"/>
      <point x="861" y="548" type="line"/>
      <point x="169" y="152" type="line"/>
      <point x="131" y="267" type="line"/>
      <point x="641" y="623" type="line"/>
      <point x="227" y="974" type="line"/>
      <point x="297" y="1086" type="line"/>
    </contour>
    <contour>
      <point x="1559" y="708" type="line"/>
      <point x="1537" y="548" type="line"/>
      <point x="845" y="152" type="line"/>
      <point x="807" y="267" type="line"/>
      <point x="1317" y="623" type="line"/>
      <point x="903" y="974" type="line"/>
      <point x="973" y="1086" type="line"/>
    </contour>
  </outline>
</glyph>
<glyph name="onequarter" format="1">
  <advance width="2560"/>
  <unicode hex="00BC"/>
  <outline>
    <contour>
      <point x="807" y="0" type="line"/>
      <point x="1488" y="1530" type="line"/>
      <point x="1647" y="1530" type="line"/>
      <point x="966" y="0" type="line"/>
    </contour>
    <contour>
      <point x="273" y="636" type="line"/>
      <point x="284" y="724" type="line"/>
      <point x="520" y="750" type="line"/>
      <point x="606" y="1395" type="line"/>
      <point x="345" y="1343" type="line"/>
      <point x="339" y="1446" type="line"/>
      <point x="459" y="1481"/>
      <point x="704" y="1604"/>
      <point x="755" y="1645" type="curve"/>
      <point x="824" y="1624" type="line"/>
      <point x="705" y="750" type="line"/>
      <point x="940" y="723" type="line"/>
      <point x="929" y="636" type="line"/>
    </contour>
    <contour>
      <point x="1828" y="-177" type="line"/>
      <point x="1876" y="166" type="line"/>
      <point x="1384" y="166" type="line"/>
      <point x="1347" y="261" type="line"/>
      <point x="1953" y="1112" type="line"/>
      <point x="2041" y="1113" type="line"/>
      <point x="2134" y="1009" type="line"/>
      <point x="1616" y="366" type="line"/>
      <point x="1537" y="274" type="line"/>
      <point x="1895" y="303" type="line"/>
      <point x="1933" y="575" type="line"/>
      <point x="2135" y="598" type="line"/>
      <point x="2097" y="319" type="line"/>
      <point x="2361" y="341" type="line"/>
      <point x="2341" y="166" type="line"/>
      <point x="2077" y="166" type="line"/>
      <point x="2031" y="-177" type="line"/>
    </contour>
  </outline>
</glyph>
<glyph name="onehalf" format="1">
  <advance width="2560"/>
  <unicode hex="00BD"/>
  <outline>
    <contour>
      <point x="807" y="0" type="line"/>
      <point x="1488" y="1530" type="line"/>
      <point x="1647" y="1530" type="line"/>
      <point x="966" y="0" type="line"/>
    </contour>
    <contour>
      <point x="273" y="636" type="line"/>
      <point x="284" y="724" type="line"/>
      <point x="520" y="750" type="line"/>
      <point x="606" y="1395" type="line"/>
      <point x="345" y="1343" type="line"/>
      <point x="339" y="1446" type="line"/>
      <point x="459" y="1481"/>
      <point x="704" y="1604"/>
      <point x="755" y="1645" type="curve"/>
      <point x="824" y="1624" type="line"/>
      <point x="705" y="750" type="line"/>
      <point x="940" y="723" type="line"/>
      <point x="929" y="636" type="line"/>
    </contour>
    <contour>
      <point x="1470" y="-78" type="line"/>
      <point x="1425" y="18" type="line"/>
      <point x="1591" y="108"/>
      <point x="2069" y="402"/>
      <point x="2069" y="638" type="curve" smooth="yes"/>
      <point x="2069" y="741"/>
      <point x="1989" y="779"/>
      <point x="1885" y="779" type="curve" smooth="yes"/>
      <point x="1772" y="779"/>
      <point x="1663" y="732"/>
      <point x="1574" y="641" type="curve"/>
      <point x="1504" y="735" type="line"/>
      <point x="1565" y="815"/>
      <point x="1750" y="929"/>
      <point x="1955" y="932" type="curve" smooth="yes"/>
      <point x="2175" y="935"/>
      <point x="2271" y="807"/>
      <point x="2271" y="703" type="curve" smooth="yes"/>
      <point x="2271" y="447"/>
      <point x="2002" y="248"/>
      <point x="1693" y="48" type="curve"/>
      <point x="2145" y="73" type="line"/>
      <point x="2230" y="208" type="line"/>
      <point x="2333" y="179" type="line"/>
      <point x="2248" y="-78" type="line"/>
    </contour>
  </outline>
</glyph>
<glyph name="questiondown" format="1">
  <advance width="1028"/>
  <unicode hex="00BF"/>
  <outline>
    <contour>
      <point x="588" y="1164" type="curve" smooth="yes"/>
      <point x="517" y="1164"/>
      <point x="468" y="1211"/>
      <point x="478" y="1289" type="curve" smooth="yes"/>
      <point x="489" y="1372"/>
      <point x="561" y="1436"/>
      <point x="636" y="1436" type="curve" smooth="yes"/>
      <point x="731" y="1436"/>
      <point x="765" y="1379"/>
      <point x="756" y="1311" type="curve" smooth="yes"/>
      <point x="744" y="1222"/>
      <point x="667" y="1164"/>
    </contour>
    <contour>
      <point x="66" y="22" type="curve" smooth="yes"/>
      <point x="66" y="522"/>
      <point x="657" y="456"/>
      <point x="657" y="727" type="curve" smooth="yes"/>
      <point x="657" y="795"/>
      <point x="622" y="866"/>
      <point x="615" y="901" type="curve"/>
      <point x="742" y="951" type="line"/>
      <point x="759" y="950" type="line"/>
      <point x="807" y="905"/>
      <point x="839" y="792"/>
      <point x="839" y="692" type="curve" smooth="yes"/>
      <point x="839" y="573"/>
      <point x="686" y="487"/>
      <point x="522" y="394" type="curve" smooth="yes"/>
      <point x="412" y="332"/>
      <point x="277" y="270"/>
      <point x="246" y="197" type="curve"/>
      <point x="239" y="168"/>
      <point x="237" y="141"/>
      <point x="237" y="113" type="curve" smooth="yes"/>
      <point x="237" y="-88"/>
      <point x="385" y="-239"/>
      <point x="590" y="-239" type="curve" smooth="yes"/>
      <point x="634" y="-239"/>
      <point x="708" y="-232"/>
      <point x="764" y="-206" type="curve"/>
      <point x="740" y="-346" type="line"/>
      <point x="711" y="-376"/>
      <point x="614" y="-399"/>
      <point x="535" y="-399" type="curve" smooth="yes"/>
      <point x="167" y="-399"/>
      <point x="66" y="-191"/>
    </contour>
  </outline>
</glyph>
<glyph name="Aring" format="1">
  <advance width="1342"/>
  <unicode hex="00C5"/>
  <outline>
    <contour>
      <point x="-3" y="115" type="line"/>
      <point x="683" y="1484" type="line"/>
      <point x="567" y="1521"/>
      <point x="514" y="1614"/>
      <point x="530" y="1740" type="curve" smooth="yes"/>
      <point x="553" y="1924"/>
      <point x="726" y="2000"/>
      <point x="877" y="2000" type="curve" smooth="yes"/>
      <point x="1065" y="2000"/>
      <point x="1168" y="1900"/>
      <point x="1150" y="1735" type="curve"/>
      <point x="1133" y="1592"/>
      <point x="1032" y="1510"/>
      <point x="914" y="1480" type="curve"/>
      <point x="1158" y="118" type="line"/>
      <point x="1314" y="86" type="line"/>
      <point x="1307" y="0" type="line"/>
      <point x="799" y="0" type="line"/>
      <point x="804" y="86" type="line"/>
      <point x="960" y="115" type="line"/>
      <point x="910" y="436" type="line"/>
      <point x="338" y="436" type="line"/>
      <point x="188" y="116" type="line"/>
      <point x="347" y="86" type="line"/>
      <point x="341" y="0" type="line"/>
      <point x="-130" y="0" type="line"/>
      <point x="-121" y="86" type="line"/>
    </contour>
    <contour>
      <point x="823" y="1553" type="curve" smooth="yes"/>
      <point x="924" y="1551"/>
      <point x="996" y="1593"/>
      <point x="1010" y="1728" type="curve" smooth="yes"/>
      <point x="1021" y="1836"/>
      <point x="958" y="1911"/>
      <point x="861" y="1912" type="curve" smooth="yes"/>
      <point x="761" y="1913"/>
      <point x="684" y="1866"/>
      <point x="670" y="1740" type="curve"/>
      <point x="660" y="1639"/>
      <point x="728" y="1555"/>
    </contour>
    <contour>
      <point x="395" y="557" type="line"/>
      <point x="892" y="557" type="line"/>
      <point x="786" y="1246" type="line"/>
      <point x="775" y="1364" type="line"/>
    </contour>
  </outline>
</glyph>
<glyph name="AE" format="1">
  <advance width="1810"/>
  <unicode hex="00C6"/>
  <outline>
    <contour>
      <point x="6" y="115" type="line"/>
      <point x="706" y="1408" type="line"/>
      <point x="415" y="1430" type="line"/>
      <point x="429" y="1530" type="line"/>
      <point x="1745" y="1530" type="line"/>
      <point x="1738" y="1241" type="line"/>
      <point x="1632" y="1241" type="line"/>
      <point x="1584" y="1408" type="line"/>
      <point x="1185" y="1422" type="line"/>
      <point x="1113" y="854" type="line"/>
      <point x="1508" y="861" type="line"/>
      <point x="1496" y="705" type="line"/>
      <point x="1101" y="721" type="line"/>
      <point x="1028" y="116" type="line"/>
      <point x="1541" y="140" type="line"/>
      <point x="1637" y="325" type="line"/>
      <point x="1740" y="294" type="line"/>
      <point x="1675" y="0" type="line"/>
      <point x="697" y="0" type="line"/>
      <point x="707" y="86" type="line"/>
      <point x="826" y="115" type="line"/>
      <point x="868" y="476" type="line"/>
      <point x="395" y="476" type="line"/>
      <point x="211" y="116" type="line"/>
      <point x="400" y="86" type="line"/>
      <point x="394" y="0" type="line"/>
      <point x="-162" y="0" type="line"/>
      <point x="-148" y="86" type="line"/>
    </contour>
    <contour>
      <point x="457" y="597" type="line"/>
      <point x="882" y="597" type="line"/>
      <point x="976" y="1399" type="line"/>
      <point x="870" y="1404" type="line"/>
    </contour>
  </outline>
</glyph>
<glyph name="Egrave" format="1">
  <advance width="1219"/>
  <unicode hex="00C8"/>
  <outline>
    <contour>
      <point x="18" y="0" type="line"/>
      <point x="28" y="86" type="line"/>
      <point x="177" y="115" type="line"/>
      <point x="337" y="1406" type="line"/>
      <point x="204" y="1429" type="line"/>
      <point x="216" y="1530" type="line"/>
      <point x="1143" y="1530" type="line"/>
      <point x="1136" y="1220" type="line"/>
      <point x="1030" y="1220" type="line"/>
      <point x="982" y="1408" type="line"/>
      <point x="541" y="1422" type="line"/>
      <point x="469" y="854" type="line"/>
      <point x="916" y="861" type="line"/>
      <point x="904" y="705" type="line"/>
      <point x="457" y="721" type="line"/>
      <point x="374" y="116" type="line"/>
      <point x="925" y="140" type="line"/>
      <point x="1044" y="347" type="line"/>
      <point x="1148" y="316" type="line"/>
      <point x="1059" y="0" type="line"/>
    </contour>
    <contour>
      <point x="783" y="1613" type="line"/>
      <point x="687" y="1649"/>
      <point x="488" y="1755"/>
      <point x="443" y="1862" type="curve"/>
      <point x="576" y="2000" type="line"/>
      <point x="839" y="1658" type="line"/>
    </contour>
  </outline>
</glyph>
<glyph name="Edieresis" format="1">
  <advance width="1219"/>
  <unicode hex="00CB"/>
  <outline>
    <contour>
      <point x="18" y="0" type="line"/>
      <point x="28" y="86" type="line"/>
      <point x="177" y="115" type="line"/>
      <point x="337" y="1406" type="line"/>
      <point x="204" y="1429" type="line"/>
      <point x="216" y="1530" type="line"/>
      <point x="1143" y="1530" type="line"/>
      <point x="1136" y="1220" type="line"/>
      <point x="1030" y="1220" type="line"/>
      <point x="982" y="1408" type="line"/>
      <point x="541" y="1422" type="line"/>
      <point x="469" y="854" type="line"/>
      <point x="916" y="861" type="line"/>
      <point x="904" y="705" type="line"/>
      <point x="457" y="721" type="line"/>
      <point x="374" y="116" type="line"/>
      <point x="925" y="140" type="line"/>
      <point x="1044" y="347" type="line"/>
      <point x="1148" y="316" type="line"/>
      <point x="1059" y="0" type="line"/>
    </contour>
    <contour>
      <point x="971" y="1696" type="curve" smooth="yes"/>
      <point x="908" y="1696"/>
      <point x="856" y="1749"/>
      <point x="856" y="1815" type="curve" smooth="yes"/>
      <point x="856" y="1892"/>
      <point x="938" y="1959"/>
      <point x="1002" y="1959" type="curve" smooth="yes"/>
      <point x="1078" y="1959"/>
      <point x="1126" y="1906"/>
      <point x="1123" y="1843" type="curve" smooth="yes"/>
      <point x="1120" y="1766"/>
      <point x="1051" y="1696"/>
    </contour>
    <contour>
      <point x="552" y="1696" type="curve" smooth="yes"/>
      <point x="489" y="1696"/>
      <point x="436" y="1751"/>
      <point x="439" y="1815" type="curve" smooth="yes"/>
      <point x="442" y="1892"/>
      <point x="517" y="1959"/>
      <point x="582" y="1959" type="curve" smooth="yes"/>
      <point x="659" y="1959"/>
      <point x="706" y="1906"/>
      <point x="704" y="1843" type="curve" smooth="yes"/>
      <point x="701" y="1766"/>
      <point x="630" y="1696"/>
    </contour>
  </outline>
</glyph>
<glyph name="Iacute" format="1">
  <advance width="706"/>
  <unicode hex="00CD"/>
  <outline>
    <contour>
      <point x="30" y="0" type="line"/>
      <point x="39" y="86" type="line"/>
      <point x="187" y="116" type="line"/>
      <point x="348" y="1406" type="line"/>
      <point x="215" y="1429" type="line"/>
      <point x="227" y="1530" type="line"/>
      <point x="710" y="1530" type="line"/>
      <point x="699" y="1429" type="line"/>
      <point x="546" y="1406" type="line"/>
      <point x="385" y="116" type="line"/>
      <point x="542" y="87" type="line"/>
      <point x="534" y="0" type="line"/>
    </contour>
    <contour>
      <point x="509" y="1613" type="curve"/>
      <point x="456" y="1658" type="line"/>
      <point x="732" y="2000" type="line"/>
      <point x="856" y="1862" type="line"/>
      <point x="804" y="1751"/>
      <point x="605" y="1649"/>
    </contour>
  </outline>
</glyph>
<glyph name="Icircumflex" format="1">
  <advance width="706"/>
  <unicode hex="00CE"/>
  <outline>
    <contour>
      <point x="30" y="0" type="line"/>
      <point x="39" y="86" type="line"/>
      <point x="187" y="116" type="line"/>
      <point x="348" y="1406" type="line"/>
      <point x="215" y="1429" type="line"/>
      <point x="227" y="1530" type="line"/>
      <point x="710" y="1530" type="line"/>
      <point x="699" y="1429" type="line"/>
      <point x="546" y="1406" type="line"/>
      <point x="385" y="116" type="line"/>
      <point x="542" y="87" type="line"/>
      <point x="534" y="0" type="line"/>
    </contour>
    <contour>
      <point x="229" y="1614" type="line"/>
      <point x="168" y="1672" type="line"/>
      <point x="473" y="2000" type="line"/>
      <point x="650" y="2000" type="line"/>
      <point x="862" y="1672" type="line"/>
      <point x="794" y="1613" type="line"/>
      <point x="553" y="1842" type="line"/>
    </contour>
  </outline>
</glyph>
<glyph name="Ocircumflex" format="1">
  <advance width="1386"/>
  <unicode hex="00D4"/>
  <outline>
    <contour>
      <point x="619" y="-20" type="curve" smooth="yes"/>
      <point x="314" y="-20"/>
      <point x="114" y="240"/>
      <point x="107" y="641" type="curve" smooth="yes"/>
      <point x="97" y="1175"/>
      <point x="418" y="1550"/>
      <point x="810" y="1550" type="curve" smooth="yes"/>
      <point x="1135" y="1550"/>
      <point x="1300" y="1245"/>
      <point x="1306" y="892" type="curve" smooth="yes"/>
      <point x="1315" y="371"/>
      <point x="1017" y="-20"/>
    </contour>
    <contour>
      <point x="647" y="100" type="curve" smooth="yes"/>
      <point x="909" y="98"/>
      <point x="1113" y="414"/>
      <point x="1105" y="854" type="curve" smooth="yes"/>
      <point x="1099" y="1220"/>
      <point x="987" y="1425"/>
      <point x="776" y="1425" type="curve" smooth="yes"/>
      <point x="515" y="1425"/>
      <point x="304" y="1128"/>
      <point x="311" y="730" type="curve" smooth="yes"/>
      <point x="318" y="353"/>
      <point x="400" y="102"/>
    </contour>
    <contour>
      <point x="560" y="1614" type="line"/>
      <point x="499" y="1672" type="line"/>
      <point x="804" y="2000" type="line"/>
      <point x="981" y="2000" type="line"/>
      <point x="1193" y="1672" type="line"/>
      <point x="1125" y="1613" type="line"/>
      <point x="884" y="1842" type="line"/>
    </contour>
  </outline>
</glyph>
<glyph name="Odieresis" format="1">
  <advance width="1386"/>
  <unicode hex="00D6"/>
  <outline>
    <contour>
      <point x="619" y="-20" type="curve" smooth="yes"/>
      <point x="314" y="-20"/>
      <point x="114" y="240"/>
      <point x="107" y="641" type="curve" smooth="yes"/>
      <point x="97" y="1175"/>
      <point x="418" y="1550"/>
      <point x="810" y="1550" type="curve" smooth="yes"/>
      <point x="1135" y="1550"/>
      <point x="1300" y="1245"/>
      <point x="1306" y="892" type="curve" smooth="yes"/>
      <point x="1315" y="371"/>
      <point x="1017" y="-20"/>
    </contour>
    <contour>
      <point x="647" y="100" type="curve" smooth="yes"/>
      <point x="909" y="98"/>
      <point x="1113" y="414"/>
      <point x="1105" y="854" type="curve" smooth="yes"/>
      <point x="1099" y="1220"/>
      <point x="987" y="1425"/>
      <point x="776" y="1425" type="curve" smooth="yes"/>
      <point x="515" y="1425"/>
      <point x="304" y="1128"/>
      <point x="311" y="730" type="curve" smooth="yes"/>
      <point x="318" y="353"/>
      <point x="400" y="102"/>
    </contour>
    <contour>
      <point x="1048" y="1696" type="curve" smooth="yes"/>
      <point x="985" y="1696"/>
      <point x="933" y="1749"/>
      <point x="933" y="1815" type="curve" smooth="yes"/>
      <point x="933" y="1892"/>
      <point x="1015" y="1959"/>
      <point x="1079" y="1959" type="curve" smooth="yes"/>
      <point x="1155" y="1959"/>
      <point x="1203" y="1906"/>
      <point x="1200" y="1843" type="curve" smooth="yes"/>
      <point x="1197" y="1766"/>
      <point x="1128" y="1696"/>
    </contour>
    <contour>
      <point x="629" y="1696" type="curve" smooth="yes"/>
      <point x="566" y="1696"/>
      <point x="513" y="1751"/>
      <point x="516" y="1815" type="curve" smooth="yes"/>
      <point x="519" y="1892"/>
      <point x="594" y="1959"/>
      <point x="659" y="1959" type="curve" smooth="yes"/>
      <point x="736" y="1959"/>
      <point x="783" y="1906"/>
      <point x="781" y="1843" type="curve" smooth="yes"/>
      <point x="778" y="1766"/>
      <point x="707" y="1696"/>
    </contour>
  </outline>
</glyph>
<glyph name="Oslash" format="1">
  <advance width="1386"/>
  <unicode hex="00D8"/>
  <outline>
    <contour>
      <point x="57" y="-83" type="line"/>
      <point x="235" y="184" type="line"/>
      <point x="156" y="298"/>
      <point x="110" y="455"/>
      <point x="107" y="643" type="curve" smooth="yes"/>
      <point x="97" y="1177"/>
      <point x="418" y="1552"/>
      <point x="810" y="1552" type="curve" smooth="yes"/>
      <point x="919" y="1552"/>
      <point x="1010" y="1517"/>
      <point x="1083" y="1458" type="curve"/>
      <point x="1224" y="1670" type="line"/>
      <point x="1313" y="1621" type="line"/>
      <point x="1156" y="1384" type="line"/>
      <point x="1253" y="1262"/>
      <point x="1302" y="1085"/>
      <point x="1306" y="894" type="curve" smooth="yes"/>
      <point x="1315" y="373"/>
      <point x="1017" y="-18"/>
      <point x="619" y="-18" type="curve" smooth="yes"/>
      <point x="494" y="-18"/>
      <point x="386" y="26"/>
      <point x="303" y="105" type="curve"/>
      <point x="146" y="-132" type="line"/>
    </contour>
    <contour>
      <point x="360" y="351" type="curve"/>
      <point x="985" y="1327" type="line"/>
      <point x="932" y="1393"/>
      <point x="862" y="1427"/>
      <point x="776" y="1427" type="curve" smooth="yes"/>
      <point x="515" y="1427"/>
      <point x="304" y="1130"/>
      <point x="311" y="732" type="curve" smooth="yes"/>
      <point x="314" y="583"/>
      <point x="328" y="453"/>
    </contour>
    <contour>
      <point x="408" y="240" type="line"/>
      <point x="461" y="152"/>
      <point x="538" y="103"/>
      <point x="647" y="102" type="curve" smooth="yes"/>
      <point x="909" y="100"/>
      <point x="1113" y="416"/>
      <point x="1105" y="856" type="curve" smooth="yes"/>
      <point x="1102" y="1009"/>
      <point x="1081" y="1134"/>
      <point x="1042" y="1228" type="curve"/>
    </contour>
  </outline>
</glyph>
<glyph name="Uacute" format="1">
  <advance width="1379"/>
  <unicode hex="00DA"/>
  <outline>
    <contour>
      <point x="145" y="428" type="curve" smooth="yes"/>
      <point x="144" y="480"/>
      <point x="147" y="534"/>
      <point x="153" y="593" type="curve"/>
      <point x="260" y="1407" type="line"/>
      <point x="127" y="1430" type="line"/>
      <point x="139" y="1530" type="line"/>
      <point x="622" y="1530" type="line"/>
      <point x="611" y="1430" type="line"/>
      <point x="460" y="1405" type="line"/>
      <point x="356" y="610" type="line"/>
      <point x="348" y="537"/>
      <point x="344" y="475"/>
      <point x="345" y="418" type="curve" smooth="yes"/>
      <point x="349" y="202"/>
      <point x="452" y="90"/>
      <point x="627" y="90" type="curve" smooth="yes"/>
      <point x="853" y="90"/>
      <point x="987" y="276"/>
      <point x="1027" y="626" type="curve"/>
      <point x="1130" y="1405" type="line"/>
      <point x="997" y="1429" type="line"/>
      <point x="1008" y="1530" type="line"/>
      <point x="1440" y="1530" type="line"/>
      <point x="1429" y="1429" type="line"/>
      <point x="1305" y="1407" type="line"/>
      <point x="1201" y="627" type="line"/>
      <point x="1140" y="155"/>
      <point x="938" y="-20"/>
      <point x="597" y="-20" type="curve" smooth="yes"/>
      <point x="309" y="-20"/>
      <point x="150" y="152"/>
    </contour>
    <contour>
      <point x="821" y="1613" type="curve"/>
      <point x="768" y="1658" type="line"/>
      <point x="1044" y="2000" type="line"/>
      <point x="1168" y="1862" type="line"/>
      <point x="1116" y="1751"/>
      <point x="917" y="1649"/>
    </contour>
  </outline>
</glyph>
<glyph name="Thorn" format="1">
  <advance width="1233"/>
  <unicode hex="00DE"/>
  <outline>
    <contour>
      <point x="30" y="0" type="line"/>
      <point x="39" y="86" type="line"/>
      <point x="187" y="116" type="line"/>
      <point x="348" y="1406" type="line"/>
      <point x="215" y="1429" type="line"/>
      <point x="227" y="1530" type="line"/>
      <point x="710" y="1530" type="line"/>
      <point x="699" y="1429" type="line"/>
      <point x="546" y="1406" type="line"/>
      <point x="519" y="1195" type="line"/>
      <point x="589" y="1208"/>
      <point x="668" y="1213"/>
      <point x="737" y="1213" type="curve" smooth="yes"/>
      <point x="1037" y="1213"/>
      <point x="1192" y="1074"/>
      <point x="1192" y="829" type="curve" smooth="yes"/>
      <point x="1192" y="510"/>
      <point x="919" y="310"/>
      <point x="586" y="310" type="curve" smooth="yes"/>
      <point x="498" y="310"/>
      <point x="445" y="311"/>
      <point x="409" y="314" type="curve"/>
      <point x="385" y="116" type="line"/>
      <point x="559" y="87" type="line"/>
      <point x="551" y="0" type="line"/>
    </contour>
    <contour>
      <point x="424" y="433" type="line"/>
      <point x="482" y="424"/>
      <point x="536" y="422"/>
      <point x="583" y="422" type="curve" smooth="yes"/>
      <point x="866" y="422"/>
      <point x="998" y="580"/>
      <point x="995" y="785" type="curve" smooth="yes"/>
      <point x="991" y="995"/>
      <point x="932" y="1094"/>
      <point x="684" y="1094" type="curve" smooth="yes"/>
      <point x="615" y="1094"/>
      <point x="555" y="1086"/>
      <point x="504" y="1075" type="curve"/>
    </contour>
  </outline>
</glyph>
<glyph name="ccedilla" format="1">
  <advance width="903"/>
  <unicode hex="00E7"/>
  <outline>
    <contour>
      <point x="168" y="-305" type="line"/>
      <point x="185" y="-314"/>
      <point x="208" y="-319"/>
      <point x="239" y="-319" type="curve" smooth="yes"/>
      <point x="321" y="-319"/>
      <point x="392" y="-267"/>
      <point x="408" y="-119" type="curve" smooth="yes"/>
      <point x="412" y="-74"/>
      <point x="412" y="-43"/>
      <point x="411" y="-19" type="curve"/>
      <point x="204" y="-4"/>
      <point x="84" y="160"/>
      <point x="84" y="430" type="curve" smooth="yes"/>
      <point x="84" y="737"/>
      <point x="288" y="1163"/>
      <point x="673" y="1163" type="curve" smooth="yes"/>
      <point x="745" y="1163"/>
      <point x="836" y="1144"/>
      <point x="893" y="1115" type="curve"/>
      <point x="835" y="921" type="line"/>
      <point x="773" y="975"/>
      <point x="699" y="1016"/>
      <point x="627" y="1016" type="curve" smooth="yes"/>
      <point x="427" y="1016"/>
      <point x="293" y="820"/>
      <point x="293" y="460" type="curve" smooth="yes"/>
      <point x="293" y="222"/>
      <point x="374" y="119"/>
      <point x="498" y="119" type="curve" smooth="yes"/>
      <point x="595" y="119"/>
      <point x="656" y="153"/>
      <point x="766" y="232" type="curve"/>
      <point x="805" y="151" type="line"/>
      <point x="764" y="104"/>
      <point x="671" y="17"/>
      <point x="532" y="-11" type="curve"/>
      <point x="545" y="-55"/>
      <point x="546" y="-119"/>
      <point x="539" y="-185" type="curve" smooth="yes"/>
      <point x="515" y="-410"/>
      <point x="419" y="-464"/>
      <point x="271" y="-464" type="curve" smooth="yes"/>
      <point x="218" y="-464"/>
      <point x="155" y="-452"/>
      <point x="133" y="-436" type="curve"/>
    </contour>
  </outline>
</glyph>
<glyph name="iacute" format="1">
  <advance width="641"/>
  <unicode hex="00ED"/>
  <outline>
    <contour>
      <point x="163" y="112" type="curve" smooth="yes"/>
      <point x="175" y="273"/>
      <point x="233" y="596"/>
      <point x="288" y="980" type="curve"/>
      <point x="140" y="1031" type="line"/>
      <point x="158" y="1112" type="line"/>
      <point x="460" y="1163" type="line"/>
      <point x="509" y="1139" type="line"/>
      <point x="370" y="187" type="line" smooth="yes"/>
      <point x="363" y="138"/>
      <point x="371" y="111"/>
      <point x="392" y="111" type="curve" smooth="yes"/>
      <point x="413" y="111"/>
      <point x="442" y="124"/>
      <point x="499" y="178" type="curve"/>
      <point x="531" y="125" type="line"/>
      <point x="512" y="96"/>
      <point x="407" y="-20"/>
      <point x="286" y="-20" type="curve" smooth="yes"/>
      <point x="206" y="-20"/>
      <point x="156" y="15"/>
    </contour>
    <contour>
      <point x="379" y="1251" type="curve"/>
      <point x="326" y="1312" type="line"/>
      <point x="643" y="1743" type="line"/>
      <point x="785" y="1576" type="line"/>
      <point x="749" y="1508"/>
      <point x="498" y="1297"/>
    </contour>
  </outline>
</glyph>
<glyph name="icircumflex" format="1">
  <advance width="641"/>
  <unicode hex="00EE"/>
  <outline>
    <contour>
      <point x="163" y="112" type="curve" smooth="yes"/>
      <point x="175" y="273"/>
      <point x="233" y="596"/>
      <point x="288" y="980" type="curve"/>
      <point x="140" y="1031" type="line"/>
      <point x="158" y="1112" type="line"/>
      <point x="460" y="1163" type="line"/>
      <point x="509" y="1139" type="line"/>
      <point x="370" y="187" type="line" smooth="yes"/>
      <point x="363" y="138"/>
      <point x="371" y="111"/>
      <point x="392" y="111" type="curve" smooth="yes"/>
      <point x="413" y="111"/>
      <point x="442" y="124"/>
      <point x="499" y="178" type="curve"/>
      <point x="531" y="125" type="line"/>
      <point x="512" y="96"/>
      <point x="407" y="-20"/>
      <point x="286" y="-20" type="curve" smooth="yes"/>
      <point x="206" y="-20"/>
      <point x="156" y="15"/>
    </contour>
    <contour>
      <point x="128" y="1219" type="line"/>
      <point x="71" y="1276" type="line"/>
      <point x="398" y="1650" type="line"/>
      <point x="576" y="1650" type="line"/>
      <point x="766" y="1276" type="line"/>
      <point x="692" y="1218" type="line"/>
      <point x="461" y="1492" type="line"/>
    </contour>
  </outline>
</glyph>
<glyph name="eth" format="1">
  <advance width="1176"/>
  <unicode hex="00F0"/>
  <outline>
    <contour>
      <point x="86" y="423" type="curve" smooth="yes"/>
      <point x="86" y="851"/>
      <point x="361" y="1110"/>
      <point x="642" y="1110" type="curve" smooth="yes"/>
      <point x="731" y="1110"/>
      <point x="835" y="1079"/>
      <point x="885" y="995" type="curve"/>
      <point x="840" y="1182"/>
      <point x="806" y="1284"/>
      <point x="681" y="1399" type="curve"/>
      <point x="531" y="1231" type="line"/>
      <point x="431" y="1319" type="line"/>
      <point x="583" y="1482" type="line"/>
      <point x="504" y="1542"/>
      <point x="415" y="1598"/>
      <point x="341" y="1615" type="curve"/>
      <point x="384" y="1734" type="line"/>
      <point x="463" y="1715"/>
      <point x="587" y="1651"/>
      <point x="681" y="1589" type="curve"/>
      <point x="744" y="1659"/>
      <point x="835" y="1771"/>
      <point x="835" y="1771" type="curve"/>
      <point x="932" y="1680" type="line"/>
      <point x="782" y="1513" type="line"/>
      <point x="998" y="1322"/>
      <point x="1085" y="1090"/>
      <point x="1085" y="822" type="curve" smooth="yes"/>
      <point x="1085" y="361"/>
      <point x="875" y="-20"/>
      <point x="482" y="-20" type="curve" smooth="yes"/>
      <point x="213" y="-20"/>
      <point x="86" y="209"/>
    </contour>
    <contour>
      <point x="297" y="411" type="curve" smooth="yes"/>
      <point x="297" y="236"/>
      <point x="368" y="88"/>
      <point x="507" y="88" type="curve" smooth="yes"/>
      <point x="680" y="88"/>
      <point x="813" y="295"/>
      <point x="854" y="551" type="curve" smooth="yes"/>
      <point x="862" y="602"/>
      <point x="871" y="686"/>
      <point x="873" y="728" type="curve" smooth="yes"/>
      <point x="876" y="796"/>
      <point x="815" y="998"/>
      <point x="636" y="998" type="curve" smooth="yes"/>
      <point x="396" y="998"/>
      <point x="297" y="674"/>
    </contour>
  </outline>
</glyph>
<glyph name="ograve" format="1">
  <advance width="1143"/>
  <unicode hex="00F2"/>
  <outline>
    <contour>
      <point x="87" y="439" type="curve" smooth="yes"/>
      <point x="81" y="802"/>
      <point x="318" y="1163"/>
      <point x="654" y="1163" type="curve" smooth="yes"/>
      <point x="907" y="1163"/>
      <point x="1046" y="994"/>
      <point x="1051" y="703" type="curve" smooth="yes"/>
      <point x="1057" y="340"/>
      <point x="819" y="-20"/>
      <point x="483" y="-20" type="curve" smooth="yes"/>
      <point x="230" y="-20"/>
      <point x="92" y="148"/>
    </contour>
    <contour>
      <point x="518" y="102" type="curve" smooth="yes"/>
      <point x="746" y="102"/>
      <point x="847" y="445"/>
      <point x="842" y="702" type="curve"/>
      <point x="839" y="913"/>
      <point x="764" y="1041"/>
      <point x="618" y="1041" type="curve" smooth="yes"/>
      <point x="390" y="1041"/>
      <point x="289" y="698"/>
      <point x="294" y="441" type="curve"/>
      <point x="297" y="230"/>
      <point x="372" y="102"/>
    </contour>
    <contour>
      <point x="651" y="1251" type="line"/>
      <point x="568" y="1286"/>
      <point x="329" y="1464"/>
      <point x="265" y="1576" type="curve"/>
      <point x="418" y="1743" type="line"/>
      <point x="706" y="1311" type="line"/>
    </contour>
  </outline>
</glyph>
<glyph name="ocircumflex" format="1">
  <advance width="1143"/>
  <unicode hex="00F4"/>
  <outline>
    <contour>
      <point x="87" y="439" type="curve" smooth="yes"/>
      <point x="81" y="802"/>
      <point x="318" y="1163"/>
      <point x="654" y="1163" type="curve" smooth="yes"/>
      <point x="907" y="1163"/>
      <point x="1046" y="994"/>
      <point x="1051" y="703" type="curve" smooth="yes"/>
      <point x="1057" y="340"/>
      <point x="819" y="-20"/>
      <point x="483" y="-20" type="curve" smooth="yes"/>
      <point x="230" y="-20"/>
      <point x="92" y="148"/>
    </contour>
    <contour>
      <point x="518" y="102" type="curve" smooth="yes"/>
      <point x="746" y="102"/>
      <point x="847" y="445"/>
      <point x="842" y="702" type="curve"/>
      <point x="839" y="913"/>
      <point x="764" y="1041"/>
      <point x="618" y="1041" type="curve" smooth="yes"/>
      <point x="390" y="1041"/>
      <point x="289" y="698"/>
      <point x="294" y="441" type="curve"/>
      <point x="297" y="230"/>
      <point x="372" y="102"/>
    </contour>
    <contour>
      <point x="345" y="1219" type="line"/>
      <point x="288" y="1276" type="line"/>
      <point x="615" y="1650" type="line"/>
      <point x="793" y="1650" type="line"/>
      <point x="983" y="1276" type="line"/>
      <point x="909" y="1218" type="line"/>
      <point x="678" y="1492" type="line"/>
    </contour>
  </outline>
</glyph>
<glyph name="otilde" format="1">
  <advance width="1143"/>
  <unicode hex="00F5"/>
  <outline>
    <contour>
      <point x="87" y="439" type="curve" smooth="yes"/>
      <point x="81" y="802"/>
      <point x="318" y="1163"/>
      <point x="654" y="1163" type="curve" smooth="yes"/>
      <point x="907" y="1163"/>
      <point x="1046" y="994"/>
      <point x="1051" y="703" type="curve" smooth="yes"/>
      <point x="1057" y="340"/>
      <point x="819" y="-20"/>
      <point x="483" y="-20" type="curve" smooth="yes"/>
      <point x="230" y="-20"/>
      <point x="92" y="148"/>
    </contour>
    <contour>
      <point x="518" y="102" type="curve" smooth="yes"/>
      <point x="746" y="102"/>
      <point x="847" y="445"/>
      <point x="842" y="702" type="curve"/>
      <point x="839" y="913"/>
      <point x="764" y="1041"/>
      <point x="618" y="1041" type="curve" smooth="yes"/>
      <point x="390" y="1041"/>
      <point x="289" y="698"/>
      <point x="294" y="441" type="curve"/>
      <point x="297" y="230"/>
      <point x="372" y="102"/>
    </contour>
    <contour>
      <point x="356" y="1397" type="curve"/>
      <point x="309" y="1481" type="line"/>
      <point x="352" y="1567"/>
      <point x="452" y="1650"/>
      <point x="556" y="1650" type="curve" smooth="yes"/>
      <point x="689" y="1650"/>
      <point x="721" y="1510"/>
      <point x="813" y="1510" type="curve" smooth="yes"/>
      <point x="887" y="1510"/>
      <point x="929" y="1572"/>
      <point x="967" y="1620" type="curve"/>
      <point x="1025" y="1529" type="line"/>
      <point x="991" y="1427"/>
      <point x="888" y="1348"/>
      <point x="774" y="1348" type="curve" smooth="yes"/>
      <point x="611" y="1348"/>
      <point x="614" y="1486"/>
      <point x="503" y="1488" type="curve" smooth="yes"/>
      <point x="458" y="1489"/>
      <point x="394" y="1437"/>
    </contour>
  </outline>
</glyph>
<glyph name="divide" format="1">
  <advance width="1370"/>
  <unicode hex="00F7"/>
  <outline>
    <contour>
      <point x="745" y="1026" type="curve" smooth="yes"/>
      <point x="675" y="1026"/>
      <point x="614" y="1073"/>
      <point x="623" y="1151" type="curve" smooth="yes"/>
      <point x="632" y="1235"/>
      <point x="723" y="1298"/>
      <point x="798" y="1298" type="curve" smooth="yes"/>
      <point x="891" y="1298"/>
      <point x="927" y="1241"/>
      <point x="919" y="1173" type="curve" smooth="yes"/>
      <point x="909" y="1086"/>
      <point x="821" y="1026"/>
    </contour>
    <contour>
      <point x="274" y="696" type="line"/>
      <point x="292" y="853" type="line"/>
      <point x="1161" y="853" type="line"/>
      <point x="1143" y="696" type="line"/>
    </contour>
    <contour>
      <point x="527" y="377" type="curve" smooth="yes"/>
      <point x="537" y="460"/>
      <point x="626" y="524"/>
      <point x="702" y="524" type="curve" smooth="yes"/>
      <point x="795" y="524"/>
      <point x="830" y="466"/>
      <point x="822" y="399" type="curve" smooth="yes"/>
      <point x="811" y="312"/>
      <point x="727" y="252"/>
      <point x="649" y="252" type="curve" smooth="yes"/>
      <point x="578" y="252"/>
      <point x="518" y="299"/>
    </contour>
  </outline>
</glyph>
<glyph name="oslash" format="1">
  <advance width="1143"/>
  <unicode hex="00F8"/>
  <outline>
    <contour>
      <point x="42" y="-83" type="line"/>
      <point x="180" y="117" type="line"/>
      <point x="121" y="195"/>
      <point x="89" y="304"/>
      <point x="87" y="441" type="curve" smooth="yes"/>
      <point x="81" y="804"/>
      <point x="318" y="1165"/>
      <point x="654" y="1165" type="curve" smooth="yes"/>
      <point x="732" y="1165"/>
      <point x="799" y="1149"/>
      <point x="855" y="1118" type="curve"/>
      <point x="985" y="1303" type="line"/>
      <point x="1074" y="1254" type="line"/>
      <point x="935" y="1055" type="line"/>
      <point x="1008" y="977"/>
      <point x="1048" y="858"/>
      <point x="1051" y="705" type="curve" smooth="yes"/>
      <point x="1057" y="342"/>
      <point x="819" y="-18"/>
      <point x="483" y="-18" type="curve" smooth="yes"/>
      <point x="391" y="-18"/>
      <point x="315" y="4"/>
      <point x="255" y="45" type="curve"/>
      <point x="131" y="-132" type="line"/>
    </contour>
    <contour>
      <point x="311" y="292" type="curve"/>
      <point x="754" y="989" type="line"/>
      <point x="719" y="1024"/>
      <point x="674" y="1043"/>
      <point x="618" y="1043" type="curve" smooth="yes"/>
      <point x="390" y="1043"/>
      <point x="289" y="700"/>
      <point x="294" y="443" type="curve" smooth="yes"/>
      <point x="295" y="386"/>
      <point x="300" y="336"/>
    </contour>
    <contour>
      <point x="361" y="182" type="line"/>
      <point x="398" y="131"/>
      <point x="450" y="104"/>
      <point x="518" y="104" type="curve" smooth="yes"/>
      <point x="746" y="104"/>
      <point x="847" y="447"/>
      <point x="842" y="704" type="curve" smooth="yes"/>
      <point x="841" y="777"/>
      <point x="831" y="841"/>
      <point x="812" y="892" type="curve"/>
    </contour>
  </outline>
</glyph>
<glyph name="thorn" format="1">
  <advance width="1165"/>
  <unicode hex="00FE"/>
  <outline>
    <contour>
      <point x="102" y="-20" type="line"/>
      <point x="300" y="1482" type="line"/>
      <point x="205" y="1525" type="line"/>
      <point x="235" y="1611" type="line"/>
      <point x="466" y="1650" type="line"/>
      <point x="517" y="1623" type="line"/>
      <point x="433" y="998" type="line"/>
      <point x="497" y="1081"/>
      <point x="604" y="1162"/>
      <point x="737" y="1162" type="curve" smooth="yes"/>
      <point x="968" y="1162"/>
      <point x="1077" y="980"/>
      <point x="1077" y="730" type="curve" smooth="yes"/>
      <point x="1077" y="423"/>
      <point x="844" y="-20"/>
      <point x="439" y="-20" type="curve" smooth="yes"/>
      <point x="394" y="-20"/>
      <point x="344" y="-13"/>
      <point x="298" y="-3" type="curve"/>
      <point x="281" y="-140" type="line"/>
      <point x="221" y="-520" type="line"/>
      <point x="31" y="-520" type="line"/>
    </contour>
    <contour>
      <point x="318" y="143" type="line"/>
      <point x="358" y="111"/>
      <point x="411" y="101"/>
      <point x="470" y="101" type="curve" smooth="yes"/>
      <point x="749" y="101"/>
      <point x="872" y="473"/>
      <point x="872" y="716" type="curve" smooth="yes"/>
      <point x="872" y="911"/>
      <point x="807" y="1020"/>
      <point x="704" y="1020" type="curve" smooth="yes"/>
      <point x="580" y="1020"/>
      <point x="463" y="911"/>
      <point x="410" y="829" type="curve"/>
    </contour>
  </outline>
</glyph>
<glyph name="ydieresis" format="1">
  <advance width="1071"/>
  <unicode hex="00FF"/>
  <outline>
    <contour>
      <point x="-83" y="-320" type="line"/>
      <point x="-65" y="-327"/>
      <point x="-11" y="-360"/>
      <point x="86" y="-360" type="curve" smooth="yes"/>
      <point x="170" y="-360"/>
      <point x="314" y="-291"/>
      <point x="413" y="-53" type="curve"/>
      <point x="350" y="-53" type="line"/>
      <point x="180" y="965" type="line"/>
      <point x="168" y="1006"/>
      <point x="160" y="1021"/>
      <point x="140" y="1021" type="curve" smooth="yes"/>
      <point x="125" y="1021"/>
      <point x="107" y="1020"/>
      <point x="58" y="978" type="curve"/>
      <point x="29" y="1038" type="line"/>
      <point x="45" y="1063"/>
      <point x="141" y="1163"/>
      <point x="245" y="1163" type="curve" smooth="yes"/>
      <point x="344" y="1163"/>
      <point x="365" y="1109"/>
      <point x="378" y="1026" type="curve"/>
      <point x="463" y="295" type="line"/>
      <point x="483" y="21" type="line"/>
      <point x="642" y="338" type="line"/>
      <point x="728" y="542"/>
      <point x="802" y="669"/>
      <point x="832" y="898" type="curve" smooth="yes"/>
      <point x="841" y="965"/>
      <point x="802" y="1012"/>
      <point x="802" y="1054" type="curve" smooth="yes"/>
      <point x="802" y="1128"/>
      <point x="844" y="1162"/>
      <point x="899" y="1162" type="curve" smooth="yes"/>
      <point x="987" y="1162"/>
      <point x="1027" y="1096"/>
      <point x="1027" y="972" type="curve" smooth="yes"/>
      <point x="1027" y="747"/>
      <point x="887" y="511"/>
      <point x="789" y="322" type="curve"/>
      <point x="597" y="-65"/>
      <point x="483" y="-242"/>
      <point x="401" y="-340" type="curve"/>
      <point x="352" y="-410"/>
      <point x="234" y="-505"/>
      <point x="44" y="-505" type="curve" smooth="yes"/>
      <point x="0" y="-505"/>
      <point x="-89" y="-490"/>
      <point x="-129" y="-478" type="curve"/>
    </contour>
    <contour>
      <point x="831" y="1388" type="curve" smooth="yes"/>
      <point x="766" y="1388"/>
      <point x="713" y="1443"/>
      <point x="716" y="1508" type="curve" smooth="yes"/>
      <point x="719" y="1584"/>
      <point x="788" y="1651"/>
      <point x="861" y="1651" type="curve" smooth="yes"/>
      <point x="937" y="1651"/>
      <point x="986" y="1598"/>
      <point x="983" y="1536" type="curve" smooth="yes"/>
      <point x="980" y="1458"/>
      <point x="911" y="1388"/>
    </contour>
    <contour>
      <point x="411" y="1388" type="curve" smooth="yes"/>
      <point x="346" y="1388"/>
      <point x="293" y="1443"/>
      <point x="296" y="1508" type="curve" smooth="yes"/>
      <point x="299" y="1584"/>
      <point x="368" y="1651"/>
      <point x="441" y="1651" type="curve" smooth="yes"/>
      <point x="517" y="1651"/>
      <point x="566" y="1598"/>
      <point x="563" y="1536" type="curve" smooth="yes"/>
      <point x="560" y="1458"/>
      <point x="491" y="1388"/>
    </contour>
  </outline>
</glyph>
<glyph name="Abreve" format="1">
  <advance width="1342"/>
  <unicode hex="0102"/>
  <outline>
    <contour>
      <point x="-3" y="115" type="line"/>
      <point x="706" y="1530" type="line"/>
      <point x="905" y="1530" type="line"/>
      <point x="1158" y="118" type="line"/>
      <point x="1314" y="86" type="line"/>
      <point x="1307" y="0" type="line"/>
      <point x="799" y="0" type="line"/>
      <point x="804" y="86" type="line"/>
      <point x="960" y="115" type="line"/>
      <point x="910" y="436" type="line"/>
      <point x="338" y="436" type="line"/>
      <point x="188" y="116" type="line"/>
      <point x="347" y="86" type="line"/>
      <point x="341" y="0" type="line"/>
      <point x="-130" y="0" type="line"/>
      <point x="-121" y="86" type="line"/>
    </contour>
    <contour>
      <point x="395" y="557" type="line"/>
      <point x="892" y="557" type="line"/>
      <point x="786" y="1246" type="line"/>
      <point x="775" y="1364" type="line"/>
    </contour>
    <contour>
      <point x="828" y="1628" type="curve" smooth="yes"/>
      <point x="642" y="1628"/>
      <point x="539" y="1801"/>
      <point x="539" y="1960" type="curve" smooth="yes"/>
      <point x="539" y="1966"/>
      <point x="539" y="1973"/>
      <point x="540" y="1979" type="curve"/>
      <point x="645" y="1979" type="line"/>
      <point x="646" y="1970"/>
      <point x="647" y="1959"/>
      <point x="649" y="1948" type="curve" smooth="yes"/>
      <point x="664" y="1879"/>
      <point x="707" y="1775"/>
      <point x="833" y="1775" type="curve" smooth="yes"/>
      <point x="980" y="1775"/>
      <point x="1032" y="1919"/>
      <point x="1055" y="1979" type="curve"/>
      <point x="1157" y="1979" type="line"/>
      <point x="1157" y="1968"/>
      <point x="1156" y="1957"/>
      <point x="1154" y="1946" type="curve" smooth="yes"/>
      <point x="1132" y="1791"/>
      <point x="996" y="1628"/>
    </contour>
  </outline>
</glyph>
<glyph name="abreve" format="1">
  <advance width="1173"/>
  <unicode hex="0103"/>
  <outline>
    <contour>
      <point x="413" y="-20" type="curve" smooth="yes"/>
      <point x="189" y="-20"/>
      <point x="83" y="162"/>
      <point x="83" y="412" type="curve" smooth="yes"/>
      <point x="83" y="719"/>
      <point x="320" y="1163"/>
      <point x="731" y="1163" type="curve" smooth="yes"/>
      <point x="796" y="1163"/>
      <point x="873" y="1146"/>
      <point x="929" y="1128" type="curve"/>
      <point x="1048" y="1162" type="line"/>
      <point x="917" y="187" type="line" smooth="yes"/>
      <point x="910" y="133"/>
      <point x="931" y="111"/>
      <point x="947" y="111" type="curve" smooth="yes"/>
      <point x="965" y="111"/>
      <point x="988" y="120"/>
      <point x="1035" y="157" type="curve"/>
      <point x="1066" y="104" type="line"/>
      <point x="1053" y="80"/>
      <point x="956" y="-20"/>
      <point x="843" y="-20" type="curve" smooth="yes"/>
      <point x="763" y="-20"/>
      <point x="711" y="18"/>
      <point x="716" y="115" type="curve"/>
      <point x="718" y="136" type="line"/>
      <point x="652" y="56"/>
      <point x="545" y="-20"/>
    </contour>
    <contour>
      <point x="450" y="122" type="curve" smooth="yes"/>
      <point x="574" y="122"/>
      <point x="683" y="218"/>
      <point x="740" y="298" type="curve"/>
      <point x="832" y="1008" type="line"/>
      <point x="796" y="1033"/>
      <point x="750" y="1041"/>
      <point x="700" y="1041" type="curve" smooth="yes"/>
      <point x="414" y="1041"/>
      <point x="288" y="679"/>
      <point x="288" y="436" type="curve" smooth="yes"/>
      <point x="288" y="241"/>
      <point x="350" y="122"/>
    </contour>
    <contour>
      <point x="726" y="1300" type="curve" smooth="yes"/>
      <point x="540" y="1300"/>
      <point x="437" y="1473"/>
      <point x="437" y="1632" type="curve" smooth="yes"/>
      <point x="437" y="1638"/>
      <point x="437" y="1645"/>
      <point x="438" y="1651" type="curve"/>
      <point x="543" y="1651" type="line"/>
      <point x="544" y="1642"/>
      <point x="545" y="1631"/>
      <point x="547" y="1620" type="curve" smooth="yes"/>
      <point x="562" y="1551"/>
      <point x="605" y="1447"/>
      <point x="731" y="1447" type="curve" smooth="yes"/>
      <point x="878" y="1447"/>
      <point x="930" y="1591"/>
      <point x="953" y="1651" type="curve"/>
      <point x="1055" y="1651" type="line"/>
      <point x="1055" y="1640"/>
      <point x="1054" y="1629"/>
      <point x="1052" y="1618" type="curve" smooth="yes"/>
      <point x="1030" y="1463"/>
      <point x="894" y="1300"/>
    </contour>
  </outline>
</glyph>
<glyph name="cacute" format="1">
  <advance width="903"/>
  <unicode hex="0107"/>
  <outline>
    <contour>
      <point x="442" y="-20" type="curve" smooth="yes"/>
      <point x="216" y="-20"/>
      <point x="84" y="147"/>
      <point x="84" y="430" type="curve" smooth="yes"/>
      <point x="84" y="737"/>
      <point x="288" y="1163"/>
      <point x="673" y="1163" type="curve" smooth="yes"/>
      <point x="745" y="1163"/>
      <point x="836" y="1144"/>
      <point x="893" y="1115" type="curve"/>
      <point x="835" y="921" type="line"/>
      <point x="773" y="975"/>
      <point x="699" y="1016"/>
      <point x="627" y="1016" type="curve" smooth="yes"/>
      <point x="427" y="1016"/>
      <point x="293" y="820"/>
      <point x="293" y="460" type="curve" smooth="yes"/>
      <point x="293" y="222"/>
      <point x="374" y="119"/>
      <point x="498" y="119" type="curve" smooth="yes"/>
      <point x="595" y="119"/>
      <point x="656" y="153"/>
      <point x="766" y="232" type="curve"/>
      <point x="805" y="151" type="line"/>
      <point x="756" y="95"/>
      <point x="631" y="-20"/>
    </contour>
    <contour>
      <point x="595" y="1251" type="curve"/>
      <point x="542" y="1312" type="line"/>
      <point x="859" y="1743" type="line"/>
      <point x="1001" y="1576" type="line"/>
      <point x="965" y="1508"/>
      <point x="714" y="1297"/>
    </contour>
  </outline>
</glyph>
<glyph name="ccircumflex" format="1">
  <advance width="903"/>
  <unicode hex="0109"/>
  <outline>
    <contour>
      <point x="442" y="-20" type="curve" smooth="yes"/>
      <point x="216" y="-20"/>
      <point x="84" y="147"/>
      <point x="84" y="430" type="curve" smooth="yes"/>
      <point x="84" y="737"/>
      <point x="288" y="1163"/>
      <point x="673" y="1163" type="curve" smooth="yes"/>
      <point x="745" y="1163"/>
      <point x="836" y="1144"/>
      <point x="893" y="1115" type="curve"/>
      <point x="835" y="921" type="line"/>
      <point x="773" y="975"/>
      <point x="699" y="1016"/>
      <point x="627" y="1016" type="curve" smooth="yes"/>
      <point x="427" y="1016"/>
      <point x="293" y="820"/>
      <point x="293" y="460" type="curve" smooth="yes"/>
      <point x="293" y="222"/>
      <point x="374" y="119"/>
      <point x="498" y="119" type="curve" smooth="yes"/>
      <point x="595" y="119"/>
      <point x="656" y="153"/>
      <point x="766" y="232" type="curve"/>
      <point x="805" y="151" type="line"/>
      <point x="756" y="95"/>
      <point x="631" y="-20"/>
    </contour>
    <contour>
      <point x="344" y="1219" type="line"/>
      <point x="287" y="1276" type="line"/>
      <point x="614" y="1650" type="line"/>
      <point x="792" y="1650" type="line"/>
      <point x="982" y="1276" type="line"/>
      <point x="908" y="1218" type="line"/>
      <point x="677" y="1492" type="line"/>
    </contour>
  </outline>
</glyph>
<glyph name="ccaron" format="1">
  <advance width="903"/>
  <unicode hex="010D"/>
  <outline>
    <contour>
      <point x="442" y="-20" type="curve" smooth="yes"/>
      <point x="216" y="-20"/>
      <point x="84" y="147"/>
      <point x="84" y="430" type="curve" smooth="yes"/>
      <point x="84" y="737"/>
      <point x="288" y="1163"/>
      <point x="673" y="1163" type="curve" smooth="yes"/>
      <point x="745" y="1163"/>
      <point x="836" y="1144"/>
      <point x="893" y="1115" type="curve"/>
      <point x="835" y="921" type="line"/>
      <point x="773" y="975"/>
      <point x="699" y="1016"/>
      <point x="627" y="1016" type="curve" smooth="yes"/>
      <point x="427" y="1016"/>
      <point x="293" y="820"/>
      <point x="293" y="460" type="curve" smooth="yes"/>
      <point x="293" y="222"/>
      <point x="374" y="119"/>
      <point x="498" y="119" type="curve" smooth="yes"/>
      <point x="595" y="119"/>
      <point x="656" y="153"/>
      <point x="766" y="232" type="curve"/>
      <point x="805" y="151" type="line"/>
      <point x="756" y="95"/>
      <point x="631" y="-20"/>
    </contour>
    <contour>
      <point x="558" y="1255" type="line"/>
      <point x="335" y="1592" type="line"/>
      <point x="402" y="1650" type="line"/>
      <point x="650" y="1406" type="line"/>
      <point x="743" y="1485"/>
      <point x="875" y="1573"/>
      <point x="967" y="1650" type="curve"/>
      <point x="1029" y="1593" type="line"/>
      <point x="734" y="1255" type="line"/>
    </contour>
  </outline>
</glyph>
<glyph name="Ebreve" format="1">
  <advance width="1219"/>
  <unicode hex="0114"/>
  <outline>
    <contour>
      <point x="18" y="0" type="line"/>
      <point x="28" y="86" type="line"/>
      <point x="177" y="115" type="line"/>
      <point x="337" y="1406" type="line"/>
      <point x="204" y="1429" type="line"/>
      <point x="216" y="1530" type="line"/>
      <point x="1143" y="1530" type="line"/>
      <point x="1136" y="1220" type="line"/>
      <point x="1030" y="1220" type="line"/>
      <point x="982" y="1408" type="line"/>
      <point x="541" y="1422" type="line"/>
      <point x="469" y="854" type="line"/>
      <point x="916" y="861" type="line"/>
      <point x="904" y="705" type="line"/>
      <point x="457" y="721" type="line"/>
      <point x="374" y="116" type="line"/>
      <point x="925" y="140" type="line"/>
      <point x="1044" y="347" type="line"/>
      <point x="1148" y="316" type="line"/>
      <point x="1059" y="0" type="line"/>
    </contour>
    <contour>
      <point x="765" y="1628" type="curve" smooth="yes"/>
      <point x="579" y="1628"/>
      <point x="476" y="1801"/>
      <point x="476" y="1960" type="curve" smooth="yes"/>
      <point x="476" y="1966"/>
      <point x="476" y="1973"/>
      <point x="477" y="1979" type="curve"/>
      <point x="582" y="1979" type="line"/>
      <point x="583" y="1970"/>
      <point x="584" y="1959"/>
      <point x="586" y="1948" type="curve" smooth="yes"/>
      <point x="601" y="1879"/>
      <point x="644" y="1775"/>
      <point x="770" y="1775" type="curve" smooth="yes"/>
      <point x="917" y="1775"/>
      <point x="969" y="1919"/>
      <point x="992" y="1979" type="curve"/>
      <point x="1094" y="1979" type="line"/>
      <point x="1094" y="1968"/>
      <point x="1093" y="1957"/>
      <point x="1091" y="1946" type="curve" smooth="yes"/>
      <point x="1069" y="1791"/>
      <point x="933" y="1628"/>
    </contour>
  </outline>
</glyph>
<glyph name="eogonek" format="1">
  <advance width="1051"/>
  <unicode hex="0119"/>
  <outline>
    <contour>
      <point x="86" y="430" type="curve" smooth="yes"/>
      <point x="96" y="807"/>
      <point x="345" y="1163"/>
      <point x="676" y="1163" type="curve" smooth="yes"/>
      <point x="868" y="1163"/>
      <point x="960" y="1054"/>
      <point x="960" y="913" type="curve" smooth="yes"/>
      <point x="960" y="603"/>
      <point x="485" y="466"/>
      <point x="295" y="460" type="curve"/>
      <point x="281" y="333"/>
      <point x="328" y="119"/>
      <point x="510" y="119" type="curve" smooth="yes"/>
      <point x="610" y="119"/>
      <point x="735" y="158"/>
      <point x="850" y="265" type="curve"/>
      <point x="896" y="182" type="line"/>
      <point x="875" y="154"/>
      <point x="842" y="120"/>
      <point x="799" y="88" type="curve"/>
      <point x="693" y="-3"/>
      <point x="574" y="-136"/>
      <point x="572" y="-201" type="curve" smooth="yes"/>
      <point x="569" y="-266"/>
      <point x="602" y="-287"/>
      <point x="625" y="-287" type="curve" smooth="yes"/>
      <point x="661" y="-287"/>
      <point x="699" y="-272"/>
      <point x="755" y="-228" type="curve"/>
      <point x="781" y="-322" type="line"/>
      <point x="729" y="-368"/>
      <point x="647" y="-416"/>
      <point x="531" y="-416" type="curve" smooth="yes"/>
      <point x="424" y="-416"/>
      <point x="375" y="-343"/>
      <point x="378" y="-280" type="curve" smooth="yes"/>
      <point x="380" y="-238"/>
      <point x="394" y="-188"/>
      <point x="419" y="-156" type="curve" smooth="yes"/>
      <point x="481" y="-75"/>
      <point x="547" y="-39"/>
      <point x="610" y="-3" type="curve"/>
      <point x="571" y="-13"/>
      <point x="529" y="-20"/>
      <point x="486" y="-20" type="curve" smooth="yes"/>
      <point x="203" y="-20"/>
      <point x="80" y="202"/>
    </contour>
    <contour>
      <point x="300" y="570" type="curve"/>
      <point x="462" y="577"/>
      <point x="755" y="693"/>
      <point x="755" y="896" type="curve" smooth="yes"/>
      <point x="755" y="1001"/>
      <point x="703" y="1046"/>
      <point x="629" y="1046" type="curve" smooth="yes"/>
      <point x="425" y="1046"/>
      <point x="320" y="738"/>
    </contour>
  </outline>
</glyph>
<glyph name="Ecaron" format="1">
  <advance width="1219"/>
  <unicode hex="011A"/>
  <outline>
    <contour>
      <point x="18" y="0" type="line"/>
      <point x="28" y="86" type="line"/>
      <point x="177" y="115" type="line"/>
      <point x="337" y="1406" type="line"/>
      <point x="204" y="1429" type="line"/>
      <point x="216" y="1530" type="line"/>
      <point x="1143" y="1530" type="line"/>
      <point x="1136" y="1220" type="line"/>
      <point x="1030" y="1220" type="line"/>
      <point x="982" y="1408" type="line"/>
      <point x="541" y="1422" type="line"/>
      <point x="469" y="854" type="line"/>
      <point x="916" y="861" type="line"/>
      <point x="904" y="705" type="line"/>
      <point x="457" y="721" type="line"/>
      <point x="374" y="116" type="line"/>
      <point x="925" y="140" type="line"/>
      <point x="1044" y="347" type="line"/>
      <point x="1148" y="316" type="line"/>
      <point x="1059" y="0" type="line"/>
    </contour>
    <contour>
      <point x="664" y="1614" type="line"/>
      <point x="442" y="1942" type="line"/>
      <point x="507" y="2000" type="line"/>
      <point x="755" y="1765" type="line"/>
      <point x="1072" y="2000" type="line"/>
      <point x="1134" y="1943" type="line"/>
      <point x="839" y="1614" type="line"/>
    </contour>
  </outline>
</glyph>
<glyph name="Gbreve" format="1">
  <advance width="1342"/>
  <unicode hex="011E"/>
  <outline>
    <contour>
      <point x="601" y="-16" type="curve" smooth="yes"/>
      <point x="247" y="-16"/>
      <point x="107" y="317"/>
      <point x="102" y="627" type="curve" smooth="yes"/>
      <point x="92" y="1175"/>
      <point x="440" y="1546"/>
      <point x="838" y="1546" type="curve" smooth="yes"/>
      <point x="1042" y="1546"/>
      <point x="1167" y="1511"/>
      <point x="1239" y="1490" type="curve" smooth="yes"/>
      <point x="1277" y="1479" type="line"/>
      <point x="1220" y="1183" type="line"/>
      <point x="1093" y="1183" type="line"/>
      <point x="1071" y="1364" type="line"/>
      <point x="1030" y="1400"/>
      <point x="965" y="1428"/>
      <point x="814" y="1428" type="curve" smooth="yes"/>
      <point x="430" y="1428"/>
      <point x="305" y="946"/>
      <point x="310" y="648" type="curve" smooth="yes"/>
      <point x="315" y="386"/>
      <point x="410" y="101"/>
      <point x="660" y="101" type="curve" smooth="yes"/>
      <point x="752" y="101"/>
      <point x="876" y="115"/>
      <point x="952" y="195" type="curve"/>
      <point x="1009" y="590" type="line"/>
      <point x="775" y="607" type="line"/>
      <point x="788" y="723" type="line"/>
      <point x="1230" y="723" type="line"/>
      <point x="1140" y="94" type="line"/>
      <point x="1101" y="90"/>
      <point x="1067" y="77"/>
      <point x="1013" y="61" type="curve" smooth="yes"/>
      <point x="912" y="31"/>
      <point x="761" y="-16"/>
    </contour>
    <contour>
      <point x="841" y="1628" type="curve" smooth="yes"/>
      <point x="655" y="1628"/>
      <point x="552" y="1801"/>
      <point x="552" y="1960" type="curve" smooth="yes"/>
      <point x="552" y="1966"/>
      <point x="552" y="1973"/>
      <point x="553" y="1979" type="curve"/>
      <point x="658" y="1979" type="line"/>
      <point x="659" y="1970"/>
      <point x="660" y="1959"/>
      <point x="662" y="1948" type="curve" smooth="yes"/>
      <point x="677" y="1879"/>
      <point x="720" y="1775"/>
      <point x="846" y="1775" type="curve" smooth="yes"/>
      <point x="993" y="1775"/>
      <point x="1045" y="1919"/>
      <point x="1068" y="1979" type="curve"/>
      <point x="1170" y="1979" type="line"/>
      <point x="1170" y="1968"/>
      <point x="1169" y="1957"/>
      <point x="1167" y="1946" type="curve" smooth="yes"/>
      <point x="1145" y="1791"/>
      <point x="1009" y="1628"/>
    </contour>
  </outline>
</glyph>
<glyph name="gbreve" format="1">
  <advance width="1153"/>
  <unicode hex="011F"/>
  <outline>
    <contour>
      <point x="169" y="-288" type="line"/>
      <point x="225" y="-314"/>
      <point x="333" y="-350"/>
      <point x="436" y="-350" type="curve" smooth="yes"/>
      <point x="606" y="-350"/>
      <point x="644" y="-311"/>
      <point x="671" y="-145" type="curve" smooth="yes"/>
      <point x="716" y="133" type="line"/>
      <point x="650" y="54"/>
      <point x="543" y="-20"/>
      <point x="413" y="-20" type="curve" smooth="yes"/>
      <point x="189" y="-20"/>
      <point x="83" y="162"/>
      <point x="83" y="412" type="curve" smooth="yes"/>
      <point x="83" y="719"/>
      <point x="320" y="1163"/>
      <point x="731" y="1163" type="curve" smooth="yes"/>
      <point x="813" y="1163"/>
      <point x="893" y="1142"/>
      <point x="948" y="1121" type="curve"/>
      <point x="1068" y="1163" type="line"/>
      <point x="875" y="-77" type="line" smooth="yes"/>
      <point x="826" y="-393"/>
      <point x="535" y="-508"/>
      <point x="338" y="-508" type="curve" smooth="yes"/>
      <point x="250" y="-508"/>
      <point x="159" y="-490"/>
      <point x="119" y="-473" type="curve"/>
    </contour>
    <contour>
      <point x="446" y="122" type="curve" smooth="yes"/>
      <point x="567" y="122"/>
      <point x="684" y="222"/>
      <point x="742" y="302" type="curve"/>
      <point x="843" y="1000" type="line"/>
      <point x="805" y="1031"/>
      <point x="755" y="1041"/>
      <point x="700" y="1041" type="curve" smooth="yes"/>
      <point x="414" y="1041"/>
      <point x="288" y="669"/>
      <point x="288" y="426" type="curve" smooth="yes"/>
      <point x="288" y="231"/>
      <point x="349" y="122"/>
    </contour>
    <contour>
      <point x="713" y="1300" type="curve" smooth="yes"/>
      <point x="527" y="1300"/>
      <point x="424" y="1473"/>
      <point x="424" y="1632" type="curve" smooth="yes"/>
      <point x="424" y="1638"/>
      <point x="424" y="1645"/>
      <point x="425" y="1651" type="curve"/>
      <point x="530" y="1651" type="line"/>
      <point x="531" y="1642"/>
      <point x="532" y="1631"/>
      <point x="534" y="1620" type="curve" smooth="yes"/>
      <point x="549" y="1551"/>
      <point x="592" y="1447"/>
      <point x="718" y="1447" type="curve" smooth="yes"/>
      <point x="865" y="1447"/>
      <point x="917" y="1591"/>
      <point x="940" y="1651" type="curve"/>
      <point x="1042" y="1651" type="line"/>
      <point x="1042" y="1640"/>
      <point x="1041" y="1629"/>
      <point x="1039" y="1618" type="curve" smooth="yes"/>
      <point x="1017" y="1463"/>
      <point x="881" y="1300"/>
    </contour>
  </outline>
</glyph>
<glyph name="Gdotaccent" format="1">
  <advance width="1342"/>
  <unicode hex="0120"/>
  <outline>
    <contour>
      <point x="601" y="-16" type="curve" smooth="yes"/>
      <point x="247" y="-16"/>
      <point x="107" y="317"/>
      <point x="102" y="627" type="curve" smooth="yes"/>
      <point x="92" y="1175"/>
      <point x="440" y="1546"/>
      <point x="838" y="1546" type="curve" smooth="yes"/>
      <point x="1042" y="1546"/>
      <point x="1167" y="1511"/>
      <point x="1239" y="1490" type="curve" smooth="yes"/>
      <point x="1277" y="1479" type="line"/>
      <point x="1220" y="1183" type="line"/>
      <point x="1093" y="1183" type="line"/>
      <point x="1071" y="1364" type="line"/>
      <point x="1030" y="1400"/>
      <point x="965" y="1428"/>
      <point x="814" y="1428" type="curve" smooth="yes"/>
      <point x="430" y="1428"/>
      <point x="305" y="946"/>
      <point x="310" y="648" type="curve" smooth="yes"/>
      <point x="315" y="386"/>
      <point x="410" y="101"/>
      <point x="660" y="101" type="curve" smooth="yes"/>
      <point x="752" y="101"/>
      <point x="876" y="115"/>
      <point x="952" y="195" type="curve"/>
      <point x="1009" y="590" type="line"/>
      <point x="775" y="607" type="line"/>
      <point x="788" y="723" type="line"/>
      <point x="1230" y="723" type="line"/>
      <point x="1140" y="94" type="line"/>
      <point x="1101" y="90"/>
      <point x="1067" y="77"/>
      <point x="1013" y="61" type="curve" smooth="yes"/>
      <point x="912" y="31"/>
      <point x="761" y="-16"/>
    </contour>
    <contour>
      <point x="839" y="1691" type="curve" smooth="yes"/>
      <point x="774" y="1691"/>
      <point x="721" y="1746"/>
      <point x="724" y="1810" type="curve" smooth="yes"/>
      <point x="727" y="1887"/>
      <point x="804" y="1954"/>
      <point x="868" y="1954" type="curve" smooth="yes"/>
      <point x="944" y="1954"/>
      <point x="994" y="1901"/>
      <point x="991" y="1838" type="curve" smooth="yes"/>
      <point x="988" y="1761"/>
      <point x="917" y="1691"/>
    </contour>
  </outline>
</glyph>
<glyph name="Hbar" format="1">
  <advance width="1533"/>
  <unicode hex="0126"/>
  <outline>
    <contour>
      <point x="20" y="0" type="line"/>
      <point x="29" y="86" type="line"/>
      <point x="177" y="116" type="line"/>
      <point x="286" y="992" type="line"/>
      <point x="92" y="992" type="line"/>
      <point x="106" y="1122" type="line"/>
      <point x="302" y="1122" type="line"/>
      <point x="338" y="1406" type="line"/>
      <point x="205" y="1429" type="line"/>
      <point x="217" y="1530" type="line"/>
      <point x="700" y="1530" type="line"/>
      <point x="689" y="1429" type="line"/>
      <point x="536" y="1406" type="line"/>
      <point x="500" y="1122" type="line"/>
      <point x="1154" y="1122" type="line"/>
      <point x="1190" y="1406" type="line"/>
      <point x="1040" y="1429" type="line"/>
      <point x="1050" y="1530" type="line"/>
      <point x="1537" y="1530" type="line"/>
      <point x="1525" y="1429" type="line"/>
      <point x="1387" y="1406" type="line"/>
      <point x="1351" y="1122" type="line"/>
      <point x="1555" y="1122" type="line"/>
      <point x="1541" y="992" type="line"/>
      <point x="1335" y="992" type="line"/>
      <point x="1227" y="117" type="line"/>
      <point x="1378" y="86" type="line"/>
      <point x="1369" y="0" type="line"/>
      <point x="859" y="0" type="line"/>
      <point x="867" y="87" type="line"/>
      <point x="1030" y="117" type="line"/>
      <point x="1092" y="622" type="line"/>
      <point x="438" y="622" type="line"/>
      <point x="375" y="116" type="line"/>
      <point x="532" y="87" type="line"/>
      <point x="524" y="0" type="line"/>
    </contour>
    <contour>
      <point x="454" y="752" type="line"/>
      <point x="1108" y="752" type="line"/>
      <point x="1138" y="992" type="line"/>
      <point x="484" y="992" type="line"/>
    </contour>
  </outline>
</glyph>
<glyph name="hbar" format="1">
  <advance width="1239"/>
  <unicode hex="0127"/>
  <outline>
    <contour>
      <point x="119" y="0" type="line"/>
      <point x="283" y="1262" type="line"/>
      <point x="126" y="1262" type="line"/>
      <point x="142" y="1392" type="line"/>
      <point x="300" y="1392" type="line"/>
      <point x="312" y="1482" type="line"/>
      <point x="194" y="1525" type="line"/>
      <point x="211" y="1608" type="line"/>
      <point x="477" y="1650" type="line"/>
      <point x="529" y="1623" type="line"/>
      <point x="498" y="1392" type="line"/>
      <point x="724" y="1392" type="line"/>
      <point x="708" y="1262" type="line"/>
      <point x="481" y="1262" type="line"/>
      <point x="434" y="911" type="line"/>
      <point x="539" y="1051"/>
      <point x="688" y="1163"/>
      <point x="846" y="1163" type="curve" smooth="yes"/>
      <point x="984" y="1163"/>
      <point x="1072" y="1087"/>
      <point x="1072" y="861" type="curve" smooth="yes"/>
      <point x="1072" y="761"/>
      <point x="1043" y="617"/>
      <point x="1021" y="505" type="curve"/>
      <point x="1004" y="403"/>
      <point x="984" y="289"/>
      <point x="976" y="186" type="curve"/>
      <point x="974" y="138"/>
      <point x="978" y="110"/>
      <point x="997" y="110" type="curve" smooth="yes"/>
      <point x="1018" y="110"/>
      <point x="1045" y="121"/>
      <point x="1104" y="166" type="curve"/>
      <point x="1135" y="114" type="line"/>
      <point x="1120" y="87"/>
      <point x="1011" y="-20"/>
      <point x="890" y="-20" type="curve" smooth="yes"/>
      <point x="810" y="-20"/>
      <point x="761" y="14"/>
      <point x="767" y="111" type="curve" smooth="yes"/>
      <point x="772" y="205"/>
      <point x="797" y="331"/>
      <point x="816" y="443" type="curve"/>
      <point x="838" y="560"/>
      <point x="872" y="725"/>
      <point x="872" y="850" type="curve" smooth="yes"/>
      <point x="872" y="994"/>
      <point x="819" y="1005"/>
      <point x="758" y="1005" type="curve" smooth="yes"/>
      <point x="653" y="1005"/>
      <point x="513" y="894"/>
      <point x="413" y="750" type="curve"/>
      <point x="313" y="0" type="line"/>
    </contour>
  </outline>
</glyph>
<glyph name="itilde" format="1">
  <advance width="641"/>
  <unicode hex="0129"/>
  <outline>
    <contour>
      <point x="163" y="112" type="curve" smooth="yes"/>
      <point x="175" y="273"/>
      <point x="233" y="596"/>
      <point x="288" y="980" type="curve"/>
      <point x="140" y="1031" type="line"/>
      <point x="158" y="1112" type="line"/>
      <point x="460" y="1163" type="line"/>
      <point x="509" y="1139" type="line"/>
      <point x="370" y="187" type="line" smooth="yes"/>
      <point x="363" y="138"/>
      <point x="371" y="111"/>
      <point x="392" y="111" type="curve" smooth="yes"/>
      <point x="413" y="111"/>
      <point x="442" y="124"/>
      <point x="499" y="178" type="curve"/>
      <point x="531" y="125" type="line"/>
      <point x="512" y="96"/>
      <point x="407" y="-20"/>
      <point x="286" y="-20" type="curve" smooth="yes"/>
      <point x="206" y="-20"/>
      <point x="156" y="15"/>
    </contour>
    <contour>
      <point x="139" y="1397" type="curve"/>
      <point x="92" y="1481" type="line"/>
      <point x="135" y="1567"/>
      <point x="235" y="1650"/>
      <point x="339" y="1650" type="curve" smooth="yes"/>
      <point x="472" y="1650"/>
      <point x="504" y="1510"/>
      <point x="596" y="1510" type="curve" smooth="yes"/>
      <point x="670" y="1510"/>
      <point x="712" y="1572"/>
      <point x="750" y="1620" type="curve"/>
      <point x="808" y="1529" type="line"/>
      <point x="774" y="1427"/>
      <point x="671" y="1348"/>
      <point x="557" y="1348" type="curve" smooth="yes"/>
      <point x="394" y="1348"/>
      <point x="397" y="1486"/>
      <point x="286" y="1488" type="curve" smooth="yes"/>
      <point x="241" y="1489"/>
      <point x="177" y="1437"/>
    </contour>
  </outline>
</glyph>
<glyph name="Imacron" format="1">
  <advance width="706"/>
  <unicode hex="012A"/>
  <outline>
    <contour>
      <point x="30" y="0" type="line"/>
      <point x="39" y="86" type="line"/>
      <point x="187" y="116" type="line"/>
      <point x="348" y="1406" type="line"/>
      <point x="215" y="1429" type="line"/>
      <point x="227" y="1530" type="line"/>
      <point x="710" y="1530" type="line"/>
      <point x="699" y="1429" type="line"/>
      <point x="546" y="1406" type="line"/>
      <point x="385" y="116" type="line"/>
      <point x="542" y="87" type="line"/>
      <point x="534" y="0" type="line"/>
    </contour>
    <contour>
      <point x="242" y="1729" type="line"/>
      <point x="246" y="1878" type="line"/>
      <point x="756" y="1878" type="line"/>
      <point x="751" y="1729" type="line"/>
    </contour>
  </outline>
</glyph>
<glyph name="ibreve" format="1">
  <advance width="641"/>
  <unicode hex="012D"/>
  <outline>
    <contour>
      <point x="163" y="112" type="curve" smooth="yes"/>
      <point x="175" y="273"/>
      <point x="233" y="596"/>
      <point x="288" y="980" type="curve"/>
      <point x="140" y="1031" type="line"/>
      <point x="158" y="1112" type="line"/>
      <point x="460" y="1163" type="line"/>
      <point x="509" y="1139" type="line"/>
      <point x="370" y="187" type="line" smooth="yes"/>
      <point x="363" y="138"/>
      <point x="371" y="111"/>
      <point x="392" y="111" type="curve" smooth="yes"/>
      <point x="413" y="111"/>
      <point x="442" y="124"/>
      <point x="499" y="178" type="curve"/>
      <point x="531" y="125" type="line"/>
      <point x="512" y="96"/>
      <point x="407" y="-20"/>
      <point x="286" y="-20" type="curve" smooth="yes"/>
      <point x="206" y="-20"/>
      <point x="156" y="15"/>
    </contour>
    <contour>
      <point x="438" y="1300" type="curve" smooth="yes"/>
      <point x="252" y="1300"/>
      <point x="149" y="1473"/>
      <point x="149" y="1632" type="curve" smooth="yes"/>
      <point x="149" y="1638"/>
      <point x="149" y="1645"/>
      <point x="150" y="1651" type="curve"/>
      <point x="255" y="1651" type="line"/>
      <point x="256" y="1642"/>
      <point x="257" y="1631"/>
      <point x="259" y="1620" type="curve" smooth="yes"/>
      <point x="274" y="1551"/>
      <point x="317" y="1447"/>
      <point x="443" y="1447" type="curve" smooth="yes"/>
      <point x="590" y="1447"/>
      <point x="642" y="1591"/>
      <point x="665" y="1651" type="curve"/>
      <point x="767" y="1651" type="line"/>
      <point x="767" y="1640"/>
      <point x="766" y="1629"/>
      <point x="764" y="1618" type="curve" smooth="yes"/>
      <point x="742" y="1463"/>
      <point x="606" y="1300"/>
    </contour>
  </outline>
</glyph>
<glyph name="iogonek" format="1">
  <advance width="641"/>
  <unicode hex="012F"/>
  <outline>
    <contour>
      <point x="432" y="1388" type="curve" smooth="yes"/>
      <point x="367" y="1388"/>
      <point x="314" y="1443"/>
      <point x="317" y="1508" type="curve" smooth="yes"/>
      <point x="320" y="1585"/>
      <point x="397" y="1651"/>
      <point x="461" y="1651" type="curve" smooth="yes"/>
      <point x="538" y="1651"/>
      <point x="586" y="1598"/>
      <point x="583" y="1536" type="curve" smooth="yes"/>
      <point x="580" y="1458"/>
      <point x="510" y="1388"/>
    </contour>
    <contour>
      <point x="77" y="-156" type="curve" smooth="yes"/>
      <point x="131" y="-84"/>
      <point x="189" y="-48"/>
      <point x="245" y="-16" type="curve"/>
      <point x="190" y="-5"/>
      <point x="157" y="32"/>
      <point x="163" y="112" type="curve" smooth="yes"/>
      <point x="175" y="273"/>
      <point x="233" y="596"/>
      <point x="288" y="980" type="curve"/>
      <point x="140" y="1031" type="line"/>
      <point x="158" y="1112" type="line"/>
      <point x="460" y="1163" type="line"/>
      <point x="509" y="1139" type="line"/>
      <point x="370" y="187" type="line" smooth="yes"/>
      <point x="363" y="138"/>
      <point x="371" y="111"/>
      <point x="392" y="111" type="curve" smooth="yes"/>
      <point x="413" y="111"/>
      <point x="442" y="124"/>
      <point x="499" y="178" type="curve"/>
      <point x="531" y="125" type="line"/>
      <point x="519" y="107"/>
      <point x="475" y="56"/>
      <point x="415" y="20" type="curve"/>
      <point x="313" y="-61"/>
      <point x="232" y="-132"/>
      <point x="230" y="-201" type="curve"/>
      <point x="226" y="-266"/>
      <point x="260" y="-287"/>
      <point x="283" y="-287" type="curve" smooth="yes"/>
      <point x="319" y="-287"/>
      <point x="357" y="-272"/>
      <point x="413" y="-228" type="curve"/>
      <point x="439" y="-322" type="line"/>
      <point x="387" y="-368"/>
      <point x="305" y="-416"/>
      <point x="189" y="-416" type="curve" smooth="yes"/>
      <point x="82" y="-416"/>
      <point x="33" y="-343"/>
      <point x="36" y="-280" type="curve" smooth="yes"/>
      <point x="38" y="-238"/>
      <point x="52" y="-188"/>
    </contour>
  </outline>
</glyph>
<glyph name="Idotaccent" format="1">
  <advance width="706"/>
  <unicode hex="0130"/>
  <outline>
    <contour>
      <point x="30" y="0" type="line"/>
      <point x="39" y="86" type="line"/>
      <point x="187" y="116" type="line"/>
      <point x="348" y="1406" type="line"/>
      <point x="215" y="1429" type="line"/>
      <point x="227" y="1530" type="line"/>
      <point x="710" y="1530" type="line"/>
      <point x="699" y="1429" type="line"/>
      <point x="546" y="1406" type="line"/>
      <point x="385" y="116" type="line"/>
      <point x="542" y="87" type="line"/>
      <point x="534" y="0" type="line"/>
    </contour>
    <contour>
      <point x="509" y="1691" type="curve" smooth="yes"/>
      <point x="444" y="1691"/>
      <point x="391" y="1746"/>
      <point x="394" y="1810" type="curve" smooth="yes"/>
      <point x="397" y="1887"/>
      <point x="474" y="1954"/>
      <point x="538" y="1954" type="curve" smooth="yes"/>
      <point x="614" y="1954"/>
      <point x="664" y="1901"/>
      <point x="661" y="1838" type="curve" smooth="yes"/>
      <point x="658" y="1761"/>
      <point x="587" y="1691"/>
    </contour>
  </outline>
</glyph>
<glyph name="IJ" format="1">
  <advance width="1437"/>
  <unicode hex="0132"/>
  <outline>
    <contour>
      <point x="30" y="0" type="line"/>
      <point x="39" y="86" type="line"/>
      <point x="187" y="116" type="line"/>
      <point x="348" y="1406" type="line"/>
      <point x="215" y="1429" type="line"/>
      <point x="227" y="1530" type="line"/>
      <point x="710" y="1530" type="line"/>
      <point x="699" y="1429" type="line"/>
      <point x="546" y="1406" type="line"/>
      <point x="385" y="116" type="line"/>
      <point x="542" y="87" type="line"/>
      <point x="534" y="0" type="line"/>
    </contour>
    <contour>
      <point x="913" y="86" type="curve" smooth="yes"/>
      <point x="999" y="476"/>
      <point x="1023" y="972"/>
      <point x="1074" y="1407" type="curve"/>
      <point x="933" y="1429" type="line"/>
      <point x="947" y="1530" type="line"/>
      <point x="1431" y="1530" type="line"/>
      <point x="1420" y="1429" type="line"/>
      <point x="1265" y="1408" type="line"/>
      <point x="1193" y="737"/>
      <point x="1136" y="170"/>
      <point x="1105" y="75" type="curve" smooth="yes"/>
      <point x="1019" y="-197"/>
      <point x="792" y="-311"/>
      <point x="591" y="-345" type="curve"/>
      <point x="556" y="-257" type="line"/>
      <point x="734" y="-206"/>
      <point x="884" y="-44"/>
    </contour>
  </outline>
</glyph>
<glyph name="ij" format="1">
  <advance width="1288"/>
  <unicode hex="0133"/>
  <outline>
    <contour>
      <point x="432" y="1388" type="curve" smooth="yes"/>
      <point x="367" y="1388"/>
      <point x="314" y="1443"/>
      <point x="317" y="1508" type="curve" smooth="yes"/>
      <point x="320" y="1585"/>
      <point x="397" y="1651"/>
      <point x="461" y="1651" type="curve" smooth="yes"/>
      <point x="538" y="1651"/>
      <point x="586" y="1598"/>
      <point x="583" y="1536" type="curve" smooth="yes"/>
      <point x="580" y="1458"/>
      <point x="510" y="1388"/>
    </contour>
    <contour>
      <point x="163" y="112" type="curve" smooth="yes"/>
      <point x="175" y="273"/>
      <point x="233" y="596"/>
      <point x="288" y="980" type="curve"/>
      <point x="140" y="1031" type="line"/>
      <point x="158" y="1112" type="line"/>
      <point x="460" y="1163" type="line"/>
      <point x="509" y="1139" type="line"/>
      <point x="370" y="187" type="line" smooth="yes"/>
      <point x="363" y="138"/>
      <point x="371" y="111"/>
      <point x="392" y="111" type="curve" smooth="yes"/>
      <point x="413" y="111"/>
      <point x="442" y="124"/>
      <point x="499" y="178" type="curve"/>
      <point x="531" y="125" type="line"/>
      <point x="512" y="96"/>
      <point x="407" y="-20"/>
      <point x="286" y="-20" type="curve" smooth="yes"/>
      <point x="206" y="-20"/>
      <point x="156" y="15"/>
    </contour>
    <contour>
      <point x="829" y="65" type="curve" smooth="yes"/>
      <point x="927" y="980" type="line"/>
      <point x="771" y="1031" type="line"/>
      <point x="789" y="1112" type="line"/>
      <point x="1100" y="1163" type="line"/>
      <point x="1148" y="1139" type="line"/>
      <point x="1018" y="0" type="line" smooth="yes"/>
      <point x="979" y="-340"/>
      <point x="800" y="-518"/>
      <point x="572" y="-518" type="curve" smooth="yes"/>
      <point x="509" y="-518"/>
      <point x="454" y="-505"/>
      <point x="432" y="-481" type="curve"/>
      <point x="467" y="-400" type="line"/>
      <point x="485" y="-408"/>
      <point x="526" y="-412"/>
      <point x="537" y="-412" type="curve" smooth="yes"/>
      <point x="731" y="-412"/>
      <point x="803" y="-176"/>
    </contour>
    <contour>
      <point x="1073" y="1388" type="curve" smooth="yes"/>
      <point x="1008" y="1388"/>
      <point x="955" y="1443"/>
      <point x="958" y="1508" type="curve" smooth="yes"/>
      <point x="961" y="1585"/>
      <point x="1038" y="1651"/>
      <point x="1102" y="1651" type="curve" smooth="yes"/>
      <point x="1179" y="1651"/>
      <point x="1227" y="1598"/>
      <point x="1224" y="1536" type="curve" smooth="yes"/>
      <point x="1221" y="1458"/>
      <point x="1151" y="1388"/>
    </contour>
  </outline>
</glyph>
<glyph name="Jcircumflex" format="1">
  <advance width="731"/>
  <unicode hex="0134"/>
  <outline>
    <contour>
      <point x="207" y="86" type="curve" smooth="yes"/>
      <point x="293" y="476"/>
      <point x="317" y="972"/>
      <point x="368" y="1407" type="curve"/>
      <point x="227" y="1429" type="line"/>
      <point x="241" y="1530" type="line"/>
      <point x="725" y="1530" type="line"/>
      <point x="714" y="1429" type="line"/>
      <point x="559" y="1408" type="line"/>
      <point x="487" y="737"/>
      <point x="430" y="170"/>
      <point x="399" y="75" type="curve" smooth="yes"/>
      <point x="313" y="-197"/>
      <point x="86" y="-311"/>
      <point x="-115" y="-345" type="curve"/>
      <point x="-150" y="-257" type="line"/>
      <point x="28" y="-206"/>
      <point x="178" y="-44"/>
    </contour>
    <contour>
      <point x="231" y="1614" type="line"/>
      <point x="170" y="1672" type="line"/>
      <point x="475" y="2000" type="line"/>
      <point x="652" y="2000" type="line"/>
      <point x="864" y="1672" type="line"/>
      <point x="796" y="1613" type="line"/>
      <point x="555" y="1842" type="line"/>
    </contour>
  </outline>
</glyph>
<glyph name="kcommaaccent" format="1">
  <advance width="1078"/>
  <unicode hex="0137"/>
  <outline>
    <contour>
      <point x="105" y="0" type="line"/>
      <point x="298" y="1482" type="line"/>
      <point x="181" y="1525" type="line"/>
      <point x="197" y="1608" type="line"/>
      <point x="463" y="1650" type="line"/>
      <point x="515" y="1623" type="line"/>
      <point x="299" y="0" type="line"/>
    </contour>
    <contour>
      <point x="681" y="88" type="curve" smooth="yes"/>
      <point x="396" y="610" type="line"/>
      <point x="398" y="611" type="line"/>
      <point x="396" y="611" type="line"/>
      <point x="531" y="716"/>
      <point x="637" y="777"/>
      <point x="733" y="906" type="curve" smooth="yes"/>
      <point x="776" y="964"/>
      <point x="779" y="1013"/>
      <point x="787" y="1055" type="curve" smooth="yes"/>
      <point x="801" y="1129"/>
      <point x="867" y="1163"/>
      <point x="922" y="1163" type="curve" smooth="yes"/>
      <point x="978" y="1163"/>
      <point x="1026" y="1123"/>
      <point x="1028" y="1066" type="curve" smooth="yes"/>
      <point x="1029" y="1034"/>
      <point x="1019" y="996"/>
      <point x="993" y="958" type="curve" smooth="yes"/>
      <point x="899" y="821"/>
      <point x="672" y="683"/>
      <point x="569" y="620" type="curve"/>
      <point x="831" y="216" type="line" smooth="yes"/>
      <point x="867" y="161"/>
      <point x="917" y="121"/>
      <point x="947" y="121" type="curve" smooth="yes"/>
      <point x="973" y="121"/>
      <point x="1015" y="139"/>
      <point x="1058" y="180" type="curve"/>
      <point x="1092" y="119" type="line"/>
      <point x="1054" y="57"/>
      <point x="948" y="-20"/>
      <point x="837" y="-20" type="curve" smooth="yes"/>
      <point x="783" y="-20"/>
      <point x="724" y="10"/>
    </contour>
    <contour>
      <point x="498" y="-51" type="line"/>
      <point x="588" y="-70"/>
      <point x="640" y="-173"/>
      <point x="630" y="-275" type="curve" smooth="yes"/>
      <point x="614" y="-426"/>
      <point x="478" y="-542"/>
      <point x="399" y="-560" type="curve"/>
      <point x="359" y="-520" type="line"/>
      <point x="362" y="-494" type="line"/>
      <point x="412" y="-455"/>
      <point x="433" y="-415"/>
      <point x="440" y="-343" type="curve" smooth="yes"/>
      <point x="445" y="-296"/>
      <point x="411" y="-234"/>
      <point x="368" y="-225" type="curve"/>
      <point x="374" y="-171" type="line"/>
    </contour>
  </outline>
</glyph>
<glyph name="Lacute" format="1">
  <advance width="1168"/>
  <unicode hex="0139"/>
  <outline>
    <contour>
      <point x="21" y="0" type="line"/>
      <point x="29" y="87" type="line"/>
      <point x="177" y="116" type="line"/>
      <point x="338" y="1406" type="line"/>
      <point x="205" y="1429" type="line"/>
      <point x="217" y="1530" type="line"/>
      <point x="735" y="1530" type="line"/>
      <point x="724" y="1429" type="line"/>
      <point x="536" y="1406" type="line"/>
      <point x="375" y="116" type="line"/>
      <point x="843" y="127" type="line"/>
      <point x="979" y="454" type="line"/>
      <point x="1096" y="431" type="line"/>
      <point x="1000" y="0" type="line"/>
    </contour>
    <contour>
      <point x="491" y="1615" type="curve"/>
      <point x="438" y="1660" type="line"/>
      <point x="714" y="2002" type="line"/>
      <point x="838" y="1864" type="line"/>
      <point x="786" y="1753"/>
      <point x="587" y="1651"/>
    </contour>
  </outline>
</glyph>
<glyph name="lcommaaccent" format="1">
  <advance width="606"/>
  <unicode hex="013C"/>
  <outline>
    <contour>
      <point x="142" y="115" type="curve" smooth="yes"/>
      <point x="142" y="133"/>
      <point x="144" y="167"/>
      <point x="148" y="192" type="curve" smooth="yes"/>
      <point x="332" y="1482" type="line"/>
      <point x="209" y="1525" type="line"/>
      <point x="230" y="1608" type="line"/>
      <point x="492" y="1650" type="line"/>
      <point x="540" y="1623" type="line"/>
      <point x="338" y="187" type="line" smooth="yes"/>
      <point x="331" y="139"/>
      <point x="340" y="111"/>
      <point x="359" y="111" type="curve" smooth="yes"/>
      <point x="379" y="111"/>
      <point x="407" y="121"/>
      <point x="467" y="177" type="curve"/>
      <point x="498" y="125" type="line"/>
      <point x="481" y="96"/>
      <point x="376" y="-20"/>
      <point x="257" y="-20" type="curve" smooth="yes"/>
      <point x="177" y="-20"/>
      <point x="142" y="18"/>
    </contour>
    <contour>
      <point x="194" y="-51" type="line"/>
      <point x="284" y="-70"/>
      <point x="336" y="-173"/>
      <point x="326" y="-275" type="curve" smooth="yes"/>
      <point x="310" y="-426"/>
      <point x="174" y="-542"/>
      <point x="95" y="-560" type="curve"/>
      <point x="55" y="-520" type="line"/>
      <point x="58" y="-494" type="line"/>
      <point x="108" y="-455"/>
      <point x="129" y="-415"/>
      <point x="136" y="-343" type="curve" smooth="yes"/>
      <point x="141" y="-296"/>
      <point x="107" y="-234"/>
      <point x="64" y="-225" type="curve"/>
      <point x="70" y="-171" type="line"/>
    </contour>
  </outline>
</glyph>
<glyph name="lcaron" format="1">
  <advance width="758"/>
  <unicode hex="013E"/>
  <outline>
    <contour>
      <point x="142" y="117" type="curve" smooth="yes"/>
      <point x="142" y="135"/>
      <point x="144" y="169"/>
      <point x="148" y="194" type="curve" smooth="yes"/>
      <point x="332" y="1484" type="line"/>
      <point x="209" y="1527" type="line"/>
      <point x="230" y="1610" type="line"/>
      <point x="492" y="1652" type="line"/>
      <point x="540" y="1625" type="line"/>
      <point x="338" y="189" type="line" smooth="yes"/>
      <point x="331" y="141"/>
      <point x="340" y="113"/>
      <point x="359" y="113" type="curve" smooth="yes"/>
      <point x="379" y="113"/>
      <point x="407" y="123"/>
      <point x="467" y="179" type="curve"/>
      <point x="498" y="127" type="line"/>
      <point x="481" y="98"/>
      <point x="376" y="-18"/>
      <point x="257" y="-18" type="curve" smooth="yes"/>
      <point x="177" y="-18"/>
      <point x="142" y="20"/>
    </contour>
    <contour>
      <point x="720" y="1015" type="curve"/>
      <point x="660" y="1045" type="line"/>
      <point x="654" y="1070" type="line"/>
      <point x="674" y="1153"/>
      <point x="693" y="1253"/>
      <point x="705" y="1361" type="curve" smooth="yes"/>
      <point x="713" y="1436"/>
      <point x="694" y="1532"/>
      <point x="674" y="1562" type="curve"/>
      <point x="693" y="1604" type="line"/>
      <point x="850" y="1650" type="line"/>
      <point x="884" y="1613"/>
      <point x="888" y="1517"/>
      <point x="878" y="1421" type="curve" smooth="yes"/>
      <point x="859" y="1244"/>
      <point x="786" y="1095"/>
    </contour>
  </outline>
</glyph>
<glyph name="lslash" format="1">
  <advance width="606"/>
  <unicode hex="0142"/>
  <outline>
    <contour>
      <point x="142" y="115" type="curve" smooth="yes"/>
      <point x="142" y="133"/>
      <point x="144" y="167"/>
      <point x="148" y="192" type="curve" smooth="yes"/>
      <point x="229" y="760" type="line"/>
      <point x="85" y="704" type="line"/>
      <point x="85" y="841" type="line"/>
      <point x="250" y="908" type="line"/>
      <point x="332" y="1482" type="line"/>
      <point x="209" y="1525" type="line"/>
      <point x="230" y="1608" type="line"/>
      <point x="492" y="1650" type="line"/>
      <point x="540" y="1623" type="line"/>
      <point x="451" y="991" type="line"/>
      <point x="619" y="1060" type="line"/>
      <point x="619" y="913" type="line"/>
      <point x="429" y="839" type="line"/>
      <point x="338" y="187" type="line" smooth="yes"/>
      <point x="331" y="139"/>
      <point x="340" y="111"/>
      <point x="359" y="111" type="curve" smooth="yes"/>
      <point x="379" y="111"/>
      <point x="407" y="121"/>
      <point x="467" y="177" type="curve"/>
      <point x="498" y="125" type="line"/>
      <point x="481" y="96"/>
      <point x="376" y="-20"/>
      <point x="257" y="-20" type="curve" smooth="yes"/>
      <point x="177" y="-20"/>
      <point x="142" y="18"/>
    </contour>
  </outline>
</glyph>
<glyph name="Nacute" format="1">
  <advance width="1517"/>
  <unicode hex="0143"/>
  <outline>
    <contour>
      <point x="34" y="0" type="line"/>
      <point x="42" y="86" type="line"/>
      <point x="178" y="114" type="line"/>
      <point x="347" y="1406" type="line"/>
      <point x="201" y="1429" type="line"/>
      <point x="218" y="1530" type="line"/>
      <point x="557" y="1530" type="line"/>
      <point x="1025" y="418" type="line"/>
      <point x="1096" y="185" type="line"/>
      <point x="1240" y="1407" type="line"/>
      <point x="1090" y="1429" type="line"/>
      <point x="1102" y="1530" type="line"/>
      <point x="1553" y="1530" type="line"/>
      <point x="1543" y="1429" type="line"/>
      <point x="1397" y="1406" type="line"/>
      <point x="1194" y="0" type="line"/>
      <point x="1006" y="0" type="line"/>
      <point x="533" y="1115" type="line"/>
      <point x="472" y="1336" type="line"/>
      <point x="345" y="116" type="line"/>
      <point x="505" y="87" type="line"/>
      <point x="497" y="0" type="line"/>
    </contour>
    <contour>
      <point x="918" y="1613" type="curve"/>
      <point x="865" y="1658" type="line"/>
      <point x="1141" y="2000" type="line"/>
      <point x="1265" y="1862" type="line"/>
      <point x="1213" y="1751"/>
      <point x="1014" y="1649"/>
    </contour>
  </outline>
</glyph>
<glyph name="Ncommaaccent" format="1">
  <advance width="1517"/>
  <unicode hex="0145"/>
  <outline>
    <contour>
      <point x="34" y="0" type="line"/>
      <point x="42" y="86" type="line"/>
      <point x="178" y="114" type="line"/>
      <point x="347" y="1406" type="line"/>
      <point x="201" y="1429" type="line"/>
      <point x="218" y="1530" type="line"/>
      <point x="557" y="1530" type="line"/>
      <point x="1025" y="418" type="line"/>
      <point x="1096" y="185" type="line"/>
      <point x="1240" y="1407" type="line"/>
      <point x="1090" y="1429" type="line"/>
      <point x="1102" y="1530" type="line"/>
      <point x="1553" y="1530" type="line"/>
      <point x="1543" y="1429" type="line"/>
      <point x="1397" y="1406" type="line"/>
      <point x="1194" y="0" type="line"/>
      <point x="1006" y="0" type="line"/>
      <point x="533" y="1115" type="line"/>
      <point x="472" y="1336" type="line"/>
      <point x="345" y="116" type="line"/>
      <point x="505" y="87" type="line"/>
      <point x="497" y="0" type="line"/>
    </contour>
    <contour>
      <point x="681" y="-51" type="line"/>
      <point x="771" y="-70"/>
      <point x="823" y="-173"/>
      <point x="813" y="-275" type="curve" smooth="yes"/>
      <point x="797" y="-426"/>
      <point x="661" y="-542"/>
      <point x="582" y="-560" type="curve"/>
      <point x="542" y="-520" type="line"/>
      <point x="545" y="-494" type="line"/>
      <point x="595" y="-455"/>
      <point x="616" y="-415"/>
      <point x="623" y="-343" type="curve" smooth="yes"/>
      <point x="628" y="-296"/>
      <point x="594" y="-234"/>
      <point x="551" y="-225" type="curve"/>
      <point x="557" y="-171" type="line"/>
    </contour>
  </outline>
</glyph>
<glyph name="Eng" format="1">
  <advance width="1516"/>
  <unicode hex="014A"/>
  <outline>
    <contour>
      <point x="33" y="0" type="line"/>
      <point x="41" y="86" type="line"/>
      <point x="177" y="114" type="line"/>
      <point x="351" y="1406" type="line"/>
      <point x="199" y="1429" type="line"/>
      <point x="216" y="1530" type="line"/>
      <point x="557" y="1530" type="line"/>
      <point x="1033" y="418" type="line"/>
      <point x="1094" y="225" type="line"/>
      <point x="1229" y="1407" type="line"/>
      <point x="1089" y="1429" type="line"/>
      <point x="1101" y="1530" type="line"/>
      <point x="1548" y="1530" type="line"/>
      <point x="1538" y="1429" type="line"/>
      <point x="1392" y="1406" type="line"/>
      <point x="1194" y="0" type="line" smooth="yes"/>
      <point x="1160" y="-239"/>
      <point x="917" y="-329"/>
      <point x="731" y="-365" type="curve"/>
      <point x="696" y="-277" type="line"/>
      <point x="835" y="-228"/>
      <point x="980" y="-137"/>
      <point x="1006" y="0" type="curve"/>
      <point x="528" y="1095" type="line"/>
      <point x="471" y="1278" type="line"/>
      <point x="350" y="116" type="line"/>
      <point x="504" y="87" type="line"/>
      <point x="496" y="0" type="line"/>
    </contour>
  </outline>
</glyph>
<glyph name="eng" format="1">
  <advance width="1262"/>
  <unicode hex="014B"/>
  <outline>
    <contour>
      <point x="135" y="0" type="line"/>
      <point x="263" y="943" type="line"/>
      <point x="271" y="941" type="line"/>
      <point x="164" y="1005" type="line"/>
      <point x="182" y="1094" type="line"/>
      <point x="424" y="1146" type="line"/>
      <point x="472" y="1122" type="line"/>
      <point x="455" y="926" type="line"/>
      <point x="562" y="1058"/>
      <point x="714" y="1162"/>
      <point x="863" y="1162" type="curve" smooth="yes"/>
      <point x="1001" y="1162"/>
      <point x="1098" y="1087"/>
      <point x="1089" y="861" type="curve" smooth="yes"/>
      <point x="1079" y="611"/>
      <point x="1034" y="265"/>
      <point x="981" y="0" type="curve" smooth="yes"/>
      <point x="911" y="-349"/>
      <point x="759" y="-518"/>
      <point x="531" y="-518" type="curve" smooth="yes"/>
      <point x="468" y="-518"/>
      <point x="413" y="-505"/>
      <point x="391" y="-481" type="curve"/>
      <point x="426" y="-400" type="line"/>
      <point x="444" y="-408"/>
      <point x="485" y="-412"/>
      <point x="496" y="-412" type="curve" smooth="yes"/>
      <point x="690" y="-412"/>
      <point x="755" y="-173"/>
      <point x="798" y="65" type="curve" smooth="yes"/>
      <point x="806" y="110"/>
      <point x="886" y="602"/>
      <point x="889" y="850" type="curve" smooth="yes"/>
      <point x="891" y="994"/>
      <point x="846" y="1005"/>
      <point x="775" y="1005" type="curve" smooth="yes"/>
      <point x="673" y="1005"/>
      <point x="533" y="896"/>
      <point x="432" y="755" type="curve"/>
      <point x="330" y="0" type="line"/>
    </contour>
  </outline>
</glyph>
<glyph name="Omacron" format="1">
  <advance width="1386"/>
  <unicode hex="014C"/>
  <outline>
    <contour>
      <point x="619" y="-20" type="curve" smooth="yes"/>
      <point x="314" y="-20"/>
      <point x="114" y="240"/>
      <point x="107" y="641" type="curve" smooth="yes"/>
      <point x="97" y="1175"/>
      <point x="418" y="1550"/>
      <point x="810" y="1550" type="curve" smooth="yes"/>
      <point x="1135" y="1550"/>
      <point x="1300" y="1245"/>
      <point x="1306" y="892" type="curve" smooth="yes"/>
      <point x="1315" y="371"/>
      <point x="1017" y="-20"/>
    </contour>
    <contour>
      <point x="647" y="100" type="curve" smooth="yes"/>
      <point x="909" y="98"/>
      <point x="1113" y="414"/>
      <point x="1105" y="854" type="curve" smooth="yes"/>
      <point x="1099" y="1220"/>
      <point x="987" y="1425"/>
      <point x="776" y="1425" type="curve" smooth="yes"/>
      <point x="515" y="1425"/>
      <point x="304" y="1128"/>
      <point x="311" y="730" type="curve" smooth="yes"/>
      <point x="318" y="353"/>
      <point x="400" y="102"/>
    </contour>
    <contour>
      <point x="573" y="1729" type="line"/>
      <point x="577" y="1878" type="line"/>
      <point x="1087" y="1878" type="line"/>
      <point x="1082" y="1729" type="line"/>
    </contour>
  </outline>
</glyph>
<glyph name="OE" format="1">
  <advance width="2216"/>
  <unicode hex="0152"/>
  <outline>
    <contour>
      <point x="618" y="-20" type="curve" smooth="yes"/>
      <point x="313" y="-20"/>
      <point x="109" y="220"/>
      <point x="102" y="621" type="curve" smooth="yes"/>
      <point x="92" y="1155"/>
      <point x="413" y="1547"/>
      <point x="805" y="1547" type="curve" smooth="yes"/>
      <point x="1016" y="1547"/>
      <point x="1157" y="1413"/>
      <point x="1228" y="1216" type="curve"/>
      <point x="1267" y="1530" type="line"/>
      <point x="2056" y="1530" type="line"/>
      <point x="2049" y="1220" type="line"/>
      <point x="1943" y="1220" type="line"/>
      <point x="1895" y="1408" type="line"/>
      <point x="1454" y="1422" type="line"/>
      <point x="1382" y="854" type="line"/>
      <point x="1819" y="861" type="line"/>
      <point x="1807" y="705" type="line"/>
      <point x="1370" y="721" type="line"/>
      <point x="1287" y="116" type="line"/>
      <point x="1844" y="140" type="line"/>
      <point x="1963" y="347" type="line"/>
      <point x="2067" y="316" type="line"/>
      <point x="1978" y="0" type="line"/>
      <point x="1076" y="0" type="line"/>
      <point x="1108" y="262" type="line"/>
      <point x="989" y="87"/>
      <point x="817" y="-20"/>
    </contour>
    <contour>
      <point x="646" y="100" type="curve" smooth="yes"/>
      <point x="908" y="98"/>
      <point x="1106" y="424"/>
      <point x="1099" y="864" type="curve" smooth="yes"/>
      <point x="1093" y="1252"/>
      <point x="982" y="1422"/>
      <point x="771" y="1422" type="curve" smooth="yes"/>
      <point x="510" y="1422"/>
      <point x="299" y="1108"/>
      <point x="306" y="710" type="curve" smooth="yes"/>
      <point x="313" y="333"/>
      <point x="399" y="102"/>
    </contour>
  </outline>
</glyph>
<glyph name="oe" format="1">
  <advance width="1778"/>
  <unicode hex="0153"/>
  <outline>
    <contour>
      <point x="87" y="439" type="curve" smooth="yes"/>
      <point x="81" y="802"/>
      <point x="318" y="1162"/>
      <point x="654" y="1162" type="curve" smooth="yes"/>
      <point x="821" y="1162"/>
      <point x="939" y="1088"/>
      <point x="1001" y="954" type="curve"/>
      <point x="1104" y="1080"/>
      <point x="1244" y="1162"/>
      <point x="1403" y="1162" type="curve" smooth="yes"/>
      <point x="1595" y="1162"/>
      <point x="1687" y="1054"/>
      <point x="1687" y="913" type="curve" smooth="yes"/>
      <point x="1687" y="603"/>
      <point x="1212" y="466"/>
      <point x="1022" y="460" type="curve"/>
      <point x="1008" y="333"/>
      <point x="1055" y="119"/>
      <point x="1237" y="119" type="curve" smooth="yes"/>
      <point x="1337" y="119"/>
      <point x="1462" y="158"/>
      <point x="1577" y="265" type="curve"/>
      <point x="1623" y="182" type="line"/>
      <point x="1566" y="103"/>
      <point x="1407" y="-20"/>
      <point x="1213" y="-20" type="curve" smooth="yes"/>
      <point x="1043" y="-20"/>
      <point x="931" y="60"/>
      <point x="869" y="173" type="curve"/>
      <point x="771" y="56"/>
      <point x="637" y="-20"/>
      <point x="483" y="-20" type="curve" smooth="yes"/>
      <point x="230" y="-20"/>
      <point x="92" y="148"/>
    </contour>
    <contour>
      <point x="1027" y="570" type="curve"/>
      <point x="1189" y="577"/>
      <point x="1482" y="693"/>
      <point x="1482" y="896" type="curve" smooth="yes"/>
      <point x="1482" y="1001"/>
      <point x="1430" y="1046"/>
      <point x="1356" y="1046" type="curve" smooth="yes"/>
      <point x="1152" y="1046"/>
      <point x="1047" y="738"/>
    </contour>
    <contour>
      <point x="518" y="102" type="curve" smooth="yes"/>
      <point x="672" y="102"/>
      <point x="769" y="259"/>
      <point x="813" y="440" type="curve"/>
      <point x="816" y="504"/>
      <point x="825" y="568"/>
      <point x="841" y="629" type="curve"/>
      <point x="849" y="798"/>
      <point x="821" y="1041"/>
      <point x="618" y="1041" type="curve" smooth="yes"/>
      <point x="390" y="1041"/>
      <point x="289" y="698"/>
      <point x="294" y="441" type="curve"/>
      <point x="297" y="230"/>
      <point x="372" y="102"/>
    </contour>
  </outline>
</glyph>
<glyph name="Rcaron" format="1">
  <advance width="1338"/>
  <unicode hex="0158"/>
  <outline>
    <contour>
      <point x="40" y="0" type="line"/>
      <point x="49" y="86" type="line"/>
      <point x="177" y="116" type="line"/>
      <point x="338" y="1406" type="line"/>
      <point x="205" y="1429" type="line"/>
      <point x="217" y="1530" type="line"/>
      <point x="403" y="1530" type="line" smooth="yes"/>
      <point x="497" y="1530"/>
      <point x="604" y="1546"/>
      <point x="702" y="1546" type="curve" smooth="yes"/>
      <point x="1038" y="1546"/>
      <point x="1197" y="1433"/>
      <point x="1202" y="1198" type="curve" smooth="yes"/>
      <point x="1207" y="956"/>
      <point x="1069" y="763"/>
      <point x="825" y="695" type="curve"/>
      <point x="913" y="640"/>
      <point x="955" y="536"/>
      <point x="988" y="448" type="curve" smooth="yes"/>
      <point x="1090" y="170"/>
      <point x="1140" y="92"/>
      <point x="1278" y="98" type="curve"/>
      <point x="1274" y="-1" type="line"/>
      <point x="1048" y="1" type="line"/>
      <point x="1002" y="0"/>
      <point x="947" y="73"/>
      <point x="857" y="306" type="curve" smooth="yes"/>
      <point x="788" y="486"/>
      <point x="722" y="685"/>
      <point x="608" y="671" type="curve"/>
      <point x="608" y="671"/>
      <point x="483" y="670"/>
      <point x="430" y="670" type="curve"/>
      <point x="367" y="116" type="line"/>
      <point x="552" y="87" type="line"/>
      <point x="544" y="0" type="line"/>
    </contour>
    <contour>
      <point x="445" y="789" type="line"/>
      <point x="492" y="786"/>
      <point x="624" y="783"/>
      <point x="663" y="786" type="curve" smooth="yes"/>
      <point x="905" y="802"/>
      <point x="1009" y="949"/>
      <point x="1003" y="1180" type="curve" smooth="yes"/>
      <point x="999" y="1337"/>
      <point x="942" y="1427"/>
      <point x="686" y="1427" type="curve" smooth="yes"/>
      <point x="656" y="1427"/>
      <point x="570" y="1417"/>
      <point x="528" y="1408" type="curve"/>
    </contour>
    <contour>
      <point x="717" y="1614" type="line"/>
      <point x="495" y="1942" type="line"/>
      <point x="560" y="2000" type="line"/>
      <point x="808" y="1765" type="line"/>
      <point x="1125" y="2000" type="line"/>
      <point x="1187" y="1943" type="line"/>
      <point x="892" y="1614" type="line"/>
    </contour>
  </outline>
</glyph>
<glyph name="Sacute" format="1">
  <advance width="1094"/>
  <unicode hex="015A"/>
  <outline>
    <contour>
      <point x="56" y="65" type="curve"/>
      <point x="97" y="343" type="line"/>
      <point x="213" y="343" type="line"/>
      <point x="239" y="150" type="line"/>
      <point x="293" y="113"/>
      <point x="388" y="92"/>
      <point x="467" y="92" type="curve" smooth="yes"/>
      <point x="592" y="92"/>
      <point x="773" y="162"/>
      <point x="783" y="342" type="curve" smooth="yes"/>
      <point x="792" y="505"/>
      <point x="673" y="598"/>
      <point x="537" y="683" type="curve" smooth="yes"/>
      <point x="374" y="785"/>
      <point x="200" y="906"/>
      <point x="196" y="1123" type="curve" smooth="yes"/>
      <point x="191" y="1388"/>
      <point x="416" y="1550"/>
      <point x="675" y="1550" type="curve" smooth="yes"/>
      <point x="866" y="1550"/>
      <point x="983" y="1502"/>
      <point x="1038" y="1465" type="curve"/>
      <point x="992" y="1203" type="line"/>
      <point x="886" y="1203" type="line"/>
      <point x="858" y="1382" type="line"/>
      <point x="819" y="1411"/>
      <point x="738" y="1433"/>
      <point x="658" y="1433" type="curve" smooth="yes"/>
      <point x="539" y="1433"/>
      <point x="401" y="1385"/>
      <point x="393" y="1198" type="curve" smooth="yes"/>
      <point x="386" y="1033"/>
      <point x="509" y="938"/>
      <point x="650" y="850" type="curve" smooth="yes"/>
      <point x="810" y="749"/>
      <point x="977" y="647"/>
      <point x="981" y="436" type="curve" smooth="yes"/>
      <point x="986" y="149"/>
      <point x="758" y="-23"/>
      <point x="461" y="-23" type="curve" smooth="yes"/>
      <point x="276" y="-23"/>
      <point x="104" y="28"/>
    </contour>
    <contour>
      <point x="711" y="1613" type="curve"/>
      <point x="658" y="1658" type="line"/>
      <point x="934" y="2000" type="line"/>
      <point x="1058" y="1862" type="line"/>
      <point x="1006" y="1751"/>
      <point x="807" y="1649"/>
    </contour>
  </outline>
</glyph>
<glyph name="Scedilla" format="1">
  <advance width="1094"/>
  <unicode hex="015E"/>
  <outline>
    <contour>
      <point x="56" y="65" type="curve"/>
      <point x="97" y="343" type="line"/>
      <point x="213" y="343" type="line"/>
      <point x="239" y="150" type="line"/>
      <point x="293" y="113"/>
      <point x="388" y="92"/>
      <point x="467" y="92" type="curve" smooth="yes"/>
      <point x="592" y="92"/>
      <point x="773" y="162"/>
      <point x="783" y="342" type="curve" smooth="yes"/>
      <point x="792" y="505"/>
      <point x="673" y="598"/>
      <point x="537" y="683" type="curve" smooth="yes"/>
      <point x="374" y="785"/>
      <point x="200" y="906"/>
      <point x="196" y="1123" type="curve" smooth="yes"/>
      <point x="191" y="1388"/>
      <point x="416" y="1550"/>
      <point x="675" y="1550" type="curve" smooth="yes"/>
      <point x="866" y="1550"/>
      <point x="983" y="1502"/>
      <point x="1038" y="1465" type="curve"/>
      <point x="992" y="1203" type="line"/>
      <point x="886" y="1203" type="line"/>
      <point x="858" y="1382" type="line"/>
      <point x="819" y="1411"/>
      <point x="738" y="1433"/>
      <point x="658" y="1433" type="curve" smooth="yes"/>
      <point x="539" y="1433"/>
      <point x="401" y="1385"/>
      <point x="393" y="1198" type="curve" smooth="yes"/>
      <point x="386" y="1033"/>
      <point x="509" y="938"/>
      <point x="650" y="850" type="curve" smooth="yes"/>
      <point x="810" y="749"/>
      <point x="977" y="647"/>
      <point x="981" y="436" type="curve" smooth="yes"/>
      <point x="985" y="169"/>
      <point x="789" y="2"/>
      <point x="523" y="-20" type="curve"/>
      <point x="534" y="-64"/>
      <point x="535" y="-123"/>
      <point x="528" y="-185" type="curve" smooth="yes"/>
      <point x="504" y="-410"/>
      <point x="408" y="-464"/>
      <point x="260" y="-464" type="curve" smooth="yes"/>
      <point x="207" y="-464"/>
      <point x="144" y="-452"/>
      <point x="122" y="-436" type="curve"/>
      <point x="157" y="-305" type="line"/>
      <point x="174" y="-314"/>
      <point x="197" y="-319"/>
      <point x="228" y="-319" type="curve" smooth="yes"/>
      <point x="310" y="-319"/>
      <point x="381" y="-267"/>
      <point x="397" y="-119" type="curve" smooth="yes"/>
      <point x="401" y="-76"/>
      <point x="402" y="-45"/>
      <point x="400" y="-21" type="curve"/>
      <point x="239" y="-11"/>
      <point x="98" y="32"/>
    </contour>
  </outline>
</glyph>
<glyph name="scedilla" format="1">
  <advance width="885"/>
  <unicode hex="015F"/>
  <outline>
    <contour>
      <point x="50" y="39" type="curve"/>
      <point x="86" y="190" type="line"/>
      <point x="129" y="161"/>
      <point x="233" y="115"/>
      <point x="354" y="115" type="curve" smooth="yes"/>
      <point x="439" y="115"/>
      <point x="553" y="127"/>
      <point x="553" y="259" type="curve" smooth="yes"/>
      <point x="553" y="370"/>
      <point x="464" y="437"/>
      <point x="377" y="502" type="curve" smooth="yes"/>
      <point x="307" y="554"/>
      <point x="168" y="677"/>
      <point x="168" y="839" type="curve" smooth="yes"/>
      <point x="168" y="1038"/>
      <point x="350" y="1163"/>
      <point x="553" y="1163" type="curve" smooth="yes"/>
      <point x="660" y="1163"/>
      <point x="776" y="1141"/>
      <point x="809" y="1126" type="curve"/>
      <point x="771" y="959" type="line"/>
      <point x="760" y="976"/>
      <point x="670" y="1034"/>
      <point x="544" y="1034" type="curve" smooth="yes"/>
      <point x="460" y="1034"/>
      <point x="371" y="1006"/>
      <point x="358" y="899" type="curve" smooth="yes"/>
      <point x="345" y="794"/>
      <point x="429" y="713"/>
      <point x="516" y="645" type="curve" smooth="yes"/>
      <point x="619" y="564"/>
      <point x="740" y="465"/>
      <point x="740" y="297" type="curve" smooth="yes"/>
      <point x="740" y="125"/>
      <point x="611" y="20"/>
      <point x="447" y="-10" type="curve"/>
      <point x="459" y="-55"/>
      <point x="461" y="-119"/>
      <point x="454" y="-185" type="curve" smooth="yes"/>
      <point x="430" y="-410"/>
      <point x="334" y="-464"/>
      <point x="186" y="-464" type="curve" smooth="yes"/>
      <point x="133" y="-464"/>
      <point x="70" y="-452"/>
      <point x="48" y="-436" type="curve"/>
      <point x="83" y="-305" type="line"/>
      <point x="100" y="-314"/>
      <point x="123" y="-319"/>
      <point x="154" y="-319" type="curve" smooth="yes"/>
      <point x="236" y="-319"/>
      <point x="307" y="-267"/>
      <point x="323" y="-119" type="curve" smooth="yes"/>
      <point x="327" y="-75"/>
      <point x="328" y="-44"/>
      <point x="326" y="-20" type="curve"/>
      <point x="210" y="-17"/>
      <point x="83" y="10"/>
    </contour>
  </outline>
</glyph>
<glyph name="uni0162" format="1">
  <advance width="1225"/>
  <unicode hex="0162"/>
  <outline>
    <contour>
      <point x="191" y="0" type="line"/>
      <point x="200" y="93" type="line"/>
      <point x="444" y="116" type="line"/>
      <point x="609" y="1423" type="line"/>
      <point x="290" y="1396" type="line"/>
      <point x="197" y="1066" type="line"/>
      <point x="83" y="1064" type="line"/>
      <point x="160" y="1530" type="line"/>
      <point x="1298" y="1530" type="line"/>
      <point x="1232" y="1064" type="line"/>
      <point x="1124" y="1064" type="line"/>
      <point x="1132" y="1397" type="line"/>
      <point x="808" y="1423" type="line"/>
      <point x="642" y="116" type="line"/>
      <point x="890" y="93" type="line"/>
      <point x="883" y="0" type="line"/>
      <point x="588" y="0" type="line"/>
      <point x="603" y="-45"/>
      <point x="606" y="-114"/>
      <point x="598" y="-185" type="curve" smooth="yes"/>
      <point x="574" y="-410"/>
      <point x="478" y="-464"/>
      <point x="330" y="-464" type="curve" smooth="yes"/>
      <point x="277" y="-464"/>
      <point x="214" y="-452"/>
      <point x="192" y="-436" type="curve"/>
      <point x="227" y="-305" type="line"/>
      <point x="244" y="-314"/>
      <point x="267" y="-319"/>
      <point x="298" y="-319" type="curve" smooth="yes"/>
      <point x="380" y="-319"/>
      <point x="451" y="-267"/>
      <point x="467" y="-119" type="curve"/>
      <point x="472" y="-62"/>
      <point x="472" y="-27"/>
      <point x="468" y="0" type="curve"/>
    </contour>
  </outline>
</glyph>
<glyph name="uni0163" format="1">
  <advance width="735"/>
  <unicode hex="0163"/>
  <outline>
    <contour>
      <point x="150" y="159" type="curve" smooth="yes"/>
      <point x="150" y="170"/>
      <point x="149" y="192"/>
      <point x="162" y="292" type="curve" smooth="yes"/>
      <point x="253" y="1016" type="line"/>
      <point x="133" y="1016" type="line"/>
      <point x="153" y="1103" type="line"/>
      <point x="276" y="1150" type="line"/>
      <point x="320" y="1200"/>
      <point x="375" y="1326"/>
      <point x="409" y="1416" type="curve"/>
      <point x="504" y="1416" type="line"/>
      <point x="470" y="1155" type="line"/>
      <point x="732" y="1155" type="line"/>
      <point x="712" y="1016" type="line"/>
      <point x="453" y="1016" type="line"/>
      <point x="370" y="390" type="line" smooth="yes"/>
      <point x="360" y="315"/>
      <point x="353" y="251"/>
      <point x="353" y="212" type="curve" smooth="yes"/>
      <point x="353" y="138"/>
      <point x="368" y="119"/>
      <point x="437" y="119" type="curve" smooth="yes"/>
      <point x="489" y="119"/>
      <point x="587" y="171"/>
      <point x="629" y="203" type="curve"/>
      <point x="647" y="125" type="line"/>
      <point x="606" y="73"/>
      <point x="483" y="2"/>
      <point x="378" y="-15" type="curve"/>
      <point x="390" y="-60"/>
      <point x="391" y="-121"/>
      <point x="384" y="-185" type="curve" smooth="yes"/>
      <point x="360" y="-410"/>
      <point x="264" y="-464"/>
      <point x="116" y="-464" type="curve" smooth="yes"/>
      <point x="63" y="-464"/>
      <point x="0" y="-452"/>
      <point x="-22" y="-436" type="curve"/>
      <point x="13" y="-305" type="line"/>
      <point x="30" y="-314"/>
      <point x="53" y="-319"/>
      <point x="84" y="-319" type="curve" smooth="yes"/>
      <point x="166" y="-319"/>
      <point x="237" y="-267"/>
      <point x="253" y="-119" type="curve" smooth="yes"/>
      <point x="258" y="-68"/>
      <point x="258" y="-35"/>
      <point x="255" y="-9" type="curve"/>
      <point x="193" y="10"/>
      <point x="150" y="59"/>
    </contour>
  </outline>
</glyph>
<glyph name="tcaron" format="1">
  <advance width="735"/>
  <unicode hex="0165"/>
  <outline>
    <contour>
      <point x="150" y="159" type="curve" smooth="yes"/>
      <point x="150" y="170"/>
      <point x="149" y="192"/>
      <point x="162" y="292" type="curve" smooth="yes"/>
      <point x="253" y="1016" type="line"/>
      <point x="133" y="1016" type="line"/>
      <point x="153" y="1103" type="line"/>
      <point x="276" y="1150" type="line"/>
      <point x="320" y="1200"/>
      <point x="375" y="1326"/>
      <point x="409" y="1416" type="curve"/>
      <point x="504" y="1416" type="line"/>
      <point x="470" y="1155" type="line"/>
      <point x="732" y="1155" type="line"/>
      <point x="712" y="1016" type="line"/>
      <point x="453" y="1016" type="line"/>
      <point x="370" y="390" type="line" smooth="yes"/>
      <point x="360" y="315"/>
      <point x="353" y="251"/>
      <point x="353" y="212" type="curve" smooth="yes"/>
      <point x="353" y="138"/>
      <point x="368" y="119"/>
      <point x="437" y="119" type="curve" smooth="yes"/>
      <point x="489" y="119"/>
      <point x="587" y="171"/>
      <point x="629" y="203" type="curve"/>
      <point x="647" y="125" type="line"/>
      <point x="600" y="66"/>
      <point x="444" y="-20"/>
      <point x="333" y="-20" type="curve" smooth="yes"/>
      <point x="233" y="-20"/>
      <point x="150" y="22"/>
    </contour>
    <contour>
      <point x="713" y="1255" type="curve"/>
      <point x="653" y="1285" type="line"/>
      <point x="647" y="1310" type="line"/>
      <point x="667" y="1393"/>
      <point x="686" y="1493"/>
      <point x="698" y="1601" type="curve" smooth="yes"/>
      <point x="706" y="1676"/>
      <point x="687" y="1772"/>
      <point x="667" y="1802" type="curve"/>
      <point x="686" y="1844" type="line"/>
      <point x="843" y="1890" type="line"/>
      <point x="877" y="1853"/>
      <point x="881" y="1757"/>
      <point x="871" y="1661" type="curve" smooth="yes"/>
      <point x="852" y="1484"/>
      <point x="779" y="1335"/>
    </contour>
  </outline>
</glyph>
<glyph name="Tbar" format="1">
  <advance width="1225"/>
  <unicode hex="0166"/>
  <outline>
    <contour>
      <point x="191" y="0" type="line"/>
      <point x="200" y="93" type="line"/>
      <point x="444" y="116" type="line"/>
      <point x="520" y="722" type="line"/>
      <point x="279" y="722" type="line"/>
      <point x="295" y="852" type="line"/>
      <point x="537" y="852" type="line"/>
      <point x="609" y="1423" type="line"/>
      <point x="290" y="1396" type="line"/>
      <point x="197" y="1066" type="line"/>
      <point x="83" y="1064" type="line"/>
      <point x="160" y="1530" type="line"/>
      <point x="1298" y="1530" type="line"/>
      <point x="1232" y="1064" type="line"/>
      <point x="1124" y="1064" type="line"/>
      <point x="1132" y="1397" type="line"/>
      <point x="808" y="1423" type="line"/>
      <point x="735" y="852" type="line"/>
      <point x="1034" y="852" type="line"/>
      <point x="1018" y="722" type="line"/>
      <point x="719" y="722" type="line"/>
      <point x="642" y="116" type="line"/>
      <point x="890" y="93" type="line"/>
      <point x="883" y="0" type="line"/>
    </contour>
  </outline>
</glyph>
<glyph name="tbar" format="1">
  <advance width="735"/>
  <unicode hex="0167"/>
  <outline>
    <contour>
      <point x="150" y="159" type="curve" smooth="yes"/>
      <point x="150" y="170"/>
      <point x="149" y="192"/>
      <point x="162" y="292" type="curve" smooth="yes"/>
      <point x="203" y="621" type="line"/>
      <point x="79" y="621" type="line"/>
      <point x="95" y="751" type="line"/>
      <point x="220" y="751" type="line"/>
      <point x="253" y="1016" type="line"/>
      <point x="133" y="1016" type="line"/>
      <point x="153" y="1103" type="line"/>
      <point x="276" y="1150" type="line"/>
      <point x="320" y="1200"/>
      <point x="375" y="1326"/>
      <point x="409" y="1416" type="curve"/>
      <point x="504" y="1416" type="line"/>
      <point x="470" y="1155" type="line"/>
      <point x="732" y="1155" type="line"/>
      <point x="712" y="1016" type="line"/>
      <point x="453" y="1016" type="line"/>
      <point x="418" y="751" type="line"/>
      <point x="677" y="751" type="line"/>
      <point x="661" y="621" type="line"/>
      <point x="400" y="621" type="line"/>
      <point x="370" y="390" type="line" smooth="yes"/>
      <point x="360" y="315"/>
      <point x="353" y="251"/>
      <point x="353" y="212" type="curve" smooth="yes"/>
      <point x="353" y="138"/>
      <point x="368" y="119"/>
      <point x="437" y="119" type="curve" smooth="yes"/>
      <point x="489" y="119"/>
      <point x="587" y="171"/>
      <point x="629" y="203" type="curve"/>
      <point x="647" y="125" type="line"/>
      <point x="600" y="66"/>
      <point x="444" y="-20"/>
      <point x="333" y="-20" type="curve" smooth="yes"/>
      <point x="233" y="-20"/>
      <point x="150" y="22"/>
    </contour>
  </outline>
</glyph>
<glyph name="uring" format="1">
  <advance width="1207"/>
  <unicode hex="016F"/>
  <outline>
    <contour>
      <point x="165" y="255" type="curve" smooth="yes"/>
      <point x="165" y="343"/>
      <point x="184" y="478"/>
      <point x="200" y="597" type="curve" smooth="yes"/>
      <point x="250" y="963" type="line"/>
      <point x="152" y="1022" type="line"/>
      <point x="170" y="1111" type="line"/>
      <point x="412" y="1163" type="line"/>
      <point x="460" y="1139" type="line"/>
      <point x="391" y="589" type="line" smooth="yes"/>
      <point x="376" y="468"/>
      <point x="361" y="387"/>
      <point x="361" y="286" type="curve" smooth="yes"/>
      <point x="361" y="147"/>
      <point x="417" y="117"/>
      <point x="504" y="117" type="curve" smooth="yes"/>
      <point x="596" y="117"/>
      <point x="696" y="179"/>
      <point x="761" y="246" type="curve"/>
      <point x="881" y="1155" type="line"/>
      <point x="1074" y="1155" type="line"/>
      <point x="949" y="189" type="line" smooth="yes"/>
      <point x="942" y="137"/>
      <point x="949" y="113"/>
      <point x="971" y="113" type="curve" smooth="yes"/>
      <point x="992" y="113"/>
      <point x="1018" y="126"/>
      <point x="1077" y="180" type="curve"/>
      <point x="1108" y="127" type="line"/>
      <point x="1091" y="98"/>
      <point x="981" y="-18"/>
      <point x="861" y="-18" type="curve" smooth="yes"/>
      <point x="776" y="-18"/>
      <point x="738" y="36"/>
      <point x="750" y="120" type="curve"/>
      <point x="677" y="49"/>
      <point x="571" y="-20"/>
      <point x="420" y="-20" type="curve" smooth="yes"/>
      <point x="266" y="-20"/>
      <point x="165" y="46"/>
    </contour>
    <contour>
      <point x="688" y="1253" type="curve" smooth="yes"/>
      <point x="486" y="1253"/>
      <point x="392" y="1362"/>
      <point x="411" y="1526" type="curve"/>
      <point x="434" y="1710"/>
      <point x="607" y="1786"/>
      <point x="758" y="1786" type="curve" smooth="yes"/>
      <point x="946" y="1786"/>
      <point x="1049" y="1687"/>
      <point x="1030" y="1521" type="curve" smooth="yes"/>
      <point x="1009" y="1336"/>
      <point x="846" y="1253"/>
    </contour>
    <contour>
      <point x="703" y="1339" type="curve"/>
      <point x="805" y="1338"/>
      <point x="877" y="1380"/>
      <point x="891" y="1514" type="curve" smooth="yes"/>
      <point x="902" y="1622"/>
      <point x="839" y="1697"/>
      <point x="742" y="1698" type="curve" smooth="yes"/>
      <point x="642" y="1699"/>
      <point x="564" y="1653"/>
      <point x="551" y="1526" type="curve" smooth="yes"/>
      <point x="540" y="1424"/>
      <point x="609" y="1342"/>
    </contour>
  </outline>
</glyph>
<glyph name="uogonek" format="1">
  <advance width="1207"/>
  <unicode hex="0173"/>
  <outline>
    <contour>
      <point x="165" y="255" type="curve" smooth="yes"/>
      <point x="165" y="343"/>
      <point x="184" y="478"/>
      <point x="200" y="597" type="curve" smooth="yes"/>
      <point x="250" y="963" type="line"/>
      <point x="152" y="1022" type="line"/>
      <point x="170" y="1111" type="line"/>
      <point x="412" y="1163" type="line"/>
      <point x="460" y="1139" type="line"/>
      <point x="391" y="589" type="line" smooth="yes"/>
      <point x="376" y="468"/>
      <point x="361" y="387"/>
      <point x="361" y="286" type="curve" smooth="yes"/>
      <point x="361" y="147"/>
      <point x="417" y="117"/>
      <point x="504" y="117" type="curve" smooth="yes"/>
      <point x="596" y="117"/>
      <point x="696" y="179"/>
      <point x="761" y="246" type="curve"/>
      <point x="881" y="1155" type="line"/>
      <point x="1074" y="1155" type="line"/>
      <point x="949" y="189" type="line" smooth="yes"/>
      <point x="942" y="137"/>
      <point x="949" y="113"/>
      <point x="971" y="113" type="curve" smooth="yes"/>
      <point x="992" y="113"/>
      <point x="1018" y="126"/>
      <point x="1077" y="180" type="curve"/>
      <point x="1108" y="127" type="line"/>
      <point x="1095" y="106"/>
      <point x="1034" y="39"/>
      <point x="956" y="4" type="curve"/>
      <point x="863" y="-71"/>
      <point x="792" y="-137"/>
      <point x="791" y="-201" type="curve"/>
      <point x="787" y="-266"/>
      <point x="821" y="-287"/>
      <point x="844" y="-287" type="curve" smooth="yes"/>
      <point x="880" y="-287"/>
      <point x="918" y="-272"/>
      <point x="974" y="-228" type="curve"/>
      <point x="1000" y="-322" type="line"/>
      <point x="948" y="-368"/>
      <point x="866" y="-416"/>
      <point x="750" y="-416" type="curve" smooth="yes"/>
      <point x="643" y="-416"/>
      <point x="594" y="-343"/>
      <point x="597" y="-280" type="curve" smooth="yes"/>
      <point x="599" y="-238"/>
      <point x="613" y="-188"/>
      <point x="638" y="-156" type="curve" smooth="yes"/>
      <point x="695" y="-81"/>
      <point x="756" y="-45"/>
      <point x="815" y="-11" type="curve"/>
      <point x="763" y="5"/>
      <point x="740" y="53"/>
      <point x="750" y="120" type="curve"/>
      <point x="677" y="49"/>
      <point x="571" y="-20"/>
      <point x="420" y="-20" type="curve" smooth="yes"/>
      <point x="266" y="-20"/>
      <point x="165" y="46"/>
    </contour>
  </outline>
</glyph>
<glyph name="Ydieresis" format="1">
  <advance width="1173"/>
  <unicode hex="0178"/>
  <outline>
    <contour>
      <point x="243" y="0" type="line"/>
      <point x="251" y="87" type="line"/>
      <point x="447" y="116" type="line"/>
      <point x="508" y="590" type="line"/>
      <point x="144" y="1406" type="line"/>
      <point x="40" y="1429" type="line"/>
      <point x="50" y="1530" type="line"/>
      <point x="539" y="1530" type="line"/>
      <point x="527" y="1429" type="line"/>
      <point x="367" y="1406" type="line"/>
      <point x="595" y="838" type="line"/>
      <point x="631" y="712" type="line"/>
      <point x="703" y="838" type="line"/>
      <point x="1046" y="1406" type="line"/>
      <point x="907" y="1429" type="line"/>
      <point x="918" y="1530" type="line"/>
      <point x="1330" y="1530" type="line"/>
      <point x="1319" y="1429" type="line"/>
      <point x="1220" y="1407" type="line"/>
      <point x="696" y="590" type="line"/>
      <point x="635" y="116" type="line"/>
      <point x="848" y="87" type="line"/>
      <point x="840" y="0" type="line"/>
    </contour>
    <contour>
      <point x="947" y="1696" type="curve" smooth="yes"/>
      <point x="884" y="1696"/>
      <point x="832" y="1749"/>
      <point x="832" y="1815" type="curve" smooth="yes"/>
      <point x="832" y="1892"/>
      <point x="914" y="1959"/>
      <point x="978" y="1959" type="curve" smooth="yes"/>
      <point x="1054" y="1959"/>
      <point x="1102" y="1906"/>
      <point x="1099" y="1843" type="curve" smooth="yes"/>
      <point x="1096" y="1766"/>
      <point x="1027" y="1696"/>
    </contour>
    <contour>
      <point x="528" y="1696" type="curve" smooth="yes"/>
      <point x="465" y="1696"/>
      <point x="412" y="1751"/>
      <point x="415" y="1815" type="curve" smooth="yes"/>
      <point x="418" y="1892"/>
      <point x="493" y="1959"/>
      <point x="558" y="1959" type="curve" smooth="yes"/>
      <point x="635" y="1959"/>
      <point x="682" y="1906"/>
      <point x="680" y="1843" type="curve" smooth="yes"/>
      <point x="677" y="1766"/>
      <point x="606" y="1696"/>
    </contour>
  </outline>
</glyph>
<glyph name="zacute" format="1">
  <advance width="1058"/>
  <unicode hex="017A"/>
  <outline>
    <contour>
      <point x="3" y="39" type="line"/>
      <point x="645" y="827" type="line"/>
      <point x="783" y="979" type="line"/>
      <point x="399" y="980" type="line" smooth="yes"/>
      <point x="306" y="980"/>
      <point x="229" y="909"/>
      <point x="215" y="819" type="curve"/>
      <point x="152" y="819" type="line"/>
      <point x="153" y="912"/>
      <point x="175" y="1105"/>
      <point x="232" y="1143" type="curve" smooth="yes"/>
      <point x="249" y="1154"/>
      <point x="283" y="1163"/>
      <point x="332" y="1163" type="curve" smooth="yes"/>
      <point x="481" y="1163"/>
      <point x="742" y="1128"/>
      <point x="862" y="1128" type="curve" smooth="yes"/>
      <point x="889" y="1128"/>
      <point x="944" y="1138"/>
      <point x="974" y="1163" type="curve"/>
      <point x="1032" y="1103" type="line"/>
      <point x="382" y="296" type="line"/>
      <point x="254" y="153" type="line"/>
      <point x="666" y="153" type="line" smooth="yes"/>
      <point x="759" y="153"/>
      <point x="840" y="225"/>
      <point x="854" y="315" type="curve"/>
      <point x="916" y="315" type="line"/>
      <point x="915" y="222"/>
      <point x="890" y="35"/>
      <point x="833" y="-3" type="curve" smooth="yes"/>
      <point x="816" y="-14"/>
      <point x="782" y="-23"/>
      <point x="733" y="-23" type="curve" smooth="yes"/>
      <point x="584" y="-23"/>
      <point x="293" y="10"/>
      <point x="173" y="10" type="curve" smooth="yes"/>
      <point x="151" y="10"/>
      <point x="115" y="5"/>
      <point x="88" y="-10" type="curve"/>
      <point x="71" y="-23" type="line"/>
    </contour>
    <contour>
      <point x="553" y="1251" type="curve"/>
      <point x="500" y="1312" type="line"/>
      <point x="817" y="1743" type="line"/>
      <point x="959" y="1576" type="line"/>
      <point x="923" y="1508"/>
      <point x="672" y="1297"/>
    </contour>
  </outline>
</glyph>
